<?xml version="1.0" encoding="UTF-8"?>
<svg id="Layer_2" data-name="Layer 2" xmlns="http://www.w3.org/2000/svg" viewBox="0 0 557.43 557.43">
  <defs>
    <style>
      .cls-1 {
        fill: #fff;
      }

      .cls-2 {
        fill: #2b8261;
      }
    </style>
  </defs>
  <g id="Text">
    <rect class="cls-2" width="557.43" height="557.43"/>
    <path class="cls-1" d="M69.24,415.3c.45-1.7,3.8-1.41,5.36-1.34.69-2.29-1.55-3.1-1.81-4.89-.64-4.41.82-8.24,3.58-11.64,1.14-1.41,2.96-1.91,3.41-2.45.32-.38.06-1.19.26-1.44.33-.4,2.65.08,3.81-.24.88-.25,1.92-1.72,3.2-2.15,2.62-.87,21.16-.87,24.59-.4s4.76,3.44,9.85,2.7c4.79-.7-.63-5.04-1.22-7.76-.37-1.7-.42-6.16-.17-7.91.22-1.53,1.6-2,1.83-3.53.36-2.44-.45-5.41.12-7.91,1.14-5.03,4.94-11.35,7.2-16.01,1.67-3.45,5.22-8.15,8.74-10.02,3.15-1.68,6.15-4.61,9.79-7.14,2.11-1.46,8.18-7.72,8.81-9.93.44-1.55-.1-3.38.27-5.09.21-.99,1.51-2.32,1.48-2.84-.03-.44-1.41-1.14-1.64-2.64-.47-3.1.91-6.8.74-8.78-.12-1.38-1.05-2.52-.74-4.64.38-2.51,5-6.72,7.17-8,2.33-1.37,11.32-3.76,13.83-3.71,1.23.02,2.98,1.27,4.47,1.45,2.19.27,5.02-.44,6.99.15.83.24,6,3.23,6.79,3.92,1.79,1.55,1.91,3.73,4.36,4.12-.09,2.89,2.48,5.93,2.81,8.35s-.36,5.53,0,8.03c.44,3.05,1.03,2.12.86,6.21-.09,2.23.79,5.92,2.69,7.2.73.49,1.89.38,2.69.88,1.03.64,1.8,2.24,2.67,2.69,1.31.66,2.56.17,4.07,1.28,2.74,2.01,4.35,5.36,6.24,8.03.79,1.11,2.67,2.25,2.97,3.27.4,1.38.37,8.08.13,9.73-.26,1.76-2.08,2.15-1.86,4.44.16,1.63,3.37,5.29,3.64,7.11.84,5.67-.99,11.98-.99,16.98,0,1.51.9,2.79,1.01,4.42.2,3.11,0,6.36-.54,9.41,2.49,3.58,5.03.41,8.1.01,5.21-.68,11.89.76,16.96,0,1.49-.22,1.9-1.41,2.79-1.67,1.06-.31,2.29.05,3.32-.25,1.18-.34,1.74-2.11,2.91-2.44,1.47-.42,4.14.5,4.72-1.53,1.16-4.1-1.39-8.49-1.75-12.38s.53-8.63.02-12.52-1.85-11.18-2.82-15.03c-.56-2.23-3.31-7.21-3.46-9.1-.17-2.2,1.56-3.4,1.83-5.34.32-2.34.22-7.19-.4-9.41-.56-1.97-2.95-4.09-3.19-5.74-.69-4.74,1.06-11.25.73-15.03-.27-3.13-1.25-6.52-.74-10,.26-1.75,2.9-7.15,3.47-9.03.73-2.44-.22-6.54.3-9.52.95-5.49,4.24-11.2,5.93-16.38,2.54-7.81,2.99-16.88,5.38-24.96,2.79-9.43,2.45-20.75,5.63-30.96.52-1.66,1.7-2.45,1.7-4.61,0-1.76-4.36-11.46-5.54-13.26-5.43-8.28-5.42-12.94-9.23-21.12-1.21-2.61-5.03-8.06-5.7-10.37-.51-1.79.17-4.01-.27-5.98-.84-3.76-2.92-9.87-3.43-13.53s.78-9.23-.13-12.37c-.31-1.09-2.48-3.2-3.04-4.99-.43-1.37-2.12-6.12-2.21-6.71-.22-1.52.11-3.32.07-4.89,2.24-.41,3.29-.64,4.02-2.77,4.25.62,11.99-1.73,14.25,2.7,1.71,3.36-1.01,5.06-1.36,7.61-.29,2.06-.29,7.72.15,9.67.36,1.64,2.02,2.94,2.73,4.41,3.85,8.03,7.44,14.89,10.68,23.23,1.42,3.65,2.23,7.98,3.86,11.31.87,1.78,2.94,3.44,3.89,5.03,1.11,1.86,1.52,4.44,3.03,6.39.19.25,1,.1,1.32.42s.17,1.13.42,1.32c.82.64,4.49,2.79,5.16,2.03-.44-2.1.88-3.86.96-5.79.07-1.77-.89-3.26-.8-4.32.05-.59,1.48-6.27,1.75-7.17.18-.59,5.78-9.3,6.61-10.35,3.78-4.78,4.07-2.76,8.74-3.75,3.47-.74,4.37-3.61,9.82-2.39,1.63.37,2.81,2.11,3.84,2.4,1.66.48,3.59-.13,5.25.1,1.5.22,1.92,1.43,2.78,1.68,1.17.34,3.46-.16,3.81.21.17.18.28,1.36.94,2.17,1.19,1.46,3.53,2.28,4.08,3.08.77,1.14,1.94,4.42,2.28,5.82.27,1.84-1.27,3.09-1.7,4.62-1.88,6.73-2.37,9.46-7.72,14.61-.63.6-3.47,2.41-3.79,2.83-2.41,3.12-2.85,9.48-1.62,13.24.19.59,4.59,6.44,4.93,6.67,1.18.79,5.47,1.86,6.14,2.38.26.2.02,1.09.29,1.4.49.57,2.93.93,4.34,2.41,4.05,4.3,5.64,9.07,8.45,13.86.82,1.4,2.21,1.34,2.93,2.03,3.07,2.91,4.5,7.73,7.09,10.66,3.4,3.84,6.7,11.29,10.99,13.63.91.5,2.17.31,2.52.58.2.16,1.81,4.15,1.9,4.79.83,5.92-.92,8.38-3.47,13.25,2.27,3.91,4.25,9.96,7.02,13.4.68.85,1.44.45,1.67.66.26.24.07,2.24.58,3.47,1.08,2.61,4.89,5.26,6.24,8.04,2.19,4.54,5.59,11.47,9.26,14.35.84.66-1.35,4.54,1.95,4.87.97,10.77,4.07,21.27,6.35,31.93.62,2.88,2.41,2.57,3.23,3.46,2.2,2.38,2.21,7.99,3.95,11.68,2.86,6.07,8.15,11.61,7.01,18.88l-1.69.59-.96,3.93c.53,1.12,1.3,1.01,2.17,1.3,7.6,2.6,10.82.82,17.83,1.8.74.1,6.73,2.29,7.18,2.64.71.55,1.28,1.3,1.32,2.25-.21,6.85.2,13.74.02,20.58-.33,12.36-.22,26.22-1.3,38.33-.16,1.84-.93,3.76-.52,5.81l-252.15.04c-11.58-2.7-23.52-.49-35.7-.9-3.99-.13-6.34-1.13-11.14-.48-22.72,3.12-42.3-.36-64.64-1.39-5.57-.26-11.08.07-16.55.93v-37.04ZM344.02,232.92c-.89-1.18-7.24.42-8.65,1.84-.37.37-.48,1.37-1.04,2.06-5.31,6.51-8.9,12.44-11.81,20.35-.4,1.08-1.94,1.71-1.63,2.83.62,1.07,1.36,1.01,2.26,1.32,3.91,1.39,7.4,1.59,10.91,3.41,2.85,1.48,1.76,1.65,2.85,2.44.78.56,2.12.37,3.23,1.26,1.25,1,1.82,3.44,3.48,4.56,1.26.86,2.65.69,3.03.99.33.26,3.42,6.82,3.59,7.59.66,2.88-2.57,4.99,1.45,7.44,1.75-1.13,1.07-2.9,1.79-4.45.89-1.93,3.56-4.71,3.88-6.83.13-.83-.79-2.09-.81-3.4-.07-3.86.1-7.73.09-11.59l-1.7-.58-.08-5.67-1.88-.98c1.13-6.28-.5-7.52-3.06-12.04-1.23-2.18-1.59-3.42-2.39-5.6-.18-.5-1.47-2.52-1.89-3.09-.18-.25-1.02-.09-1.32-.43-.36-.4-.12-1.17-.31-1.43ZM330.91,314.19c.62-.62,5.16-3.07,5.16-4.2-2.05-3.39-3.9-2.47-6.55-3.26-.8-.24-1.27-1.3-2.04-1.53-1.59-.47-3.49.21-5.1-.25-1.02-.29-2.22-2.05-3.84-2.41-1.49-.33-4.61-.38-6.12-.17-1.09.15-5.14,3.41-6.26,4.45-1.37,1.28-6.64,7.36-7.15,8.91-3.12,9.55-6.62,19.07-9.5,28.87-2.58,8.73-.81,7.08.16,14.47.67,5.12-.82,13.44-1.91,18.59-.32,1.49-2,2.52-1.65,4.15l7.04.99,1.92,4.35c8.05-1.83,16.68-.46,24.95-.88.04-.98-.16-2.01.14-2.97.49-1.55,2.81-5.01,3.3-6.55.29-.93-.09-2.52.23-2.87.18-.19,1.38-.28,2.15-.95,1.09-.95,2.1-2.17,3.06-3.26-1.87-4.94-3.45-10.01-5.5-14.89-1.4-3.34-3.61-6.84-5.04-10.13l-.17-14.99c.12-.8,1.18-.32,1.6-.67,3.38-2.94,7.84-11.53,11.13-14.81ZM354.78,363.05c2.21-3.98-2.02-6.31-5.31-8-.75,3.15-3.78,3.99-2.68,8.03l8-.04Z"/>
  </g>
</svg>