<?xml version="1.0" encoding="UTF-8"?>
<svg id="Layer_2" data-name="Layer 2" xmlns="http://www.w3.org/2000/svg" viewBox="0 0 427.77 170.21">
  <defs>
    <style>
      .cls-1 {
        fill: #fff;
      }
    </style>
  </defs>
  <g id="Layer_2-2" data-name="Layer 2">
    <g id="Text">
      <g>
        <g>
          <path class="cls-1" d="M36.12,32.34c2.11,2.27,3.16,5.03,3.16,8.3v32.41h-8.93v-17.15c0-2.06-.96-3.7-2.89-4.94-1.92-1.24-4.18-1.86-6.76-1.86s-4.69.58-6.32,1.74c-1.63,1.16-2.45,2.74-2.45,4.74v1.58c.21-.05.55-.08,1.03-.08,2.48,0,4.49.78,6.05,2.33,1.55,1.55,2.33,3.57,2.33,6.05s-.84,4.49-2.53,6.05c-1.69,1.55-3.85,2.33-6.48,2.33s-4.99-.83-6.76-2.49c-1.77-1.66-2.65-3.81-2.65-6.44v-9.25c0-3.21,1.08-5.93,3.24-8.14,2.16-2.21,5.01-3.69,8.54-4.43,4.16-3,7.56-5.9,10.2-8.69-1.53-.42-3.16-.63-4.9-.63-3,0-5.53.61-7.59,1.82-2.06,1.21-3.29,2.85-3.71,4.9H0c.32-4.22,2.25-7.56,5.81-10.04s8.29-3.71,14.19-3.71c3.69,0,6.96.53,9.8,1.58,1.16-1.9,1.84-3.64,2.06-5.22h9.72c-.21,2.74-2.03,5.82-5.45,9.25h0ZM15.53,62.85c-.66-.68-1.52-1.03-2.57-1.03s-1.92.34-2.61,1.03-1.03,1.55-1.03,2.61.34,1.91,1.03,2.57c.68.66,1.55.99,2.61.99s1.91-.34,2.57-1.03c.66-.68.99-1.53.99-2.53,0-1.05-.33-1.92-.99-2.61ZM29.64,37.71c-2.53,1.85-5.11,3.53-7.75,5.06,3.58.37,6.4,1.53,8.46,3.48v-5.85c0-1-.24-1.9-.71-2.69Z"/>
          <path class="cls-1" d="M88.69,27.43v45.69h-7.98c-1.95-1.74-4.18-3.33-6.68-4.78s-4.91-2.57-7.23-3.36c-.05,2.58-1.02,4.7-2.89,6.36-1.87,1.66-4.2,2.49-7,2.49s-5.06-.84-6.8-2.53c-1.74-1.69-2.61-3.85-2.61-6.48s.83-4.61,2.49-6.24,3.89-2.5,6.68-2.61v-12.65c-.21.05-.55.08-1.03.08-2.48,0-4.49-.78-6.05-2.33-1.55-1.55-2.33-3.57-2.33-6.05s.83-4.41,2.49-5.97c1.66-1.55,3.83-2.33,6.52-2.33s4.98.83,6.72,2.49c1.74,1.66,2.61,3.81,2.61,6.44v21.5c2.58.84,5.14,1.86,7.67,3.04,2.53,1.19,4.66,2.33,6.4,3.44V27.43h9.02ZM53.08,37.67c.66.66,1.51.99,2.57.99s1.92-.33,2.61-.99c.68-.66,1.03-1.51,1.03-2.57s-.34-1.92-1.03-2.61c-.69-.68-1.56-1.03-2.61-1.03s-1.91.34-2.57,1.03-.99,1.56-.99,2.61.33,1.91.99,2.57ZM59.2,67.59c.68-.68,1.03-1.58,1.03-2.69s-.34-1.92-1.03-2.61c-.69-.68-1.58-1.03-2.69-1.03s-1.92.34-2.61,1.03-1.03,1.55-1.03,2.61.34,2,1.03,2.69c.68.69,1.55,1.03,2.61,1.03s2-.34,2.69-1.03Z"/>
          <path class="cls-1" d="M100.39.01c0,4.01-.94,7.48-2.81,10.43-1.87,2.95-4.4,5.22-7.59,6.8-3.19,1.58-6.78,2.37-10.79,2.37-5.01,0-8.93-.99-11.78-2.96s-4.27-4.6-4.27-7.87c0-2.37.79-4.29,2.37-5.77,1.58-1.47,3.58-2.21,6.01-2.21s4.43.74,6.01,2.21c1.58,1.48,2.37,3.43,2.37,5.85,0,2.21-.61,4.01-1.82,5.37h.63c3,0,5.59-.63,7.75-1.9,2.16-1.26,3.78-2.98,4.86-5.14s1.62-4.56,1.62-7.19h7.44ZM68.93,11.27c.69.66,1.55.99,2.61.99s1.91-.33,2.57-.99c.66-.66.99-1.51.99-2.57,0-1-.34-1.83-1.03-2.49-.68-.66-1.53-.99-2.53-.99-1.05,0-1.92.33-2.61.99-.68.66-1.03,1.49-1.03,2.49,0,1.05.34,1.91,1.03,2.57Z"/>
          <path class="cls-1" d="M137.58,39.8c.87,1.34,1.3,2.99,1.3,4.94v17.31c0,3.69-1.29,6.57-3.87,8.66-2.58,2.08-6.19,3.12-10.83,3.12s-8.25-1.03-10.83-3.08c-2.58-2.06-3.87-4.95-3.87-8.69v-6.48c0-1.53.26-2.86.79-3.99s1.32-2.54,2.37-4.23c1.11-1.58,1.95-3.02,2.53-4.31s.87-2.78.87-4.47c0-1.95-.59-3.42-1.78-4.43-1.19-1-2.78-1.5-4.78-1.5s-3.66.37-4.98,1.11h.32c2.06,0,3.81.67,5.26,2.02,1.45,1.34,2.17,3.23,2.17,5.65,0,2.21-.74,4.11-2.21,5.69-1.48,1.58-3.53,2.37-6.17,2.37s-4.89-.87-6.44-2.61-2.33-4.16-2.33-7.27c0-3.79,1.3-6.89,3.91-9.29s6.23-3.6,10.87-3.6c4.27,0,7.63.96,10.08,2.89,2.45,1.92,3.68,4.68,3.68,8.26,0,2-.24,3.71-.71,5.14s-1.19,3.08-2.13,4.98c-.79,1.42-1.37,2.66-1.74,3.71-.37,1.05-.55,2.21-.55,3.48v7.03c0,1.42.5,2.53,1.5,3.32s2.42,1.19,4.27,1.19,3.19-.4,4.19-1.19,1.5-1.9,1.5-3.32v-17.07c0-1.63-.33-2.88-.99-3.75s-1.75-1.54-3.28-2.02v-4.51c2.06-.9,3.58-2.13,4.58-3.71s1.55-3.71,1.66-6.4h9.17c-.21,2.74-1.04,5.22-2.49,7.43-1.45,2.21-2.99,3.77-4.62,4.66,1.53.63,2.73,1.62,3.6,2.96h-.02ZM106.43,38.97c-.66-.63-1.52-.95-2.57-.95s-1.9.32-2.53.95-.95,1.48-.95,2.53.32,1.91.95,2.57,1.47.99,2.53.99,1.91-.33,2.57-.99.99-1.51.99-2.57-.33-1.9-.99-2.53Z"/>
          <path class="cls-1" d="M187.77,39.8c.87,1.34,1.3,2.99,1.3,4.94v17.31c0,3.69-1.29,6.57-3.87,8.66-2.58,2.08-6.19,3.12-10.83,3.12s-8.25-1.03-10.83-3.08c-2.58-2.06-3.87-4.95-3.87-8.69v-6.48c0-1.53.26-2.86.79-3.99s1.32-2.54,2.37-4.23c1.11-1.58,1.95-3.02,2.53-4.31s.87-2.78.87-4.47c0-1.95-.59-3.42-1.78-4.43-1.19-1-2.78-1.5-4.78-1.5s-3.66.37-4.98,1.11h.32c2.06,0,3.81.67,5.26,2.02,1.45,1.34,2.17,3.23,2.17,5.65,0,2.21-.74,4.11-2.21,5.69-1.48,1.58-3.53,2.37-6.17,2.37s-4.89-.87-6.44-2.61-2.33-4.16-2.33-7.27c0-3.79,1.3-6.89,3.91-9.29s6.23-3.6,10.87-3.6c4.27,0,7.63.96,10.08,2.89,2.45,1.92,3.68,4.68,3.68,8.26,0,2-.24,3.71-.71,5.14s-1.19,3.08-2.13,4.98c-.79,1.42-1.37,2.66-1.74,3.71-.37,1.05-.55,2.21-.55,3.48v7.03c0,1.42.5,2.53,1.5,3.32s2.42,1.19,4.27,1.19,3.19-.4,4.19-1.19,1.5-1.9,1.5-3.32v-17.07c0-1.63-.33-2.88-.99-3.75s-1.75-1.54-3.28-2.02v-4.51c2.06-.9,3.58-2.13,4.58-3.71s1.55-3.71,1.66-6.4h9.17c-.21,2.74-1.04,5.22-2.49,7.43-1.45,2.21-2.99,3.77-4.62,4.66,1.53.63,2.73,1.62,3.6,2.96h-.02ZM156.63,38.97c-.66-.63-1.52-.95-2.57-.95s-1.9.32-2.53.95-.95,1.48-.95,2.53.32,1.91.95,2.57c.63.66,1.47.99,2.53.99s1.91-.33,2.57-.99.99-1.51.99-2.57-.33-1.9-.99-2.53Z"/>
          <path class="cls-1" d="M219.74,40.32c0-2.06-.63-3.66-1.9-4.82-1.26-1.16-3.03-1.74-5.3-1.74-2.42,0-4.35.7-5.77,2.09-1.42,1.4-2.13,3.31-2.13,5.73h-8.69c0-4.64,1.47-8.27,4.43-10.91,2.95-2.63,7.01-3.95,12.17-3.95s9.02,1.16,11.9,3.48c2.87,2.32,4.31,5.53,4.31,9.64v33.2h-9.01v-32.72h0Z"/>
          <path class="cls-1" d="M272.15,30.79c3.58,2.71,5.38,6.47,5.38,11.26v30.99h-8.93v-30.12c0-2.79-.99-5.02-2.96-6.68-1.98-1.66-4.68-2.49-8.1-2.49-3.74,0-6.69.9-8.85,2.69s-3.24,4.22-3.24,7.27c0,1.26.26,3.58.79,6.96l.24,1.74c.9-3.42,2.28-6.1,4.15-8.02,1.87-1.92,4.15-2.89,6.84-2.89,2.48,0,4.44.66,5.89,1.98s2.17,3.11,2.17,5.38-.67,4.06-2.02,5.37c-1.34,1.32-3.18,1.98-5.49,1.98-1.26,0-2.42-.22-3.48-.67-1.05-.45-1.85-1.12-2.37-2.02-.95,1.32-1.71,2.96-2.29,4.94-.58,1.98-.87,3.91-.87,5.81v8.77h-8.77v-11.7c0-1.21-.5-3.66-1.5-7.35-.63-2.37-1.12-4.35-1.46-5.93-.34-1.58-.51-3.03-.51-4.35,0-3.42.83-6.41,2.49-8.97s4.06-4.53,7.19-5.93,6.84-2.09,11.11-2.09c6.17,0,11.04,1.36,14.62,4.07h-.03ZM255.47,46.48c-.58.58-.87,1.37-.87,2.37s.29,1.73.87,2.33c.58.61,1.37.91,2.37.91s1.73-.3,2.33-.91.91-1.38.91-2.33c0-1-.3-1.79-.91-2.37-.61-.58-1.38-.87-2.33-.87-1,0-1.79.29-2.37.87Z"/>
          <path class="cls-1" d="M328.9,60.47c.95,1.26,1.42,2.71,1.42,4.35,0,2.69-.82,4.86-2.45,6.52s-3.79,2.49-6.48,2.49-4.76-.8-6.36-2.41c-1.61-1.61-2.44-3.7-2.49-6.28-2.06.84-3.99,1.98-5.81,3.4-1.82,1.42-3.28,2.92-4.39,4.51h-8.77v-29.72c-.21.05-.55.08-1.03.08-2.48,0-4.49-.78-6.05-2.33-1.55-1.55-2.33-3.57-2.33-6.05s.84-4.41,2.53-5.97c1.69-1.55,3.85-2.33,6.48-2.33,2.79,0,5.06.83,6.8,2.49s2.61,3.81,2.61,6.44v28.38c1.16-1.47,3.98-3.27,8.46-5.37,3.06-1.42,5.18-2.71,6.36-3.87,1.19-1.16,1.78-2.61,1.78-4.35v-23h9.01v23c0,1.53-.29,2.91-.87,4.15s-1.37,2.2-2.37,2.89c1.69.74,3,1.74,3.95,3v-.02ZM295.15,37.67c.68-.66,1.03-1.51,1.03-2.57s-.34-1.92-1.03-2.61c-.69-.68-1.55-1.03-2.61-1.03s-1.91.34-2.57,1.03-.99,1.56-.99,2.61.34,1.85,1.03,2.53c.68.69,1.53,1.03,2.53,1.03,1.05,0,1.92-.33,2.61-.99ZM323.96,68.02c.66-.66.99-1.51.99-2.57s-.33-1.92-.99-2.61c-.66-.68-1.52-1.03-2.57-1.03s-1.91.34-2.57,1.03-.99,1.55-.99,2.61.33,1.91.99,2.57,1.51.99,2.57.99,1.91-.33,2.57-.99Z"/>
          <path class="cls-1" d="M354.23,71.94c-1.87-1.26-2.99-3.08-3.36-5.45l-1.26-7.35c-.63.21-1.26.32-1.9.32-2.48,0-4.51-.72-6.09-2.17s-2.37-3.31-2.37-5.57.83-4.27,2.49-5.69,3.68-2.13,6.05-2.13c2,0,3.75.57,5.26,1.7,1.5,1.13,2.44,2.62,2.81,4.47l2.61,14.54c.1.69.43,1.24.99,1.66.55.42,1.23.63,2.02.63.95,0,1.67-.24,2.17-.71s.75-1.16.75-2.06v-23.56c0-2.06-.86-3.7-2.57-4.94-1.71-1.24-3.97-1.86-6.76-1.86s-5.14.62-7.03,1.86c-1.9,1.24-3.06,2.86-3.48,4.86h-8.85c.32-4.22,2.21-7.56,5.69-10.04s8.09-3.71,13.83-3.71,9.87,1.17,13.16,3.52c3.29,2.35,4.94,5.47,4.94,9.37v24.58c0,3.11-.99,5.49-2.96,7.15s-4.89,2.49-8.73,2.49c-3.06,0-5.52-.63-7.39-1.9h-.02ZM349.73,53.99c.61-.63.91-1.45.91-2.45s-.3-1.8-.91-2.41-1.41-.91-2.41-.91-1.81.3-2.41.91c-.61.61-.91,1.41-.91,2.41s.3,1.82.91,2.45c.61.63,1.41.95,2.41.95s1.8-.32,2.41-.95Z"/>
          <path class="cls-1" d="M424.7,60.47c.95,1.26,1.42,2.71,1.42,4.35,0,2.69-.82,4.86-2.45,6.52s-3.79,2.49-6.48,2.49-4.76-.8-6.36-2.41c-1.61-1.61-2.44-3.7-2.49-6.28-2.06.84-3.99,1.98-5.81,3.4-1.82,1.42-3.28,2.92-4.39,4.51h-8.77v-29.72c-.21.05-.55.08-1.03.08-2.48,0-4.49-.78-6.05-2.33-1.55-1.55-2.33-3.57-2.33-6.05s.84-4.41,2.53-5.97c1.69-1.55,3.85-2.33,6.48-2.33,2.79,0,5.06.83,6.8,2.49s2.61,3.81,2.61,6.44v28.38c1.16-1.47,3.98-3.27,8.46-5.37,3.06-1.42,5.18-2.71,6.36-3.87,1.19-1.16,1.78-2.61,1.78-4.35v-23h9.01v23c0,1.53-.29,2.91-.87,4.15s-1.37,2.2-2.37,2.89c1.69.74,3,1.74,3.95,3v-.02ZM390.95,37.67c.68-.66,1.03-1.51,1.03-2.57s-.34-1.92-1.03-2.61c-.69-.68-1.55-1.03-2.61-1.03s-1.91.34-2.57,1.03-.99,1.56-.99,2.61.34,1.85,1.03,2.53c.68.69,1.53,1.03,2.53,1.03,1.05,0,1.92-.33,2.61-.99ZM419.76,68.02c.66-.66.99-1.51.99-2.57s-.33-1.92-.99-2.61c-.66-.68-1.52-1.03-2.57-1.03s-1.91.34-2.57,1.03-.99,1.55-.99,2.61.33,1.91.99,2.57,1.51.99,2.57.99,1.91-.33,2.57-.99Z"/>
        </g>
        <g>
          <path class="cls-1" d="M359.56,123.1c-1-.88-2.1-1.32-3.32-1.32s-2.36.44-3.36,1.32-1.78,2.13-2.36,3.73-.86,3.48-.86,5.64.29,4.05.86,5.67c.58,1.62,1.37,2.86,2.37,3.73,1.01.86,2.12,1.3,3.34,1.3s2.29-.43,3.29-1.3c.99-.86,1.79-2.11,2.37-3.73.59-1.62.88-3.51.88-5.67s-.29-4.04-.86-5.64c-.58-1.6-1.36-2.84-2.36-3.73h0Z"/>
          <path class="cls-1" d="M332.59,121.62h-3.49v10.37h3.49c1.2,0,2.14-.4,2.83-1.19.69-.79,1.03-2.16,1.03-4.11s-.34-3.28-1.02-4-1.63-1.08-2.85-1.08h.01Z"/>
          <path class="cls-1" d="M128.77,135.61h-4.92v8.59h5.05c1.02,0,1.77-.31,2.27-.92s.75-1.69.75-3.24-.26-2.67-.78-3.38c-.52-.7-1.31-1.05-2.37-1.05h0Z"/>
          <path class="cls-1" d="M131.18,124.59c0-1.48-.23-2.49-.68-3.05s-1.14-.84-2.07-.84h-4.58v7.83h4.68c1.76,0,2.65-1.31,2.65-3.94h0Z"/>
          <path class="cls-1" d="M206.16,123.1c-1-.88-2.1-1.32-3.32-1.32s-2.36.44-3.36,1.32-1.78,2.13-2.36,3.73-.86,3.48-.86,5.64.29,4.05.86,5.67c.58,1.62,1.37,2.86,2.37,3.73,1.01.86,2.12,1.3,3.34,1.3s2.29-.43,3.29-1.3c.99-.86,1.79-2.11,2.37-3.73.59-1.62.88-3.51.88-5.67s-.29-4.04-.86-5.64c-.58-1.6-1.36-2.84-2.36-3.73h.01Z"/>
          <path class="cls-1" d="M.15,95.05v75.16h427.62v-75.16H.15ZM25.64,151.33l-1.9-7.78h-8.75l-1.9,7.78h-6.17l9.5-37.76h5.9l9.46,37.76h-6.14ZM47.16,149.19c-1.59,1.96-3.97,2.94-7.14,2.94-1.49,0-2.97-.23-4.44-.68-1.47-.45-2.68-1.07-3.63-1.86v-8.59c1.22,1.01,2.49,1.76,3.82,2.27,1.32.5,2.58.76,3.78.76,1.11,0,1.94-.27,2.51-.81s.85-1.31.85-2.32c0-.76-.15-1.41-.46-1.97-.31-.56-.75-1.07-1.34-1.54s-1.5-1.12-2.75-1.94c-2.19-1.48-3.79-3.11-4.78-4.92-1-1.8-1.49-4.01-1.49-6.64,0-2.16.38-4.09,1.14-5.78s1.81-3.01,3.17-3.94c1.36-.94,2.92-1.4,4.68-1.4,1.45,0,2.74.18,3.87.54,1.13.36,2.22.94,3.26,1.73v8.37c-1.99-1.66-3.99-2.48-6-2.48-1.09,0-1.95.28-2.59.84s-.97,1.36-.97,2.4.33,1.89.98,2.54c.66.65,1.87,1.53,3.63,2.65,1.61,1.04,2.85,2.07,3.75,3.08.89,1.01,1.54,2.18,1.95,3.51s.61,3.02.61,5.08c0,3.49-.8,6.22-2.39,8.18l-.02-.02ZM65.6,149.19c-1.59,1.96-3.97,2.94-7.14,2.94-1.49,0-2.97-.23-4.44-.68-1.47-.45-2.68-1.07-3.63-1.86v-8.59c1.22,1.01,2.49,1.76,3.82,2.27,1.32.5,2.58.76,3.78.76,1.11,0,1.94-.27,2.51-.81.56-.54.85-1.31.85-2.32,0-.76-.15-1.41-.46-1.97-.31-.56-.75-1.07-1.34-1.54s-1.5-1.12-2.75-1.94c-2.19-1.48-3.79-3.11-4.78-4.92-1-1.8-1.49-4.01-1.49-6.64,0-2.16.38-4.09,1.14-5.78s1.81-3.01,3.17-3.94c1.36-.94,2.92-1.4,4.68-1.4,1.45,0,2.74.18,3.87.54,1.13.36,2.22.94,3.26,1.73v8.37c-1.99-1.66-3.99-2.48-6-2.48-1.09,0-1.95.28-2.59.84s-.97,1.36-.97,2.4.33,1.89.98,2.54c.66.65,1.87,1.53,3.63,2.65,1.61,1.04,2.85,2.07,3.75,3.08.89,1.01,1.54,2.18,1.95,3.51.41,1.33.61,3.02.61,5.08,0,3.49-.8,6.22-2.39,8.18l-.02-.02ZM87.19,121.62h-10.82v7.08h7.9v7.51h-7.9v7.08h10.82v8.05h-16.82v-37.76h16.82v8.05h0ZM114.8,151.33h-5.6v-18.96l-5.66,18.96h-2.71l-5.63-18.96v18.96h-5.63v-37.76h5.77l6.85,23.39,6.88-23.39h5.73s0,37.76,0,37.76ZM136.98,146.06c-.68,1.71-1.59,3.02-2.73,3.92-1.14.9-2.41,1.35-3.82,1.35h-12.58v-37.76h12.01c2.28,0,4.09.9,5.41,2.7s1.98,4.38,1.98,7.72c0,1.58-.23,3.06-.68,4.43s-1.1,2.45-1.93,3.24c1.15.72,2,1.76,2.54,3.11s.81,3.11.81,5.27c0,2.31-.34,4.31-1.02,6.02h.01ZM156.68,151.33h-16.31v-37.76h6v29.71h10.31v8.05ZM167.87,136.96v14.37h-6v-14.37l-8.75-23.39h6.41l5.36,14.64,5.6-14.64h6.38l-8.99,23.39h-.01ZM213.86,142.71c-1.11,2.97-2.63,5.29-4.56,6.94-1.93,1.66-4.09,2.48-6.46,2.48s-4.56-.83-6.49-2.48c-1.93-1.66-3.46-3.97-4.58-6.94-1.12-2.97-1.68-6.38-1.68-10.24s.56-7.27,1.68-10.26,2.65-5.31,4.58-6.97c1.93-1.66,4.1-2.48,6.49-2.48s4.53.83,6.46,2.48c1.93,1.66,3.45,3.98,4.56,6.97s1.66,6.41,1.66,10.26-.55,7.26-1.66,10.24ZM234.72,121.62h-10.82v7.08h7.9v7.51h-7.9v15.12h-6v-37.76h16.82v8.05ZM266.16,121.62h-6.72v29.71h-6v-29.71h-6.68v-8.05h19.4v8.05ZM289.32,151.33h-6v-15.23h-9.29v15.23h-6v-37.76h6v14.58h9.29v-14.58h6v37.76ZM309.19,121.62h-10.82v7.08h7.9v7.51h-7.9v7.08h10.82v8.05h-16.82v-37.76h16.82v8.05h0ZM340.17,136.55c-1.64,2.32-3.85,3.48-6.63,3.48h-4.44v11.29h-6v-37.76h10.45c2.76,0,4.96,1.15,6.61,3.46s2.48,5.53,2.48,9.67-.82,7.53-2.46,9.86h-.01ZM367.26,142.71c-1.11,2.97-2.63,5.29-4.56,6.94-1.93,1.66-4.09,2.48-6.46,2.48s-4.56-.83-6.49-2.48c-1.93-1.66-3.46-3.97-4.58-6.94-1.12-2.97-1.68-6.38-1.68-10.24s.56-7.27,1.68-10.26,2.65-5.31,4.58-6.97,4.1-2.48,6.49-2.48,4.53.83,6.46,2.48c1.93,1.66,3.45,3.98,4.56,6.97s1.66,6.41,1.66,10.26-.55,7.26-1.66,10.24ZM394.22,142.71c-1.11,2.97-2.63,5.29-4.56,6.94-1.93,1.66-4.09,2.48-6.46,2.48s-4.56-.83-6.49-2.48c-1.93-1.66-3.46-3.97-4.58-6.94-1.12-2.97-1.68-6.38-1.68-10.24s.56-7.27,1.68-10.26,2.65-5.31,4.58-6.97,4.1-2.48,6.49-2.48,4.53.83,6.46,2.48c1.93,1.66,3.45,3.98,4.56,6.97s1.66,6.41,1.66,10.26-.55,7.26-1.66,10.24ZM417.58,151.33h-6.17l-3.76-11.83h-3.39v11.83h-6v-37.76h10.65c2.78,0,4.96,1.12,6.53,3.35s2.36,5.44,2.36,9.61c0,2.81-.38,5.2-1.15,7.18s-1.85,3.46-3.26,4.43l4.21,13.18h-.02Z"/>
          <path class="cls-1" d="M386.52,123.1c-1-.88-2.1-1.32-3.32-1.32s-2.36.44-3.36,1.32-1.78,2.13-2.36,3.73-.86,3.48-.86,5.64.29,4.05.86,5.67c.58,1.62,1.37,2.86,2.37,3.73,1.01.86,2.12,1.3,3.34,1.3s2.29-.43,3.29-1.3c.99-.86,1.79-2.11,2.37-3.73.59-1.62.88-3.51.88-5.67s-.29-4.04-.86-5.64c-.58-1.6-1.36-2.84-2.36-3.73h0Z"/>
          <path class="cls-1" d="M407.85,121.62h-3.6v9.83h3.6c1.2,0,2.12-.37,2.78-1.11s.98-2.01.98-3.81-.32-3.16-.97-3.86c-.64-.7-1.58-1.05-2.8-1.05h0Z"/>
          <polygon class="cls-1" points="16.45 136.2 22.24 136.2 19.36 123.51 16.45 136.2"/>
        </g>
      </g>
    </g>
  </g>
</svg>