<?xml version="1.0" encoding="UTF-8"?>
<svg id="Layer_2" data-name="Layer 2" xmlns="http://www.w3.org/2000/svg" viewBox="0 0 125.55 173.66">
  <defs>
    <style>
      .cls-1 {
        fill: #004332;
      }

      .cls-2 {
        fill: #fff;
      }
    </style>
  </defs>
  <g id="web">
    <g>
      <g>
        <polyline class="cls-2" points="96.43 113.45 95.34 172.01 34.81 168.6 49.56 59.58 42.45 24.31 68.66 9 98.17 39.22 88.27 64.85 84.03 66.51 96.43 113.45"/>
        <path class="cls-1" d="M48.31,59.03l-1.55,10.64c-.61,4.16-1.83,8.21-3.01,12.25l-2.05,7.08c-.66,2.27-.5,4.05-.81,6.31l-2.47,17.6c.24.9,2.48,1.89,3.24,1.33,1.51-1.1,1.48-3.25,1.8-4.86.75-3.72,1.44-7.22,1.83-11,.16-1.54.24-3.28.58-4.8,1.78-7.86,2.93-15.45,3.93-23.41.45-3.56,1.29-6.96,2.16-10.48-1.12-1.04-2.21-2.12-3.32-3.19-.11.9-.23,1.74-.34,2.51Z"/>
        <path class="cls-1" d="M93.27,91.91l2.26-6.38-3.99-21.95c-1.75.58-9.61-1.23-11.37-.77,1.21,1.78,5.85,14.84,6.45,17.08l4.1,15.25,2.58,14.65c.3,1.69,1.2,3.49,3.13,3.66.6-1.07.84-3.06.56-4.34l-3.72-17.2Z"/>
        <path class="cls-1" d="M72.66,68.4c-2.33,1.66-15.98,1.36-14.07-5.15l3.62,1.42,10.45,3.73Z"/>
        <g>
          <path class="cls-1" d="M103.92,32.85c-.84-2-3.15-3.54-3.7-5.65l-1.41-5.43c-.67-2.57-4.44-2.28-6.16-3.89-1.92-1.8-2.59-5.14-4.96-6.53-2.27-1.33-4.92-1.99-7.25-3.08-1.84-2.86-3.35-6.36-6.79-7.8-2.25-.94-7.33-.5-9.43,1.17-3.77,3-6.92,6.19-10.5,9.41-.57.51-1.32,2.15-1.83,2.78-1.24.3-3.1.34-4.07.99-2.67,1.8-4.88,3.93-6.65,6.57-1.23,1.83-1.4,4.46-1.15,6.61l1.08,9.25c.33,2.82,1.54,5.1,2.5,7.66,1.61,4.28,3.11,11.74,4,17.23,1.36.71,2.72,1.43,4.08,2.12-.07-1.51-.13-3.03-.23-4.59,1.62.87,3.16,2.11,4.9,2.54,1.35.34,1.06-2.07.5-2.84-1.45-1.98-3.91-3.85-4.73-6.12-1.78-4.93-3.38-9.53-5.69-14.26-1.13-2.32-2.65-9.47-1.77-11.57l7.64-6.61c4.89.27,9.77,1.05,14.78,2.19l.02,4.61c.01,3.54,6.39,3.2,8.73,3.44-2.46,2.46-5.49.98-8.19.84l-9.33-.47c1.64,3.21,6.46,4.82,9.01,8.65,2.48.99,2.33,3.17,3.02,5.23l3.83,11.3c1.05-4.21,1.34-8.22.46-12.2-.48-2.15-2.72-4.04-3.55-6.15.93-.01,2.91.43,3.6-.05l3.56-2.53c.3,2.66,1.87,3.88,4.08,4.71l1.13,3.07,2.74.67c.04,1.36.4,2.9,1.5,3.11,1.16.23,2.24.4,2.75.86.51.46.96,2.23.81,3.01l-1.77,8.89c-3.13,1.21-6.1,2.08-9.14,2.77,1.37.33,1.78,1.22,2.52,1.84,1.78,1.51,1.21,3.92,2.7,5.58,1.68-.69,3.35-1.46,5.01-2.26l1.97-1.79,3.9-16.33,3.59-3.49c1.66-1.62,2.74-3.28,3.31-5.61.63-2.53,1.66-5.3.57-7.9Z"/>
          <path class="cls-1" d="M100.2,35.39c-1.84,1.63-3.43,2.86-5.37,3.82l3.6-6.59,1.76,2.77Z"/>
          <path class="cls-1" d="M75.67,29.36c-1.86-.34-3.91-1-5.66-1.65-.43-.98-.49-2.4-.4-3.62l5.54,2.07c.44.16,1.02.79,1.29,1.1.32.38-.26,2.18-.77,2.09Z"/>
          <path class="cls-1" d="M82.04,36.26c-.81-.7-1.9-2.31-2.71-3.19-.52-4.31,1.2-10.52-3.8-11.86l-3.51-.94-.37-7.17c-.02-.35-1.03-.63-1.12-.42-.09.21-.52.95-.53,1.23l-.15,5.78-12.44-3.73c2.65-2.74,5.31-5.87,8.72-7.79,3.81,0,7.79,1.69,11.22,3.02,3.72,1.44.34,9.69,2.39,14.34,2.37-2.79,2.87-5.89,4.02-9.23,2.77,2.04,5.81,3.97,7.28,6.9-.8,3.12-2.1,6.13-3.04,9.05l-1.03,3.22c-.9.63-3.77,1.78-4.93.79Z"/>
          <path class="cls-1" d="M85.91,41.04l2.74-2.7c1.95-4.13,3.41-8.5,4.68-12.55l3.78,2.05c-1.78,4.91-4.29,7.44-5.82,12.35-1.9.58-3.3.91-5.38.85Z"/>
          <path class="cls-1" d="M88,32.26c.94-2.92,2.24-5.93,3.04-9.05-1.47-2.93-4.51-4.86-7.28-6.9-1.15,3.34-1.65,6.43-4.02,9.23-2.05-4.65,1.33-12.9-2.39-14.34-3.44-1.33-7.41-3.01-11.22-3.02-3.41,1.92-6.07,5.05-8.72,7.79l12.44,3.73.15-5.78c0-.28.44-1.03.53-1.23.09-.21,1.1.07,1.12.42l.37,7.17,3.51.94c5,1.34,3.28,7.55,3.8,11.86.8.88,1.9,2.49,2.71,3.19,1.16,1,4.03-.15,4.93-.79l1.03-3.22Z"/>
          <path class="cls-1" d="M75.15,26.17l-5.54-2.07c-.1,1.21-.03,2.64.4,3.62,1.75.64,3.81,1.31,5.66,1.65.51.09,1.09-1.71.77-2.09-.27-.31-.85-.94-1.29-1.1Z"/>
          <path class="cls-1" d="M97.11,27.84l-3.78-2.05c-1.27,4.05-2.73,8.43-4.68,12.55l-2.74,2.7c2.08.06,3.48-.26,5.38-.85,1.53-4.91,4.04-7.44,5.82-12.35Z"/>
          <path class="cls-1" d="M100.2,35.39l-1.76-2.77-3.6,6.59c1.94-.96,3.52-2.19,5.37-3.82Z"/>
          <path class="cls-2" d="M82.04,36.26c-.81-.7-1.9-2.31-2.71-3.19-.52-4.31,1.2-10.52-3.8-11.86l-3.51-.94-.37-7.17c-.02-.35-1.03-.63-1.12-.42s-.52.95-.53,1.23l-.15,5.78-12.44-3.73c2.65-2.74,5.31-5.87,8.72-7.79,3.81,0,7.79,1.69,11.22,3.02,3.72,1.44.34,9.69,2.39,14.34,2.37-2.79,2.87-5.89,4.02-9.23,2.77,2.04,5.81,3.97,7.28,6.9-.8,3.12-2.1,6.13-3.04,9.05l-1.03,3.22c-.9.63-3.77,1.78-4.93.79Z"/>
          <path class="cls-2" d="M91.29,40.19c-1.9.58-3.3.91-5.38.85l2.74-2.7c1.95-4.13,3.41-8.5,4.68-12.55l3.78,2.05c-1.78,4.91-4.29,7.44-5.82,12.35Z"/>
          <path class="cls-2" d="M75.67,29.36c-1.86-.34-3.91-1-5.66-1.65-.43-.98-.49-2.4-.4-3.62l5.54,2.07c.44.16,1.02.79,1.29,1.1.32.38-.26,2.18-.77,2.09Z"/>
          <path class="cls-2" d="M100.2,35.39c-1.84,1.63-3.43,2.86-5.37,3.82l3.6-6.59,1.76,2.77Z"/>
        </g>
      </g>
      <g>
        <path class="cls-2" d="M113.63,145.1l6.2-26.77-33.46-25.78-23.79,18.84,11.99,33.92-1.29,26.9c12.63.64,25.26.26,37.89-.38,2.8-.21,5.6-.6,8.4-1.05l-9.89-23.46,3.97-2.23Z"/>
        <path class="cls-1" d="M76.3,155.78c-.05-3.58.3-7.08.67-10.68-1.25-.88-2.49-1.79-3.73-2.69.01.9.02,1.76.01,2.53l-.04,10.75c-.02,4.21-.66,8.39-1.26,12.55l-.55,3.87c1.58.09,3.15.17,4.73.23.24-5.51.25-10.95.17-16.56Z"/>
        <path class="cls-1" d="M111.48,144.43c-1.65.82-4.48-.93-6.16-.23,1.45,1.59,7.88,13.87,8.79,16l4.57,10.72c1.13-.18,2.27-.36,3.4-.55l-3.09-8.39-7.51-17.55Z"/>
        <path class="cls-1" d="M98.67,150.8c-2.07,1.97-15.63,3.59-14.65-3.12l3.79.9,10.87,2.23Z"/>
        <g>
          <path class="cls-1" d="M124.63,111.22c-1.11-1.87-3.61-3.06-4.46-5.07l-2.16-5.17c-1.02-2.45-4.71-1.63-6.64-2.99-2.16-1.51-3.29-4.73-5.83-5.77-2.44-1-5.15-1.28-7.61-2.03-2.22-2.57-4.21-5.82-7.81-6.77-2.36-.62-7.33.53-9.17,2.49-3.31,3.5-5.98,7.1-9.07,10.8-.49.59-1.01,2.31-1.42,3.01-1.19.47-3.03.77-3.89,1.55-2.39,2.16-4.28,4.58-5.66,7.44-.96,1.98-.76,4.61-.21,6.71l2.37,9.01c.72,2.74,2.24,4.83,3.56,7.23,2.2,4.01,4.73,11.19,6.38,16.5.27.1-.65,5.57-1.31,10.94-.51,4.14-2.18,12.82-.81,13.6,2.88,1.65,9.52.6,10.5.93-.28-1.48-4.6-26.92-4.91-28.45,1.72.64,3.42,1.64,5.21,1.83,1.38.14.76-2.2.1-2.88-1.71-1.75-4.41-3.26-5.54-5.39-2.46-4.63-4.69-8.96-7.63-13.32-1.45-2.14-3.95-9.01-3.38-11.21l6.63-7.62c4.88-.41,9.82-.33,14.94.1l.66,4.56c.51,3.5,6.77,2.27,9.13,2.18-2.09,2.78-5.3,1.74-7.99,1.98l-9.3.85c2.08,2.95,7.07,3.87,10.13,7.3,2.6.63,2.75,2.82,3.73,4.76l5.38,10.65c.45-4.31.17-8.32-1.25-12.14-.77-2.06-3.25-3.61-4.37-5.59.92-.14,2.94.02,3.56-.56l3.17-3.01c.67,2.59,2.4,3.58,4.7,4.09l1.55,2.89,2.8.28c.23,1.35.81,2.81,1.92,2.87,1.18.06,2.28.09,2.85.47.57.38,1.27,2.07,1.22,2.87l-.5,9.04c-2.93,1.64-5.74,2.92-8.66,4.03,1.4.14,1.94.95,2.76,1.47,1.97,1.25,1.75,3.71,3.45,5.15,1.57-.92,3.11-1.92,4.64-2.94l1.69-2.05,1.57-16.72,3.07-3.96c1.42-1.83,2.25-3.63,2.49-6.02.27-2.59.9-5.48-.55-7.9Z"/>
          <path class="cls-1" d="M121.3,114.25c-1.6,1.87-2.99,3.32-4.78,4.54l2.64-7.03,2.14,2.49Z"/>
          <path class="cls-1" d="M96.17,111.73c-1.88-.07-4.02-.44-5.84-.84-.56-.91-.83-2.31-.9-3.53l5.78,1.28c.46.1,1.12.64,1.43.91.37.33.05,2.2-.47,2.18Z"/>
          <path class="cls-1" d="M103.45,117.66c-.9-.57-2.21-2.02-3.13-2.78-1.12-4.19-.29-10.58-5.43-11.21l-3.61-.44-1.37-7.05c-.07-.35-1.11-.48-1.17-.26-.06.22-.39,1.02-.35,1.29l.66,5.74-12.84-1.95c2.24-3.08,4.43-6.56,7.54-8.93,3.77-.53,7.95.58,11.54,1.41,3.89.9,1.7,9.55,4.38,13.87,1.95-3.1,2.01-6.23,2.68-9.7,3.03,1.63,6.31,3.12,8.18,5.81-.36,3.2-1.22,6.37-1.74,9.39l-.57,3.33c-.8.75-3.48,2.29-4.77,1.47Z"/>
          <path class="cls-1" d="M107.95,121.85l2.33-3.05c1.35-4.36,2.19-8.9,2.87-13.09l4.03,1.5c-1.07,5.11-3.2,7.97-4.03,13.05-1.8.85-3.14,1.37-5.21,1.59Z"/>
          <path class="cls-1" d="M108.79,112.86c.52-3.02,1.38-6.19,1.74-9.39-1.86-2.69-5.15-4.18-8.18-5.81-.67,3.47-.73,6.6-2.68,9.7-2.68-4.32-.5-12.96-4.38-13.87-3.59-.84-7.76-1.94-11.54-1.41-3.11,2.38-5.3,5.85-7.54,8.93l12.84,1.95-.66-5.74c-.03-.27.29-1.08.35-1.29.06-.22,1.1-.09,1.17.26l1.37,7.05,3.61.44c5.14.63,4.31,7.01,5.43,11.21.92.76,2.23,2.2,3.13,2.78,1.29.82,3.97-.72,4.77-1.47l.57-3.33Z"/>
          <path class="cls-1" d="M95.21,108.64l-5.78-1.28c.07,1.22.34,2.62.9,3.53,1.82.39,3.95.76,5.84.84.52.02.84-1.85.47-2.18-.31-.27-.97-.81-1.43-.91Z"/>
          <path class="cls-1" d="M117.18,107.21l-4.03-1.5c-.69,4.19-1.52,8.73-2.87,13.09l-2.33,3.05c2.07-.23,3.41-.75,5.21-1.59.82-5.07,2.96-7.94,4.03-13.05Z"/>
          <path class="cls-1" d="M121.3,114.25l-2.14-2.49-2.64,7.03c1.78-1.22,3.18-2.66,4.78-4.54Z"/>
          <path class="cls-2" d="M103.45,117.66c-.9-.57-2.21-2.02-3.13-2.78-1.12-4.19-.29-10.58-5.43-11.21l-3.61-.44-1.37-7.05c-.07-.35-1.11-.48-1.17-.26s-.39,1.02-.35,1.29l.66,5.74-12.84-1.95c2.24-3.08,4.43-6.56,7.54-8.93,3.77-.53,7.95.58,11.54,1.41,3.89.9,1.7,9.55,4.38,13.87,1.95-3.1,2.01-6.23,2.68-9.7,3.03,1.63,6.31,3.12,8.18,5.81-.36,3.2-1.22,6.37-1.74,9.39l-.57,3.33c-.8.75-3.48,2.29-4.77,1.47Z"/>
          <path class="cls-2" d="M113.16,120.25c-1.8.85-3.14,1.37-5.21,1.59l2.33-3.05c1.35-4.36,2.19-8.9,2.87-13.09l4.03,1.5c-1.07,5.11-3.2,7.97-4.03,13.05Z"/>
          <path class="cls-2" d="M96.17,111.73c-1.88-.07-4.02-.44-5.84-.84-.56-.91-.83-2.31-.9-3.52l5.78,1.28c.46.1,1.12.64,1.43.91.37.33.05,2.2-.47,2.18Z"/>
          <path class="cls-2" d="M121.3,114.25c-1.6,1.87-2.99,3.32-4.78,4.54l2.64-7.03,2.14,2.49Z"/>
        </g>
      </g>
      <g>
        <polyline class="cls-2" points="68.3 162.56 68.77 169.38 11.76 169.38 14.33 115.81 2.34 81.88 26.13 63.05 59.6 88.82 53.4 115.59 49.43 117.82 68.3 162.56"/>
        <path class="cls-1" d="M13.02,115.44l-.04,10.75c-.02,4.21-.66,8.39-1.26,12.55l-1.04,7.3c-.33,2.34.08,4.08.08,6.37l.03,17.77c.36.86,2.72,1.52,3.4.87,1.34-1.3,1.01-3.43,1.1-5.06.22-3.79.41-7.35.26-11.14-.06-1.55-.22-3.28-.09-4.83.66-8.03.73-15.71.61-23.73-.05-3.58.3-7.08.67-10.68-1.25-.88-2.49-1.79-3.73-2.69.01.9.02,1.76.01,2.53Z"/>
        <path class="cls-1" d="M62.15,141.67l-3.39-9.2-7.51-17.55c-1.65.82-4.48-.93-6.16-.23,1.45,1.59,7.88,13.87,8.79,16l6.2,14.52,4.61,14.15c.53,1.63,1.67,3.29,3.61,3.19.44-1.14.4-3.14-.05-4.37l-6.1-16.51Z"/>
        <path class="cls-1" d="M38.44,121.3c-2.07,1.97-15.63,3.59-14.65-3.12l3.79.9,10.87,2.23Z"/>
        <g>
          <path class="cls-1" d="M64.4,81.71c-1.11-1.87-3.61-3.06-4.46-5.07l-2.16-5.17c-1.02-2.45-4.71-1.63-6.64-2.99-2.16-1.51-3.29-4.73-5.83-5.77-2.44-1-5.15-1.28-7.61-2.03-2.22-2.57-4.21-5.82-7.81-6.77-2.36-.62-7.33.53-9.17,2.49-3.31,3.5-5.98,7.1-9.07,10.8-.49.59-1.01,2.31-1.42,3.01-1.19.47-3.03.77-3.89,1.55-2.39,2.16-4.28,4.58-5.66,7.44-.96,1.98-.76,4.61-.21,6.71l2.37,9.01c.72,2.74,2.24,4.83,3.56,7.23,2.2,4.01,4.73,11.19,6.38,16.5,1.45.51,2.89,1.04,4.34,1.52-.28-1.48-.56-2.98-.87-4.51,1.72.64,3.42,1.64,5.21,1.83,1.38.14.76-2.2.1-2.88-1.71-1.75-4.41-3.26-5.54-5.39-2.46-4.63-4.69-8.96-7.63-13.32-1.45-2.14-3.95-9.01-3.38-11.21l6.63-7.62c4.88-.41,9.82-.33,14.94.1l.66,4.56c.51,3.5,6.77,2.27,9.13,2.18-2.09,2.78-5.3,1.74-7.99,1.98l-9.3.85c2.08,2.95,7.07,3.87,10.13,7.3,2.6.63,2.75,2.82,3.73,4.76l5.38,10.65c.45-4.31.17-8.32-1.25-12.14-.77-2.06-3.25-3.61-4.37-5.59.92-.14,2.94.02,3.56-.56l3.17-3.01c.67,2.59,2.4,3.58,4.7,4.09l1.55,2.89,2.8.28c.23,1.35.81,2.81,1.92,2.87,1.18.06,2.28.09,2.85.47.57.38,1.27,2.07,1.22,2.87l-.5,9.04c-2.93,1.64-5.74,2.92-8.66,4.03,1.4.14,1.94.95,2.76,1.47,1.97,1.25,1.75,3.71,3.45,5.15,1.57-.92,3.11-1.92,4.64-2.94l1.69-2.05,1.57-16.72,3.07-3.96c1.42-1.83,2.25-3.63,2.49-6.02.27-2.59.9-5.48-.55-7.9Z"/>
          <path class="cls-1" d="M61.07,84.74c-1.6,1.87-2.99,3.32-4.78,4.54l2.64-7.03,2.14,2.49Z"/>
          <path class="cls-1" d="M35.94,82.22c-1.88-.07-4.02-.44-5.84-.84-.56-.91-.83-2.31-.9-3.53l5.78,1.28c.46.1,1.12.64,1.43.91.37.33.05,2.2-.47,2.18Z"/>
          <path class="cls-1" d="M43.22,88.16c-.9-.57-2.21-2.02-3.13-2.78-1.12-4.19-.29-10.58-5.43-11.21l-3.61-.44-1.37-7.05c-.07-.35-1.11-.48-1.17-.26-.06.22-.39,1.02-.35,1.29l.66,5.74-12.84-1.95c2.24-3.08,4.43-6.56,7.54-8.93,3.77-.53,7.95.58,11.54,1.41,3.89.9,1.7,9.55,4.38,13.87,1.95-3.1,2.01-6.23,2.68-9.7,3.03,1.63,6.31,3.12,8.18,5.81-.36,3.2-1.22,6.37-1.74,9.39l-.57,3.33c-.8.75-3.48,2.29-4.77,1.47Z"/>
          <path class="cls-1" d="M47.72,92.34l2.33-3.05c1.35-4.36,2.19-8.9,2.87-13.09l4.03,1.5c-1.07,5.11-3.2,7.97-4.03,13.05-1.8.85-3.14,1.37-5.21,1.59Z"/>
          <path class="cls-1" d="M48.56,83.36c.52-3.02,1.38-6.19,1.74-9.39-1.86-2.69-5.15-4.18-8.18-5.81-.67,3.47-.73,6.6-2.68,9.7-2.68-4.32-.5-12.96-4.38-13.87-3.59-.84-7.76-1.94-11.54-1.41-3.11,2.38-5.3,5.85-7.54,8.93l12.84,1.95-.66-5.74c-.03-.27.29-1.08.35-1.29.06-.22,1.1-.09,1.17.26l1.37,7.05,3.61.44c5.14.63,4.31,7.01,5.43,11.21.92.76,2.23,2.2,3.13,2.78,1.29.82,3.97-.72,4.77-1.47l.57-3.33Z"/>
          <path class="cls-1" d="M34.98,79.14l-5.78-1.28c.07,1.22.34,2.62.9,3.53,1.82.39,3.95.76,5.84.84.52.02.84-1.85.47-2.18-.31-.27-.97-.81-1.43-.91Z"/>
          <path class="cls-1" d="M56.96,77.7l-4.03-1.5c-.69,4.19-1.52,8.73-2.87,13.09l-2.33,3.05c2.07-.23,3.41-.75,5.21-1.59.82-5.07,2.96-7.94,4.03-13.05Z"/>
          <path class="cls-1" d="M61.07,84.74l-2.14-2.49-2.64,7.03c1.78-1.22,3.18-2.66,4.78-4.54Z"/>
          <path class="cls-2" d="M43.22,88.16c-.9-.57-2.21-2.02-3.13-2.78-1.12-4.19-.29-10.58-5.43-11.21l-3.61-.44-1.37-7.05c-.07-.35-1.11-.48-1.17-.26s-.39,1.02-.35,1.29l.66,5.74-12.84-1.95c2.24-3.08,4.43-6.56,7.54-8.93,3.77-.53,7.95.58,11.54,1.41,3.89.9,1.7,9.55,4.38,13.87,1.95-3.1,2.01-6.23,2.68-9.7,3.03,1.63,6.31,3.12,8.18,5.81-.36,3.2-1.22,6.37-1.74,9.39l-.57,3.33c-.8.75-3.48,2.29-4.77,1.47Z"/>
          <path class="cls-2" d="M52.93,90.75c-1.8.85-3.14,1.37-5.21,1.59l2.33-3.05c1.35-4.36,2.19-8.9,2.87-13.09l4.03,1.5c-1.07,5.11-3.2,7.97-4.03,13.05Z"/>
          <path class="cls-2" d="M35.94,82.22c-1.88-.07-4.02-.44-5.84-.84-.56-.91-.83-2.31-.9-3.52l5.78,1.28c.46.1,1.12.64,1.43.91.37.33.05,2.2-.47,2.18Z"/>
          <path class="cls-2" d="M61.07,84.74c-1.6,1.87-2.99,3.32-4.78,4.54l2.64-7.03,2.14,2.49Z"/>
        </g>
      </g>
    </g>
  </g>
</svg>