<?xml version="1.0" encoding="UTF-8"?>
<svg id="Layer_2" data-name="Layer 2" xmlns="http://www.w3.org/2000/svg" viewBox="0 0 427.77 404.21">
  <defs>
    <style>
      .cls-1 {
        fill: #fff;
      }
    </style>
  </defs>
  <g id="web">
    <path class="cls-1" d="M427.75,366.38v-8.15h-.02c-.06-18.96-.19-37.22-.32-39.54-14.79-8.1-17.43-.73-29.1-5.99-1-.45-2.7-.86-2.52-1.48,1.72-6.08,4.75-7.96,1.2-14.84-2.63-5.11-6.31-10.59-7.58-15.97-1.06-4.52-2.71-6.27-4.87-10.12-3.67-6.54-4.54-15.93-6.86-23.73-3.01-10.11-1.24-12.92-7.64-23.29l-5.28-8.55c-6.53-10.57-15.13-21.89-19.04-33.57,3.53-4.83,6.94-12.65,1.72-17.4-3.11-2.83-6.63-5.11-9.09-8.87-2.27-3.47-5.44-6.79-7.37-10.3-2.64-4.78-5.23-8.12-8.94-12.09-5.02-5.38-5.08-13.96-16.69-20.1-10.57-5.59-13.21-10.24-11.79-21.96l9.72-9.95c3.91-4,7.53-13.37,6.65-18.75-1.64-10.06-12.24-12.96-20.2-14.53-4.97-.98-9.9-3.51-14.73.37l-7.3.54c-5.33,5.9-11.98,16.66-12.4,23.82l-.71,12.09c-7.27-2.79-8.57-7.65-11.72-12.44-7.71-11.74-4.39-14.34-13.44-31.03l-6.8-12.53c-8.8-16.22,2.74-20.51-2.38-25.9-2.54-2.67-14.48-3.52-19.02,1.81-1.39,1.64-.18,5.82.58,7.74l4.01,10.22c1.46,3.73.08,9.89,1.04,14,.73,3.11,3.82,19.18,3.91,19.37l9.03,20.87c2.03,4.68,3.28,9.93,5.78,13.99,3.33,5.4,6.13,10.91,8.29,17.1-6.07,16.29-4.72,22.89-8.41,38.69l-2.09,8.97c-2.92,12.54.83,8.94-5.79,24.9-7.41,17.86-3.61,21.34-7.61,30.69-2.3,5.36-.86,10.06-1.12,15.5l-.53,10.9c-.62,12.83,7.37,4.93,2.88,28.64l4.51,16.36,1.84,11.05,1.02,16.93c.22,3.62,1.21,7.17,1.42,10.84l-15.86,5.48c-5.56,1.92-13.1-.49-19.2.98-2.79.67-5.97,1.39-8.31.85l-.35-17.32c-.07-3.67.24-8.01.55-11.9.46-5.66-1.85-9.26-3.35-14.5-1.1-3.81,3.84-10.64.8-15.65-2.32-3.84-6.01-9.2-9.92-12.14-3.76-2.84-13.24-6.1-13.01-11.57.17-4.1-.96-7.4-1.4-11.01-.9-7.42-.77-14.22-6.08-19.45-5.06-4.98-11.17-7.09-18.6-7.48-6.42-.34-12.6-.36-18.33,3.1-3.91,2.36-9.06,5.74-8.95,10.74.27,12.13-1.83,7.32,1.02,16.92-2.69,18.99-10.74,16.53-17.79,24.4-10.97,12.24-8.2-.59-20.43,27.66-1.72,3.98-1.5,8.89-2.48,12.86-1.71,6.89-3.46,14.22,3.11,20.22-4.92,4.24-8.58-.08-12.81-.49-9.43-.92-19.82-1.08-28.98.37-7.15,1.13-11.44,5.64-14.47,10.98-2.35,4.13-1.25,8.56,1.35,13.28l-6.5,1.7.05,9.57h-.05v45.97h427.75v-11.78c.03-6.87.02-16.26,0-26.05ZM314.57,282.23c2.06.72,5.29,4.01,5.78,5.86-.68,3.55-6.94,4.08-9.03,1.71-1.5-1.7,1.05-7.34,3.25-7.58ZM286.2,164.57l6.63-10.09c2.62-3.98,6.35-10.6,12.12-10.07,1.65.15,4.06,2.38,5.01,4.24l6.97,13.6c-1.47-2.87,4.04,19.55,3.88,17.02l1.03,16.54-4.35,8.99c-.25.51-.82,2.04-.99,2.48-.22.58-1.8-.83-2.82-1.75.58-4.2.52-10.09-2.75-12.86-5.46-4.62-11.48-11.31-16.81-12.89l-12.69-3.75c1.8-4.37,2.55-8.07,4.76-11.45ZM244.86,302.67c5.81-24.78-4.04-17.15,1.26-32.39l5.46-15.68,5.83-16.45c1.95-5.5,8.17-10.81,12.99-14.12,4.23-2.9,9.37.1,13.12,1.05l8.44,2.13c2.37.6,5.66,2.65,5.92,4.56-4.14,3.49-17,18.98-18.8,22.45-1.76,3.39-1.6,11.64-.13,15.17l8.72,21.01,2.54,7.84c-8.48,8.25-5.37,7.15-10.62,18.9l-26.09-.21c-2.62-2.77-5.94-6.56-10.85-4.87l2.2-9.38Z"/>
  </g>
</svg>