<?xml version="1.0" encoding="UTF-8"?>
<svg id="Layer_2" data-name="Layer 2" xmlns="http://www.w3.org/2000/svg" xmlns:xlink="http://www.w3.org/1999/xlink" viewBox="0 0 1949.76 1164.51">
  <defs>
    <style>
      .cls-1 {
        fill: none;
      }

      .cls-2 {
        fill: #222821;
      }

      .cls-3, .cls-4 {
        fill: #fff;
      }

      .cls-3, .cls-5 {
        opacity: .4;
      }

      .cls-6 {
        clip-path: url(#clippath);
      }
    </style>
    <clipPath id="clippath">
      <rect class="cls-1" x="0" width="1949.76" height="1164.51"/>
    </clipPath>
  </defs>
  <g id="web">
    <g class="cls-6">
      <rect class="cls-2" x="0" width="1949.76" height="1164.51"/>
      <g>
        <path class="cls-3" d="M556.45,288.45c-.09,1.39-.83,4.9-2.1,5.36-2.54.91-12.74,4.08-13.63.23l-1.95-8.39-7.27.35c-4.79-3.58-10.95-1.68-12.54-5.35-3.36-7.77-6.82-14.78-10.58-22.29l-15.15-30.21c-1.66-3.31-3.75-6.38-5.62-9.6-3.39-5.83-5.01-12.17-6.84-18.74-2.02-7.25-6.95-10.42-4.85-20.32,1.91-9.03,4.67-17.64,8.64-26.03l14.74-9.59-10.9-19.09.68-9.35c.31-4.24,3.89-5.67,7.57-5.46,7.82.45,14.9-3.33,22.44-3.98,10.06-.86,19.21-2.27,28.58-6.18,9.4-3.92,19.16-5.78,29.57-5.61l2.96,16.55c.64,3.58-.55,6.87-2.26,9.81l-4.21,7.25,27.93,6.55c7.87,9.66,15.4,19.21,19.3,30.99,1.25,3.77.76,9.39.22,13.33l-4.77,34.92c-1.57,11.49.43,24.77-.77,31.41-1.13,6.29-1.97,12.45-2.58,18.74-.37,3.75-2.56,5.94-6.75,6.2l-.42,7.73c-.12,2.13-.55,5.36-2.47,6.56-3.82,2.38-13.81,5.65-14.39.36l-1.16-10.53c-14.21-3.03-19.56-6.34-30.92,6.22l-.53,8.19ZM550.7,276.47c2.7-.43,4.96-2.94,6.99-5.22,3.69-4.15,8.93-7.33,14.58-8.15,2.6-.37,16.28,1.9,19.32,4.14,4.82-3.86,8.43-9.11,12.05-14.1,1.19-1.64,2.44-3.3,2.62-5.31.84-9.47,2.32-18.18,3.79-27.57,1.77-11.25,5.95-50.29,1.86-58.94-1.75-3.7-5.31-7.71-8.35-10.5-6.41-5.88-14.59-8.32-22.56-11.32-11.79-4.43-23.37-7.43-35.76-9.94-2.11-.43-1.85-5.96.31-6.63,7.11-2.21,14.3-2.45,21.66-2.93l.92-11.13c-4.4-5.19-23.23.28-29.39,1.98-9.93,2.74-19.79,5.11-29.4,8.77l-11.54,4.39c.73,1.01,2.24,2.81,2.94,3.95l6.35,10.31,13.67-6.37c1.78,1.21,1.57,5.48-.48,6.51l-7.72,3.87c-2.05,1.03-3.52,2.97-5.35,4.47l-11.74,9.64c-4.43,3.64-11.5,21.43-13.53,27.73l6.65,14.86c4.87,10.88,9.94,21.25,15.73,31.77,4.77,8.66,9.28,16.86,13.52,25.78,2.59,5.47,5.71,10.51,9.01,15.5l8.35,1.69c11.28,2.29,12.01-1.55,15.47,2.75Z"/>
        <path class="cls-3" d="M537.78,253.78c3.92,12.68,15.82,9.73,9.55,18.93-4.82-.94-8.63-4.84-10.5-9.34-1.25-3-2.67-5.9-3.63-9.02l-15.96-52.13c-3.93-12.83-7.53-25.1-10.45-38.12-1.13-5.04.47-10.28,4.39-13.68,3.14,4.76-2.39,6.25-.68,12.13l14.11,48.6,13.18,42.62Z"/>
        <path class="cls-3" d="M588.6,253c.08,3.62-2.58,5.79-6.03,5.13l2.71-6.64-.9-47.27c-.31-16.21-1.13-31.86-3.01-47.84-.77-6.56-4.97-3.78-6.7-8.74-.35-1,.55-3.84,1.6-4.03,1.72.22,4.62,1.33,6.22,2.18,1.73,3.85,2.51,7.68,2.93,11.98,1.9,19.74,2.41,39.19,2.65,59.1l.3,24.77.24,11.37Z"/>
        <path class="cls-3" d="M549.76,160.6c-10.85.42-21.34,1.8-31.31,4.85-10.71-11.35,37.51-14.49,41.93-13.86,1.97,1.44,1.89,6.66-.61,7.69-2.89,1.19-6.45,1.18-10.01,1.32Z"/>
        <path class="cls-3" d="M607.28,179.68l-17.6-12.84c.16-1.69,2.26-1.33,3.71-1.52,4.38-.57,7.52,1,11.85,2.73-3.47-7.82-13.02-9.12-17.69-19.02,7.03-.61,14.99,7.39,20.25,12.17,2.18,1.98,1.36,5.77,1.1,8.21-.37,3.56-.22,5.26-1.63,10.26Z"/>
        <path class="cls-3" d="M494.89,187.74l-6.96,5.13c-3.32-4.63-.65-8.93,2.18-12.47,3.51-4.4,6.48-8.28,10.4-12.72l1.09,13.45c-1.28,2.28-4.52,4.98-6.71,6.6Z"/>
        <path class="cls-3" d="M553.5,174.46c-8.85,1.27-16.99,3.45-25.59,5.96-2.32-.8-2.36-6.69.49-7.34,7.88-1.82,15.56-2.93,23.66-4.02,1.76-.24,3.81.48,3.91,2,.11,1.55-.8,3.17-2.47,3.41Z"/>
        <path class="cls-3" d="M605.86,197.92l-14.18-6.67-1.54-5.06c-.16-.53.24-1.99.61-2.38.47-.49,1.91-.15,2.71.16l13.16,4.99c.49,2.88.34,5.78-.75,8.97Z"/>
        <path class="cls-3" d="M531.69,197.4c-2.24-.07-2.08-6.39.11-6.68l14.2-1.88c.91-.1,1.63,2.68,1.26,3.52-.48,1.07-1.91,2.32-3.26,2.65-4.06.97-7.84,2.4-12.29,2.39Z"/>
        <path class="cls-3" d="M507.46,130.47c-.76.29-2.01-1.88-1.79-2.56s.97-2.22,1.77-2.57c5.36-2.33,11.95-4.92,17.69-5.95.88-.16,1.79,2.38,1.46,3.08-.46.97-1.62,1.55-2.97,1.97-5.56,1.76-10.02,3.63-16.17,6.02Z"/>
        <path class="cls-3" d="M507.67,200.35c-1.75,1.95-11.6,8.7-12.95,6-1.46-2.92,2.59-4.23,6.79-9.77,1.59-2.09,2.63-3.6,4.76-5.38l1.4,9.15Z"/>
        <path class="cls-3" d="M563.74,114.86l-12.42.18c-.82.01-1.44-2.25-1.12-2.94s1.62-1.99,2.44-2.03c4.25-.2,8.68-.56,12.63.12,1.69.29.62,4.64-1.54,4.67Z"/>
        <path class="cls-3" d="M602.57,215.87l-9.26-6.37c-1.44-.99-.11-4.94,1.52-5.33,2.81,1.3,5.88,2.95,8.62,4.79,1.6,1.07.84,4.56-.88,6.9Z"/>
        <path class="cls-3" d="M544.96,214.19c-2.27,1.41-9.45,1.49-10.53-2.36-.27-.95.48-3.66,1.5-3.74,2.93-.24,6.71-.27,9.39.18,1.3.69,1.23,4.93-.36,5.92Z"/>
        <path class="cls-3" d="M513.64,225.88c-1.88.86-5.27,1.34-7.43.2-2.2-1.16-2.08-5.79-.04-6.92,2.18-1.21,3.99-2.07,6.59-3.33l.89,10.05Z"/>
        <path class="cls-3" d="M576.78,189.88c-3.14,1.48-6.87,1.74-10.07.88-1.38-.37-1.02-5.07.4-5.39,3.13-.7,6.42-1.06,9.68-1.13,1.44.36,1.72,4.83-.02,5.64Z"/>
        <path class="cls-3" d="M575.07,172.62l-10.34,1.7c-1.02.17-2.11-2.11-1.86-2.95,1.23-4.08,8.42-4.25,12.61-3.89,1.3.11.97,4.92-.41,5.14Z"/>
        <path class="cls-3" d="M577.2,254.62c-2.9.26-5.89.5-8.13-.69-2.1-1.11-1.36-4.59-.25-6.17l8.7-.23c1.03,2.17.95,4.3-.32,7.08Z"/>
        <path class="cls-3" d="M599.53,250.54c-2.78-.97-5.2-1.74-7.44-2.88-2.36-1.2-1.51-5.22.15-6.75,2.6.1,5.42.83,7.16,2.72,1.53,1.66,1.22,4.17.12,6.9Z"/>
        <path class="cls-3" d="M577.35,204.66c-3.12.41-5.76.61-8.48.01-1.95-.43-2.1-5.35-.07-5.71,2.69-.48,5.73-.44,8.59.18,1.35.29.87,3.92-.04,5.52Z"/>
        <path class="cls-3" d="M599.95,236.54l-7.98-8.69c-.64-.7.55-3.41,1.42-3.16,2.53.72,5.96,2.12,7.52,3.99,1.51,1.81.77,5.2-.95,7.86Z"/>
        <path class="cls-3" d="M549.59,229.65c-2.71.33-10.29,1.39-9.41-2.36,1.01-4.33,4.57-4.84,9.14-4.01,1.19.91.99,3.81.27,6.37Z"/>
        <path class="cls-3" d="M532.1,121.47c-1.86-1.39-1.88-3.27-.66-5.57l9.89-1.09c1.04,1.36.83,4.85-.73,5.13l-8.5,1.53Z"/>
        <path class="cls-3" d="M577.38,242.25l-8.1.19c-.89-2.26-.76-3.93.37-6.09,2.61-.37,5.78-.77,7.91.25,2.35,1.13,1.25,4.37-.18,5.64Z"/>
        <path class="cls-3" d="M577.75,224.38c-1.99,2.12-6.22,2.72-8.81,1.52-1.35-.62-.52-4.72.84-5.21,2.22-.81,5.19-1.18,7.49-1.02,1.09.07,1.46,3.66.48,4.72Z"/>
        <path class="cls-3" d="M551.26,252.72c-1.22.62-7.51-.71-7.79-4.03-.08-.98,1.22-3.08,2.22-2.97,1.75.19,4.58.77,6.25,1.38,1.36.5,1.1,4.71-.68,5.62Z"/>
        <path class="cls-3" d="M556.36,266.41l-6.76-3.81c-1.35-.76-1.56-4.87.58-5,2.07-.13,5.22,1.43,6.91,3,1.24,1.15.56,3.48-.73,5.8Z"/>
        <path class="cls-3" d="M517.31,244.17c-.73.26-2.61-.78-2.84-1.51-1.39-4.35,1.95-6.53,5.41-8.39.37,1.3,1.21,4.02.59,4.99l-3.15,4.92Z"/>
        <path class="cls-3" d="M520.02,253.35c-2.8-1.06.79-7.6,3.08-6.85,2.83,1.47-.16,7.95-3.08,6.85Z"/>
      </g>
      <g>
        <path class="cls-3" d="M1272.93,866.72c-1.18.73-4.48,2.16-5.59,1.39-2.22-1.54-10.7-8.03-8.08-10.98l5.71-6.45-4.49-5.73c.15-5.98-4.97-9.9-2.89-13.32,4.39-7.24,8.11-14.12,12.05-21.54l15.86-29.84c1.74-3.27,3.03-6.75,4.57-10.14,2.79-6.14,7.02-11.13,11.32-16.43,4.74-5.85,4.47-11.69,13.76-15.72,8.47-3.67,17.09-6.41,26.22-8.03l16.36,6.47,9.25-19.94,8.02-4.86c3.63-2.2,6.87-.11,8.83,3.02,4.16,6.64,11.34,10.22,16.24,15.99,6.53,7.7,12.98,14.35,21.59,19.73,8.64,5.4,15.81,12.28,21.69,20.86l-11.78,12c-2.55,2.6-5.92,3.53-9.31,3.84l-8.34.77,10.83,26.56c-3.32,12.01-6.75,23.68-14.09,33.68-2.35,3.2-7.22,6.06-10.74,7.9l-31.23,16.33c-10.28,5.38-19.95,14.69-26.05,17.56-5.79,2.72-11.29,5.6-16.77,8.74-3.27,1.87-6.33,1.35-8.96-1.92l-6.55,4.13c-1.81,1.14-4.69,2.65-6.78,1.78-4.16-1.74-12.6-7.99-8.62-11.53l7.92-7.04c-5.75-13.34-6.16-19.62-22.97-21.61l-6.99,4.32ZM1279.37,855.09c1.91,1.95,5.27,2.35,8.31,2.68,5.52.61,11.15,3.03,15.09,7.17,1.81,1.9,7.88,14.37,7.81,18.15,5.94,1.7,12.31,1.6,18.48,1.66,2.02.02,4.1.08,5.85-.94,8.2-4.8,16.16-8.63,24.67-12.87,10.2-5.07,44.45-24.26,49.13-32.61,2-3.57,3.21-8.79,3.73-12.89,1.08-8.63-1.66-16.71-3.83-24.95-3.22-12.18-7.48-23.35-12.6-34.91-.87-1.97,3.79-4.95,5.58-3.58,5.92,4.51,10.28,10.24,14.93,15.97l9.61-5.69c1.68-6.59-13.68-18.78-18.63-22.81-7.99-6.51-15.63-13.17-24.17-18.89l-10.26-6.86c-.4,1.18-1,3.45-1.52,4.68l-4.72,11.15,13.11,7.46c.04,2.15-3.56,4.45-5.59,3.37l-7.62-4.06c-2.02-1.08-4.46-1.15-6.74-1.77l-14.65-3.99c-5.53-1.51-24.13,3.04-30.45,5.02l-8.27,14.03c-6.05,10.26-11.57,20.41-16.79,31.22-4.3,8.9-8.37,17.33-13.19,25.94-2.96,5.28-5.27,10.74-7.42,16.32l3.45,7.79c4.67,10.52,8.22,8.9,6.71,14.2Z"/>
        <path class="cls-3" d="M1290.39,831.42c-8.07,10.54,1.23,18.54-9.91,18.75-2.02-4.47-1.05-9.84,1.53-13.97,1.72-2.75,3.26-5.6,5.25-8.18l33.26-43.19c8.19-10.63,16.11-20.67,25.03-30.59,3.46-3.85,8.66-5.57,13.69-4.34-2.06,5.32-6.48,1.67-10.29,6.47l-31.45,39.64-27.12,35.42Z"/>
        <path class="cls-3" d="M1320.44,872.41c-2.91,2.16-6.22,1.25-7.67-1.95l6.99-1.63,38.01-28.1c13.04-9.64,25.32-19.37,37.26-30.16,4.91-4.43.21-6.24,3.25-10.52.62-.87,3.45-1.78,4.21-1.03.81,1.53,1.59,4.54,1.82,6.33-2.14,3.64-4.81,6.5-8.07,9.32-15,12.98-30.55,24.65-46.65,36.38l-20.02,14.58-9.14,6.78Z"/>
        <path class="cls-3" d="M1373.3,787.24c-6.62-8.6-13.82-16.36-22.08-22.72,3.05-15.31,33.53,22.2,35.58,26.16-.03,2.44-4.33,5.4-6.62,3.96-2.64-1.66-4.69-4.57-6.87-7.4Z"/>
        <path class="cls-3" d="M1391.04,845.19l.28-21.78c1.47-.85,2.39,1.08,3.39,2.15,3,3.24,3.53,6.71,4.63,11.24,4.37-7.36-.1-15.9,5.27-25.43,4.56,5.38,2.65,16.5,1.8,23.56-.35,2.92-3.92,4.45-6.06,5.65-3.11,1.76-4.42,2.87-9.31,4.61Z"/>
        <path class="cls-3" d="M1319.4,758.22l-8.21-2.7c1.85-5.38,6.9-5.7,11.43-5.44,5.63.32,10.5.49,16.39,1.12l-10.34,8.68c-2.6.28-6.68-.8-9.27-1.65Z"/>
        <path class="cls-3" d="M1364.17,798.32c-6.16-6.48-12.65-11.86-19.68-17.42-.7-2.36,4.08-5.8,6.27-3.85,6.04,5.37,11.39,10.99,16.98,16.96,1.21,1.3,1.81,3.39.64,4.35-1.2.98-3.05,1.18-4.21-.04Z"/>
        <path class="cls-3" d="M1375.35,854.59l-2.77-15.43,3.23-4.19c.34-.44,1.76-.96,2.3-.88.67.09,1.23,1.47,1.44,2.3l3.55,13.62c-2.07,2.07-4.52,3.63-7.75,4.58Z"/>
        <path class="cls-3" d="M1332.83,793.81c-1.24-1.87,4.01-5.39,5.51-3.78l9.75,10.49c.61.69-1.25,2.88-2.14,3.06-1.15.23-3-.21-4.05-1.13-3.14-2.74-6.49-5-9.07-8.64Z"/>
        <path class="cls-3" d="M1373.37,735.31c-.68-.45.37-2.73,1.05-2.94s2.37-.49,3.12-.04c5.01,3.02,10.93,6.89,15.09,10.98.64.63-.9,2.84-1.67,2.98-1.06.19-2.2-.43-3.33-1.28-4.66-3.52-8.76-6.07-14.27-9.7Z"/>
        <path class="cls-3" d="M1316.52,775.94c-2.6-.3-13.81-4.42-12.39-7.09,1.53-2.88,4.95-.34,11.9-.12,2.63.08,4.46.06,7.14.77l-6.65,6.44Z"/>
        <path class="cls-3" d="M1418.69,772.16l-7.34-10.02c-.48-.66,1-2.47,1.75-2.61s2.56.17,3.07.81c2.62,3.35,5.48,6.75,7.21,10.37.74,1.55-3.42,3.19-4.7,1.45Z"/>
        <path class="cls-3" d="M1358.81,862.3l-.17-11.24c-.03-1.75,3.96-2.95,5.23-1.84.57,3.04,1,6.5,1.08,9.81.05,1.93-3.24,3.33-6.14,3.28Z"/>
        <path class="cls-3" d="M1326.83,814.36c-2.46-1.03-6.69-6.84-4.17-9.95.62-.76,3.26-1.72,3.92-.94,1.89,2.25,4.11,5.31,5.29,7.76.19,1.46-3.3,3.86-5.03,3.13Z"/>
        <path class="cls-3" d="M1299.15,795.59c-1.79-1.03-4.14-3.52-4.47-5.94s3.52-5.05,5.62-4.04c2.25,1.08,4,2.06,6.53,3.44l-7.68,6.55Z"/>
        <path class="cls-3" d="M1365.07,826.23c-3.02-1.71-5.39-4.59-6.55-7.7-.5-1.34,3.54-3.77,4.62-2.79,2.39,2.15,4.58,4.62,6.53,7.24.54,1.38-2.94,4.19-4.61,3.25Z"/>
        <path class="cls-3" d="M1378.15,814.84l-7.37-7.45c-.73-.74.49-2.94,1.33-3.22,4.04-1.36,8.34,4.41,10.47,8.03.66,1.12-3.45,3.64-4.43,2.64Z"/>
        <path class="cls-3" d="M1312.52,864.05c-1.9-2.21-3.82-4.52-4.15-7.03-.31-2.35,2.95-3.76,4.88-3.77l5.22,6.96c-1.18,2.09-2.96,3.27-5.96,3.84Z"/>
        <path class="cls-3" d="M1328.78,879.9c-.82-2.83-1.59-5.25-1.96-7.73-.39-2.62,3.38-4.25,5.59-3.78,1.42,2.18,2.46,4.9,1.93,7.42-.47,2.21-2.69,3.41-5.55,4.1Z"/>
        <path class="cls-3" d="M1353.35,835.25c-2.15-2.31-3.83-4.34-4.92-6.91-.78-1.84,3.14-4.81,4.61-3.36,1.94,1.91,3.67,4.42,4.83,7.11.54,1.27-2.69,2.98-4.52,3.16Z"/>
        <path class="cls-3" d="M1340.44,872.13l2.46-11.54c.2-.93,3.1-1.52,3.4-.67.88,2.48,1.72,6.09,1.1,8.44-.6,2.28-3.79,3.64-6.96,3.78Z"/>
        <path class="cls-3" d="M1316.89,827.08c-1.84-2.02-7.09-7.58-3.52-9.04,4.12-1.69,6.59.92,8.56,5.13-.05,1.5-2.53,3.02-5.04,3.91Z"/>
        <path class="cls-3" d="M1394.98,750.18c.06-2.32,1.58-3.43,4.16-3.76l6.61,7.43c-.5,1.63-3.47,3.48-4.6,2.37l-6.17-6.05Z"/>
        <path class="cls-3" d="M1322.72,857.04l-4.84-6.49c1.33-2.03,2.76-2.89,5.18-3.22,1.82,1.92,3.98,4.27,4.38,6.59.44,2.57-2.84,3.54-4.71,3.12Z"/>
        <path class="cls-3" d="M1337.5,846.99c-2.88-.39-5.82-3.49-6.34-6.3-.27-1.46,3.55-3.15,4.73-2.33,1.94,1.34,3.97,3.55,5.17,5.52.57.93-2.14,3.31-3.57,3.12Z"/>
        <path class="cls-3" d="M1299.05,841.8c-1.22-.63-3.76-6.53-1.22-8.68.75-.64,3.21-.79,3.7.09.85,1.54,2.02,4.18,2.49,5.89.38,1.4-3.2,3.62-4.97,2.7Z"/>
        <path class="cls-3" d="M1290.85,853.89l-.81-7.71c-.16-1.54,3.07-4.09,4.41-2.42s1.86,5.08,1.55,7.37c-.22,1.67-2.51,2.47-5.16,2.76Z"/>
        <path class="cls-3" d="M1286.37,809.17c-.64-.44-.88-2.58-.41-3.2,2.74-3.65,6.45-2.2,9.97-.45-.85,1.06-2.58,3.31-3.72,3.37l-5.83.28Z"/>
        <path class="cls-3" d="M1280.45,816.7c-.75-2.9,6.65-3.76,7.36-1.45.44,3.16-6.58,4.48-7.36,1.45Z"/>
      </g>
      <path class="cls-3" d="M386.72,991.25l-20.82-16.56-29.23-20.18c-8.36-5.77-20.74-9.74-31.53-10.25.7-1.4,2.48-3.23,3.7-3.49l16.97-3.65c3.64-.78,6.71.89,10.02,1.96l27.36,8.85c7.56,2.45,14.75,4.7,22.43,6.75,6.4,1.72,12.19,5.07,16.13,10.61,12.9,18.11,7.43,19.58,15.91,37.37l-5.77-45.93-6.47-46.44c-1.39-9.98-2.62-19.57-1.93-29.71l3.04-44.4c-10.04-.24-19.4.4-29.42,1.27-9.09-9.83-17.26-19.67-27.89-27.16l19.89,28.22c-14.94,3.95-14.43,4.37-25.88,15.1-5.8-7.49-10.83-14.74-17.27-21.43,3.3,9.09,8.76,15.69,14.52,24.13l-10.27,11.8-8.57-11.77c-4.06-5.57-7.91-10.89-13.89-15.07,4.67,12.3,10.12,22.07,15.82,33.62-23.82,26.7-36.73,13.71-73.47,29.3-1.46.62-4.4.5-5.29-.46-4.13-4.41,3.3-16.96,6.23-22.57l23.89-45.77c10.03-19.21,15.4-23.71,34-31.79,16.63-7.23,33.71-12.01,51.95-11.87,21.13.16,32.1,16.49,48.15,29.69-.18-5.8-1.52-11.46-3.78-16.97-4.61-11.2-8.85-21.59-14.35-32.71-5.76-2.87-13.35-9.03-20.14-8.5l-41.84,3.25c-2.26-7.72-4.96-14.66-9.07-20.91l5.07,21.23-15.75,2.73-.87-15.48c-.31-5.53-2.14-10.81-4.26-15.47l-.22,32.98c-11.87,4.77-21.71,10.38-32.28,17.55,3.08-14.38,7.13-27.52,5.21-41.93l-3.5,15.98c-2.11,9.61-2.69,21.75-8.7,30.08-6.1,7.68-18.22,11.39-27.19,14.7-4.07,1.5-18.48-2.09-20.04-2.92-.95-.5-1.38-3.32-.96-4.4,5.8-14.71,12.43-28.26,21.56-41.23,9.4-13.34,19.53-25.54,30.89-37.18,14.62-14.98,32.25-21.14,52.29-26.3,8.3-2.14,16.16-.46,23.07,4.7,23.07,17.22,50.07,46.04,67.95,68.92,2.29,2.92,3.61,6.48,4.08,10.03l1.61,12.25c3.07-8.31.96-16.04,3.28-24.05,13.3-45.99,58.21-72.98,101.32-87.2,1.65,1.9,2.05,4.71,1.33,6.74l-9.14,25.52c-3.22,9-8.52,16.99-15.93,22.86l-15.13-7.88c4.13,3.86,7.45,6.26,12.39,9.94l-9.94,7.51-14.54-11.45c3.47,5.06,6.48,8.24,11.24,13.26l-19.08,13.87c-3.53-7.26-6.41-13.31-12.19-19.3,2.06,7.7,4.49,13.97,8.2,22.07l-25.44,20.79-4.09,22.82c5.12-5.01,10.01-8.5,16.28-11.09,32.7-13.54,56.16-18.05,91.72-8.69,9.48,7.71,17.64,17.67,26.26,26.51,8.7,8.93,17.05,17.41,23.21,28.79-8.94-2-14.42-11.73-21.73-10.74l-19.04-22.56c2.64,7.36,6.84,13.8,11.88,21.42l-30.51-1.52c-4.85-10.13-9.3-18.6-15.24-27.61,2.61,9.56,6.76,16.7,11.03,26.59-3.81.4-7.8.01-12.33-.61l-8.27-22.3,4.14,21.87-25.04-2.97-7.22-25.12,3.4,24.28-15.63-1.12-.77-14.33-3.09,14.51c-9.51,2.36-19.81,6.42-27.17,13.58-2.27,11.82,3.76,24.69,1.07,36.48l-7.25,31.82c5.85-11.26,10.12-23.05,14.57-35.46,1.2-3.36,3.54-8.15,5.9-10.84,7.24-8.26,18.33-11.82,28.95-11.68-.48,3.14-2.45,3.95-4.07,5.73-12.39,13.63-25.75,33.37-32.93,50.57,2.86,16.11,6.05,31.45,10.54,47.31,1.55,5.46,5.52,12.03,4.82,17.91l-9.18,59.33c-.02,1.83.01,1.79.14-.18,13.79-24.45,8.16-48.13,27.11-71.22,6.61-8.06,16.4-11.87,26.37-14.32,12.46-3.06,24.1-5.82,36.46-9.56l1.35.94-16.03,20.84c-6.78,8.81-20.63,11.26-26.4,21.17l-13.9,23.87c-2.76,4.74-4.62,8.44-3.98,14.16l5.73,51.13,1.27,21.06-8.51,5.61-24.5,3.79c-10.08,1.56-19.82,2.37-30.13,1.45-10.93-13.32-3.44-18.76-5.25-25.33l-4.94-17.91c-4.14-15.01-8.18-29.57-11.56-44.8-1.5-6.78-5.04-12.16-10.91-16.82Z"/>
      <path class="cls-3" d="M1186.78,255.33l20.82-16.56,29.23-20.18c8.36-5.77,20.74-9.74,31.53-10.25-.7-1.4-2.48-3.23-3.7-3.49l-16.97-3.65c-3.64-.78-6.71.89-10.02,1.96l-27.36,8.85c-7.56,2.45-14.75,4.7-22.43,6.75-6.4,1.72-12.19,5.07-16.13,10.61-12.9,18.11-7.43,19.58-15.91,37.37l5.77-45.93,6.47-46.44c1.39-9.98,2.62-19.57,1.93-29.71l-3.04-44.4c10.04-.24,19.4.4,29.42,1.27,9.09-9.83,17.26-19.67,27.89-27.16l-19.89,28.22c14.94,3.95,14.43,4.37,25.88,15.1,5.8-7.49,10.83-14.74,17.27-21.43-3.3,9.09-8.76,15.69-14.52,24.13l10.27,11.8,8.57-11.77c4.06-5.57,7.91-10.89,13.89-15.07-4.67,12.3-10.12,22.07-15.82,33.62,23.82,26.7,36.73,13.71,73.47,29.3,1.46.62,4.4.5,5.29-.46,4.13-4.41-3.3-16.96-6.23-22.57l-23.89-45.77c-10.03-19.21-15.4-23.71-34-31.79-16.63-7.23-33.71-12.01-51.95-11.87-21.13.16-32.1,16.49-48.15,29.69.18-5.8,1.52-11.46,3.78-16.97,4.61-11.2,8.85-21.59,14.35-32.71,5.76-2.87,13.35-9.03,20.14-8.5l41.84,3.25c2.26-7.72,4.96-14.66,9.07-20.91l-5.07,21.23,15.75,2.73.87-15.48c.31-5.53,2.14-10.81,4.26-15.47l.22,32.98c11.87,4.77,21.71,10.38,32.28,17.55-3.08-14.38-7.13-27.52-5.21-41.93l3.5,15.98c2.11,9.61,2.69,21.75,8.7,30.08,6.1,7.68,18.22,11.39,27.19,14.7,4.07,1.5,18.48-2.09,20.04-2.92.95-.5,1.38-3.32.96-4.4-5.8-14.71-12.43-28.26-21.56-41.23-9.4-13.34-19.53-25.54-30.89-37.18-14.62-14.98-32.25-21.14-52.29-26.3-8.3-2.14-16.16-.46-23.07,4.7-23.07,17.22-50.07,46.04-67.95,68.92-2.29,2.92-3.61,6.48-4.08,10.03l-1.61,12.25c-3.07-8.31-.96-16.04-3.28-24.05-13.3-45.99-58.21-72.98-101.32-87.2-1.65,1.9-2.05,4.71-1.33,6.74l9.14,25.52c3.22,9,8.52,16.99,15.93,22.86l15.13-7.88c-4.13,3.86-7.45,6.26-12.39,9.94l9.94,7.51,14.54-11.45c-3.47,5.06-6.48,8.24-11.24,13.26l19.08,13.87c3.53-7.26,6.41-13.31,12.19-19.3-2.06,7.7-4.49,13.97-8.2,22.07l25.44,20.79,4.09,22.82c-5.12-5.01-10.01-8.5-16.28-11.09-32.7-13.54-56.16-18.05-91.72-8.69-9.48,7.71-17.64,17.67-26.26,26.51-8.7,8.93-17.05,17.41-23.21,28.79,8.94-2,14.42-11.73,21.73-10.74l19.04-22.56c-2.64,7.36-6.84,13.8-11.88,21.42l30.51-1.52c4.85-10.13,9.3-18.6,15.24-27.61-2.61,9.56-6.76,16.7-11.03,26.59,3.81.4,7.8.01,12.33-.61l8.27-22.3-4.14,21.87,25.04-2.97,7.22-25.12-3.4,24.28,15.63-1.12.77-14.33,3.09,14.51c9.51,2.36,19.81,6.42,27.17,13.58,2.27,11.82-3.76,24.69-1.07,36.48l7.25,31.82c-5.85-11.26-10.12-23.05-14.57-35.46-1.2-3.36-3.54-8.15-5.9-10.84-7.24-8.26-18.33-11.82-28.95-11.68.48,3.14,2.45,3.95,4.07,5.73,12.39,13.63,25.75,33.37,32.93,50.57-2.86,16.11-6.05,31.45-10.54,47.31-1.55,5.46-5.52,12.03-4.82,17.91l9.18,59.33c.02,1.83-.01,1.79-.14-.18-13.79-24.45-8.16-48.13-27.11-71.22-6.61-8.06-16.4-11.87-26.37-14.32-12.46-3.06-24.1-5.82-36.46-9.56l-1.35.94,16.03,20.84c6.78,8.81,20.63,11.26,26.4,21.17l13.9,23.87c2.76,4.74,4.62,8.44,3.98,14.16l-5.73,51.13-1.27,21.06,8.51,5.61,24.5,3.79c10.08,1.56,19.82,2.37,30.13,1.45,10.93-13.32,3.44-18.76,5.25-25.33l4.94-17.91c4.14-15.01,8.18-29.57,11.56-44.8,1.5-6.78,5.04-12.16,10.91-16.82Z"/>
      <path class="cls-3" d="M1878.91,614.18l20.82-16.56,29.23-20.18c8.36-5.77,20.74-9.74,31.53-10.25-.7-1.4-2.48-3.23-3.7-3.49l-16.97-3.65c-3.64-.78-6.71.89-10.02,1.96l-27.36,8.85c-7.56,2.45-14.75,4.7-22.43,6.75-6.4,1.72-12.19,5.07-16.13,10.61-12.9,18.11-7.43,19.58-15.91,37.37l5.77-45.93,6.47-46.44c1.39-9.98,2.62-19.57,1.93-29.71l-3.04-44.4c10.04-.24,19.4.4,29.42,1.27,9.09-9.83,17.26-19.67,27.89-27.16l-19.89,28.22c14.94,3.95,14.43,4.37,25.88,15.1,5.8-7.49,10.83-14.74,17.27-21.43-3.3,9.09-8.76,15.69-14.52,24.13l10.27,11.8,8.57-11.77c4.06-5.57,7.91-10.89,13.89-15.07-4.67,12.3-10.12,22.07-15.82,33.62,23.82,26.7,36.73,13.71,73.47,29.3,1.46.62,4.4.5,5.29-.46,4.13-4.41-3.3-16.96-6.23-22.57l-23.89-45.77c-10.03-19.21-15.4-23.71-34-31.79-16.63-7.23-33.71-12.01-51.95-11.87-21.13.16-32.1,16.49-48.15,29.69.18-5.8,1.52-11.46,3.78-16.97,4.61-11.2,8.85-21.59,14.35-32.71,5.76-2.87,13.35-9.03,20.14-8.5l41.84,3.25c2.26-7.72,4.96-14.66,9.07-20.91l-5.07,21.23,15.75,2.73.87-15.48c.31-5.53,2.14-10.81,4.26-15.47l.22,32.98c11.87,4.77,21.71,10.38,32.28,17.55-3.08-14.38-7.13-27.52-5.21-41.93l3.5,15.98c2.11,9.61,2.69,21.75,8.7,30.08,6.1,7.68,18.22,11.39,27.19,14.7,4.07,1.5,18.48-2.09,20.04-2.92.95-.5,1.38-3.32.96-4.4-5.8-14.71-12.43-28.26-21.56-41.23-9.4-13.34-19.53-25.54-30.89-37.18-14.62-14.98-32.25-21.14-52.29-26.3-8.3-2.14-16.16-.46-23.07,4.7-23.07,17.22-50.07,46.04-67.95,68.92-2.29,2.92-3.61,6.48-4.08,10.03l-1.61,12.25c-3.07-8.31-.96-16.04-3.28-24.05-13.3-45.99-58.21-72.98-101.32-87.2-1.65,1.9-2.05,4.71-1.33,6.74l9.14,25.52c3.22,9,8.52,16.99,15.93,22.86l15.13-7.88c-4.13,3.86-7.45,6.26-12.39,9.94l9.94,7.51,14.54-11.45c-3.47,5.06-6.48,8.24-11.24,13.26l19.08,13.87c3.53-7.26,6.41-13.31,12.19-19.3-2.06,7.7-4.49,13.97-8.2,22.07l25.44,20.79,4.09,22.82c-5.12-5.01-10.01-8.5-16.28-11.09-32.7-13.54-56.16-18.05-91.72-8.69-9.48,7.71-17.64,17.67-26.26,26.51-8.7,8.93-17.05,17.41-23.21,28.79,8.94-2,14.42-11.73,21.73-10.74l19.04-22.56c-2.64,7.36-6.84,13.8-11.88,21.42l30.51-1.52c4.85-10.13,9.3-18.6,15.24-27.61-2.61,9.56-6.76,16.7-11.03,26.59,3.81.4,7.8.01,12.33-.61l8.27-22.3-4.14,21.87,25.04-2.97,7.22-25.12-3.4,24.28,15.63-1.12.77-14.33,3.09,14.51c9.51,2.36,19.81,6.42,27.17,13.58,2.27,11.82-3.76,24.69-1.07,36.48l7.25,31.82c-5.85-11.26-10.12-23.05-14.57-35.46-1.2-3.36-3.54-8.15-5.9-10.84-7.24-8.26-18.33-11.82-28.95-11.68.48,3.14,2.45,3.95,4.07,5.73,12.39,13.63,25.75,33.37,32.93,50.57-2.86,16.11-6.05,31.45-10.54,47.31-1.55,5.46-5.52,12.03-4.82,17.91l9.18,59.33c.02,1.83-.01,1.79-.14-.18-13.79-24.45-8.16-48.13-27.11-71.22-6.61-8.06-16.4-11.87-26.37-14.32-12.46-3.06-24.1-5.82-36.46-9.56l-1.35.94,16.03,20.84c6.78,8.81,20.63,11.26,26.4,21.17l13.9,23.87c2.76,4.74,4.62,8.44,3.98,14.16l-5.73,51.13-1.27,21.06,8.51,5.61,24.5,3.79c10.08,1.56,19.82,2.37,30.13,1.45,10.93-13.32,3.44-18.76,5.25-25.33l4.94-17.91c4.14-15.01,8.18-29.57,11.56-44.8,1.5-6.78,5.04-12.16,10.91-16.82Z"/>
      <path class="cls-3" d="M1384.35,291.75c2.05-5.59,4.6-10.13,7.11-15.15,4.93-9.86,5.48-16.25,18.82-17.67l18.85-2c1.51-.16,4.18-1.73,5.9-2.08,2.49-.14,17.23,7.56,17.35,8.11l2,9.2c4.63-2.91,11.62-14.7,15.25-15.76.88-.26,2.24.47,3.64,1.29.96.56,1.55,2.79.66,3.82-5.81,6.79-11.7,12.9-17.95,19.39,1.02,1.74,2.93,4.4,2.67,6.21-2.36,16.77-4.09,13.22-9.97,16.66-4.06,2.38-5.53,8.03-9.14,11.1-5.53,4.72-12.15,7.28-18.92,9.45-9.19-1.1-17.57-3.76-25.82-8.25-4.4-7.78-7.54-15.51-10.47-24.32ZM1435.67,309.61c4.56,4.75,13.09-26.92,12.35-27.3l-7.91,18.25-4.44,9.05ZM1439.82,282.64l-15.72,31.03c-.22.43-.01,1.79.31,2.1,2.72,2.64,16.04-28.47,15.41-33.13ZM1413.33,315.47c4.3,5.71,17.53-30.9,17.2-32.44l-4.91,8.04-12.29,24.4ZM1406.9,310.36l5.73-10.62c2.99-5.55,5.46-10.93,6.95-16.72l-3.58,5.36c-4.29,6.43-8.46,13.78-11.82,20.67-.25.51.17,1.75.46,2.15s2.01-.38,2.26-.84ZM1407.58,286.12c-.89-.32-14.74,19.29-10.35,18.21,2.52-.62,8.66-14.69,10.35-18.21Z"/>
      <path class="cls-3" d="M958.67,933.82c2.05-5.59,4.6-10.13,7.11-15.15,4.93-9.86,5.48-16.25,18.82-17.67l18.85-2c1.51-.16,4.18-1.73,5.9-2.08,2.49-.14,17.23,7.56,17.35,8.11l2,9.2c4.63-2.91,11.62-14.7,15.25-15.76.88-.26,2.24.47,3.64,1.29.96.56,1.55,2.79.66,3.82-5.81,6.79-11.7,12.9-17.95,19.39,1.02,1.74,2.93,4.4,2.67,6.21-2.36,16.77-4.09,13.22-9.97,16.66-4.06,2.38-5.53,8.03-9.14,11.1-5.53,4.72-12.15,7.28-18.92,9.45-9.19-1.1-17.57-3.76-25.82-8.25-4.4-7.78-7.54-15.51-10.47-24.32ZM1009.99,951.68c4.56,4.75,13.09-26.92,12.35-27.3l-7.91,18.25-4.44,9.05ZM1014.14,924.7l-15.72,31.03c-.22.43-.01,1.79.31,2.1,2.72,2.64,16.04-28.47,15.41-33.13ZM987.65,957.53c4.3,5.71,17.53-30.9,17.2-32.44l-4.91,8.04-12.29,24.4ZM981.22,952.42l5.73-10.62c2.99-5.55,5.46-10.93,6.95-16.72l-3.58,5.36c-4.29,6.43-8.46,13.78-11.82,20.67-.25.51.17,1.75.46,2.15s2.01-.38,2.26-.84ZM981.9,928.19c-.89-.32-14.74,19.29-10.35,18.21,2.52-.62,8.66-14.69,10.35-18.21Z"/>
      <path class="cls-3" d="M179.29,475.9c2.05-5.59,4.6-10.13,7.11-15.15,4.93-9.86,5.48-16.25,18.82-17.67l18.85-2c1.51-.16,4.18-1.73,5.9-2.08,2.49-.14,17.23,7.56,17.35,8.11l2,9.2c4.63-2.91,11.62-14.7,15.25-15.76.88-.26,2.24.47,3.64,1.29.96.56,1.55,2.79.66,3.82-5.81,6.79-11.7,12.9-17.95,19.39,1.02,1.74,2.93,4.4,2.67,6.21-2.36,16.77-4.09,13.22-9.97,16.66-4.06,2.38-5.53,8.03-9.14,11.1-5.53,4.72-12.15,7.28-18.92,9.45-9.19-1.1-17.57-3.76-25.82-8.25-4.4-7.78-7.54-15.51-10.47-24.32ZM230.61,493.76c4.56,4.75,13.09-26.92,12.35-27.3l-7.91,18.25-4.44,9.05ZM234.76,466.78l-15.72,31.03c-.22.43-.01,1.79.31,2.1,2.72,2.64,16.04-28.47,15.41-33.13ZM208.27,499.61c4.3,5.71,17.53-30.9,17.2-32.44l-4.91,8.04-12.29,24.4ZM201.84,494.5l5.73-10.62c2.99-5.55,5.46-10.93,6.95-16.72l-3.58,5.36c-4.29,6.43-8.46,13.78-11.82,20.67-.25.51.17,1.75.46,2.15s2.01-.38,2.26-.84ZM202.51,470.27c-.89-.32-14.74,19.29-10.35,18.21,2.52-.62,8.66-14.69,10.35-18.21Z"/>
      <path class="cls-3" d="M1497.87,1072.35c2.05-5.59,4.6-10.13,7.11-15.15,4.93-9.86,5.48-16.25,18.82-17.67l18.85-2c1.51-.16,4.18-1.73,5.9-2.08,2.49-.14,17.23,7.56,17.35,8.11l2,9.2c4.63-2.91,11.62-14.7,15.25-15.76.88-.26,2.24.47,3.64,1.29.96.56,1.55,2.79.66,3.82-5.81,6.79-11.7,12.9-17.95,19.39,1.02,1.74,2.93,4.4,2.67,6.21-2.36,16.77-4.09,13.22-9.97,16.66-4.06,2.38-5.53,8.03-9.14,11.1-5.53,4.72-12.15,7.28-18.92,9.45-9.19-1.1-17.57-3.76-25.82-8.25-4.4-7.78-7.54-15.51-10.47-24.32ZM1549.19,1090.21c4.56,4.75,13.09-26.92,12.35-27.3l-7.91,18.25-4.44,9.05ZM1553.34,1063.24l-15.72,31.03c-.22.43-.01,1.79.31,2.1,2.72,2.64,16.04-28.47,15.41-33.13ZM1526.85,1096.07c4.3,5.71,17.53-30.9,17.2-32.44l-4.91,8.04-12.29,24.4ZM1520.42,1090.96l5.73-10.62c2.99-5.55,5.46-10.93,6.95-16.72l-3.58,5.36c-4.29,6.43-8.46,13.78-11.82,20.67-.25.51.17,1.75.46,2.15s2.01-.38,2.26-.84ZM1521.09,1066.72c-.89-.32-14.74,19.29-10.35,18.21,2.52-.62,8.66-14.69,10.35-18.21Z"/>
      <path class="cls-3" d="M1775.44,123.78c2.05-5.59,4.6-10.13,7.11-15.15,4.93-9.86,5.48-16.25,18.82-17.67l18.85-2c1.51-.16,4.18-1.73,5.9-2.08,2.49-.14,17.23,7.56,17.35,8.11l2,9.2c4.63-2.91,11.62-14.7,15.25-15.76.88-.26,2.24.47,3.64,1.29.96.56,1.55,2.79.66,3.82-5.81,6.79-11.7,12.9-17.95,19.39,1.02,1.74,2.93,4.4,2.67,6.21-2.36,16.77-4.09,13.22-9.97,16.66-4.06,2.38-5.53,8.03-9.14,11.1-5.53,4.72-12.15,7.28-18.92,9.45-9.19-1.1-17.57-3.76-25.82-8.25-4.4-7.78-7.54-15.51-10.47-24.32ZM1826.76,141.64c4.56,4.75,13.09-26.92,12.35-27.3l-7.91,18.25-4.44,9.05ZM1830.91,114.67l-15.72,31.03c-.22.43-.01,1.79.31,2.1,2.72,2.64,16.04-28.47,15.41-33.13ZM1804.42,147.5c4.3,5.71,17.53-30.9,17.2-32.44l-4.91,8.04-12.29,24.4ZM1797.99,142.39l5.73-10.62c2.99-5.55,5.46-10.93,6.95-16.72l-3.58,5.36c-4.29,6.43-8.46,13.78-11.82,20.67-.25.51.17,1.75.46,2.15s2.01-.38,2.26-.84ZM1798.66,118.15c-.89-.32-14.74,19.29-10.35,18.21,2.52-.62,8.66-14.69,10.35-18.21Z"/>
      <path class="cls-3" d="M1516.65,474.22c-8.14-7.94-14.56-5.34-25.04-6.63-3.38-.42-6.13-2.92-6.79-6.3-.97-4.97-.3-10.47,2.37-14.75,4.94-7.92,14.56-9.92,22.27-4.99l8.16,5.21c3.83,10.01,11.43,23.58,21.05,27.62-7.78-7.71-13.08-16.87-17.25-26.99,9.06-3.47,12.31-13.41,23.35-6.48l3.32,2.08c1.07,7.8,3.71,14.98,7.94,21.62l-4.65-20.4c2.82-.06,3.98-.53,4.97-2.34,4.81-8.82,13.4-8.52,21.36-4.81l-7.5,19.09c-1.03,2.61-2.6,5.05-3.95,7.63,6.65-7.1,10.01-16.64,13.79-25.81l7.59-.2-9.77,19.19c-.86,1.69-2.21,3.22-2.81,5.07,6.65-7.59,10.95-15.76,15.03-24.96,5.17-2.1,11.76-3.88,15.51,2.2l-4.24,5.17c-5.05,6.16-10.16,11.69-15.19,18.49,7.64-6.37,14.88-13.76,21.58-21.7,1.58-.51,4.97-.37,5.9.85,1.3,1.69-1.04,4.11-2.38,4.96-3.01,1.92-5.65,3.81-8.16,6.25l-6.62,6.45c-6.08,5.93-11.95,11.25-19.69,14.87l-13.27,6.2c-1.88.88-3.19,5.4-2.91,7.39.39,2.72,2.33,5.12,4.31,6.92,7.94,7.22,16.53,13.08,26,18.23,5.7,3.1,11.6,6.62,10.74,13.58-.73,5.91-3.67,11.69-8.3,15.27-4.55,3.51-9.84,3.17-14.41.02l-15.23-10.48c-8.99-6.19-12-16.2-12.84-26.59l-1.56-19.32-10.77.62c-6.07.35-11.83-2.39-16.11-6.56l-5.84-5.7Z"/>
      <path class="cls-3" d="M905.07,181.08c8.14-7.94,14.56-5.34,25.04-6.63,3.38-.42,6.13-2.92,6.79-6.3.97-4.97.3-10.47-2.37-14.75-4.94-7.92-14.56-9.92-22.27-4.99l-8.16,5.21c-3.83,10.01-11.43,23.58-21.05,27.62,7.78-7.71,13.08-16.87,17.25-26.99-9.06-3.47-12.31-13.41-23.35-6.48l-3.32,2.08c-1.07,7.8-3.71,14.98-7.94,21.62l4.65-20.4c-2.82-.06-3.98-.53-4.97-2.34-4.81-8.82-13.4-8.52-21.36-4.81l7.5,19.09c1.03,2.61,2.6,5.05,3.95,7.63-6.65-7.1-10.01-16.64-13.79-25.81l-7.59-.2,9.77,19.19c.86,1.69,2.21,3.22,2.81,5.07-6.65-7.59-10.95-15.76-15.03-24.96-5.17-2.1-11.76-3.88-15.51,2.2l4.24,5.17c5.05,6.16,10.16,11.69,15.19,18.49-7.64-6.37-14.88-13.76-21.58-21.7-1.58-.51-4.97-.37-5.9.85-1.3,1.69,1.04,4.11,2.38,4.96,3.01,1.92,5.65,3.81,8.16,6.25l6.62,6.45c6.08,5.93,11.95,11.25,19.69,14.87l13.27,6.2c1.88.88,3.19,5.4,2.91,7.39-.39,2.72-2.33,5.12-4.31,6.92-7.94,7.22-16.53,13.08-26,18.23-5.7,3.1-11.6,6.62-10.74,13.58.73,5.91,3.67,11.69,8.3,15.27,4.55,3.51,9.84,3.17,14.41.02l15.23-10.48c8.99-6.19,12-16.2,12.84-26.59l1.56-19.32,10.77.62c6.07.35,11.83-2.39,16.11-6.56l5.84-5.7Z"/>
      <path class="cls-3" d="M201.15,681.3c8.14-7.94,14.56-5.34,25.04-6.63,3.38-.42,6.13-2.92,6.79-6.3.97-4.97.3-10.47-2.37-14.75-4.94-7.92-14.56-9.92-22.27-4.99l-8.16,5.21c-3.83,10.01-11.43,23.58-21.05,27.62,7.78-7.71,13.08-16.87,17.25-26.99-9.06-3.47-12.31-13.41-23.35-6.48l-3.32,2.08c-1.07,7.8-3.71,14.98-7.94,21.62l4.65-20.4c-2.82-.06-3.98-.53-4.97-2.34-4.81-8.82-13.4-8.52-21.36-4.81l7.5,19.09c1.03,2.61,2.6,5.05,3.95,7.63-6.65-7.1-10.01-16.64-13.79-25.81l-7.59-.2,9.77,19.19c.86,1.69,2.21,3.22,2.81,5.07-6.65-7.59-10.95-15.76-15.03-24.96-5.17-2.1-11.76-3.88-15.51,2.2l4.24,5.17c5.05,6.16,10.16,11.69,15.19,18.49-7.64-6.37-14.88-13.76-21.58-21.7-1.58-.51-4.97-.37-5.9.85-1.3,1.69,1.04,4.11,2.38,4.96,3.01,1.92,5.65,3.81,8.16,6.25l6.62,6.45c6.08,5.93,11.95,11.25,19.69,14.87l13.27,6.2c1.88.88,3.19,5.4,2.91,7.39-.39,2.72-2.33,5.12-4.31,6.92-7.94,7.22-16.53,13.08-26,18.23-5.7,3.1-11.6,6.62-10.74,13.58.73,5.91,3.67,11.69,8.3,15.27,4.55,3.51,9.84,3.17,14.41.02l15.23-10.48c8.99-6.19,12-16.2,12.84-26.59l1.56-19.32,10.77.62c6.07.35,11.83-2.39,16.11-6.56l5.84-5.7Z"/>
      <path class="cls-3" d="M849.72,1101.93c-8.14-7.94-14.56-5.34-25.04-6.63-3.38-.42-6.13-2.92-6.79-6.3-.97-4.97-.3-10.47,2.37-14.75,4.94-7.92,14.56-9.92,22.27-4.99l8.16,5.21c3.83,10.01,11.43,23.58,21.05,27.62-7.78-7.71-13.08-16.87-17.25-26.99,9.06-3.47,12.31-13.41,23.35-6.48l3.32,2.08c1.07,7.8,3.71,14.98,7.94,21.62l-4.65-20.4c2.82-.06,3.98-.53,4.97-2.34,4.81-8.82,13.4-8.52,21.36-4.81l-7.5,19.09c-1.03,2.61-2.6,5.05-3.95,7.63,6.65-7.1,10.01-16.64,13.79-25.81l7.59-.2-9.77,19.19c-.86,1.69-2.21,3.22-2.81,5.07,6.65-7.59,10.95-15.76,15.03-24.96,5.17-2.1,11.76-3.88,15.51,2.2l-4.24,5.17c-5.05,6.16-10.16,11.69-15.19,18.49,7.64-6.37,14.88-13.76,21.58-21.7,1.58-.51,4.97-.37,5.9.85,1.3,1.69-1.04,4.11-2.38,4.96-3.01,1.92-5.65,3.81-8.16,6.25l-6.62,6.45c-6.08,5.93-11.95,11.25-19.69,14.87l-13.27,6.2c-1.88.88-3.19,5.4-2.91,7.39.39,2.72,2.33,5.12,4.31,6.92,7.94,7.22,16.53,13.08,26,18.23,5.7,3.1,11.6,6.62,10.74,13.58-.73,5.91-3.67,11.69-8.3,15.27-4.55,3.51-9.84,3.17-14.41.02l-15.23-10.48c-8.99-6.19-12-16.2-12.84-26.59l-1.56-19.32-10.77.62c-6.07.35-11.83-2.39-16.11-6.56l-5.84-5.7Z"/>
      <path class="cls-3" d="M709.33,1033.05c-13.3,7.18-23.76,4.05-38.01,5.95-11.85,1.57-23.28-2.34-31.75-11.03-5.3-5.44-10.64-5.46-9.71-10.66,1.52-8.48,3.13-15.68,5.81-24.22l29.88-4.62c2.7-1.91,5.61-6.91,8.96-8.13,7.58-2.76,14.59-4.77,22.43-6.62,5.18-1.22,10.39,4.2,14.23-4.92,4.42-10.5,13.45-17.66,22.82-23.68,4.73-2.25,6.8-5.95,7.29-10.8,1.64-16.13,9.24-30.37,22.45-40.4-5.7-18.32-3.92-43.85,16.07-52.94-3.01-10.58-6.79-20.33-13.01-29.88-4.11-1.14-9.94,4.2-11.32.9-.32-.77-.61-2.94-.1-3.76,2.37-3.88,11.15-18.51,14.63-18.98.78-.11,2.49,1.92,2.51,2.79l.28,11.84,16.04,31.7c11.3,6.74,24.47,13.61,23.98,28.3-.15,4.65,1.04,9.97-.08,14.3-2.35,9.06-11.43,10.45-6.85,24.32,2.41,7.32,1.07,14.7-3.67,20.89l-16.15,21.06c-2.06,2.68-1.92,7.91-2.22,11.19-1.14,12.45-8.19,16.27-19.04,22.36-17.92,10.05-10.58,27.11-31.81,33.6-12.92,3.95-10.01,14.07-23.66,21.45ZM804.55,873.54c2.59-4.43.26-9.97-2.62-13.49-7.38-9.03-3.89-11.87-19.48-10.44,4.01,4.62,10.57,7.27,13.28,12.82l3.85,7.87c-2.09,3.89-4.4,7.94-6.81,11.69l-9.26,14.37c5.25.72,18.19-17.94,21.04-22.82ZM777.35,887.3l-7.34-3.67c.43,3.48,4.42,6.46,6.7,7.4.68.28,3.29-1.22,2.94-1.89s-1.26-1.31-2.31-1.84ZM706.55,1009.41l-7.71,10.01c-3.55,4.6-8.57,6.39-14.11,5.23l-22.88-4.79c-1.04-3.64-1.43-7.34-.15-10.63l3.42-8.84c-6.87.5-11.05,13.71-9.82,19.72.74,3.63,4.79,4.96,7.99,5.67,8.74,1.94,16.96,4.31,25.97,4.24,9.8-.07,17.66-13.31,21.81-21.18-.73-1.44-3.51-.77-4.52.55ZM693.63,985.22c-6.13,3.78-11.62,7.97-16.33,13.6,7.39-2.2,14.31-4.43,21.12-6.01,4.04-.94,11.28,6.37,15.2,6.79-6.71-14.27-7.87-12.42-19.99-14.37ZM776.41,937.56c-2.26,2.73-4.98,2.5-8.13,1.73-4.81-1.19-11.09-1.76-13.41-7.2-1.41-3.31-.71-8.22-.83-11.81-3.32,4.09-3.15,10.75-.3,14.87,4.22,6.11,18.87,9.71,20.59,8.87,7.24-3.56,10.64-10.21,15.25-16.13,4.32-5.55,5.13-12.18.39-17.89.76,11.36-5.88,18.3-13.56,27.56ZM747.26,970.36c-1.12,4.1-1.09,10.13-4.25,12.88-6.9,4.32-14.96,3.86-22.64,3.9-1.92-6.42-1.13-19,7.62-18.68-1.23-1.04-3.81-2.06-5.75-2.03-5.16.09-6.33,14.12-5.37,19.56,1.25,7.1,7.66,8.51,13.67,8.12,8.99-.59,16.07-4.86,18.54-14.38,3.64-14.04-1.03-12.29-1.19-11.71l-.64,2.34ZM758.63,959.64c2.5-4.71,1.35-10.55-2.72-13.54-3.03-2.22-7.55-2.32-9.6.67,3.06,1.78,6.05,3.79,7.84,6.37l4.49,6.5Z"/>
      <path class="cls-3" d="M-14.04,427.6c-13.3,7.18-23.76,4.05-38.01,5.95-11.85,1.57-23.28-2.34-31.75-11.03-5.3-5.44-10.64-5.46-9.71-10.66,1.52-8.48,3.13-15.68,5.81-24.22l29.88-4.62c2.7-1.91,5.61-6.91,8.96-8.13,7.58-2.76,14.59-4.77,22.43-6.62,5.18-1.22,10.39,4.2,14.23-4.92,4.42-10.5,13.45-17.66,22.82-23.68,4.73-2.25,6.8-5.95,7.29-10.8,1.64-16.13,9.24-30.37,22.45-40.4-5.7-18.32-3.92-43.85,16.07-52.94-3.01-10.58-6.79-20.33-13.01-29.88-4.11-1.14-9.94,4.2-11.32.9-.32-.77-.61-2.94-.1-3.76,2.37-3.88,11.15-18.51,14.63-18.98.78-.11,2.49,1.92,2.51,2.79l.28,11.84,16.04,31.7c11.3,6.74,24.47,13.61,23.98,28.3-.15,4.65,1.04,9.97-.08,14.3-2.35,9.06-11.43,10.45-6.85,24.32,2.41,7.32,1.07,14.7-3.67,20.89l-16.15,21.06c-2.06,2.68-1.92,7.91-2.22,11.19-1.14,12.45-8.19,16.27-19.04,22.36-17.92,10.05-10.58,27.11-31.81,33.6-12.92,3.95-10.01,14.07-23.66,21.45ZM81.18,268.08c2.59-4.43.26-9.97-2.62-13.49-7.38-9.03-3.89-11.87-19.48-10.44,4.01,4.62,10.57,7.27,13.28,12.82l3.85,7.87c-2.09,3.89-4.4,7.94-6.81,11.69l-9.26,14.37c5.25.72,18.19-17.94,21.04-22.82ZM53.98,281.84l-7.34-3.67c.43,3.48,4.42,6.46,6.7,7.4.68.28,3.29-1.22,2.94-1.89s-1.26-1.31-2.31-1.84ZM-16.82,403.95l-7.71,10.01c-3.55,4.6-8.57,6.39-14.11,5.23l-22.88-4.79c-1.04-3.64-1.43-7.34-.15-10.63l3.42-8.84c-6.87.5-11.05,13.71-9.82,19.72.74,3.63,4.79,4.96,7.99,5.67,8.74,1.94,16.96,4.31,25.97,4.24,9.8-.07,17.66-13.31,21.81-21.18-.73-1.44-3.51-.77-4.52.55ZM-29.73,379.76c-6.13,3.78-11.62,7.97-16.33,13.6,7.39-2.2,14.31-4.43,21.12-6.01,4.04-.94,11.28,6.37,15.2,6.79-6.71-14.27-7.87-12.42-19.99-14.37ZM53.04,332.11c-2.26,2.73-4.98,2.5-8.13,1.73-4.81-1.19-11.09-1.76-13.41-7.2-1.41-3.31-.71-8.22-.83-11.81-3.32,4.09-3.15,10.75-.3,14.87,4.22,6.11,18.87,9.71,20.59,8.87,7.24-3.56,10.64-10.21,15.25-16.13,4.32-5.55,5.13-12.18.39-17.89.76,11.36-5.88,18.3-13.56,27.56ZM23.9,364.9c-1.12,4.1-1.09,10.13-4.25,12.88-6.9,4.32-14.96,3.86-22.64,3.9-1.92-6.42-1.13-19,7.62-18.68-1.23-1.04-3.81-2.06-5.75-2.03-5.16.09-6.33,14.12-5.37,19.56,1.25,7.1,7.66,8.51,13.67,8.12,8.99-.59,16.07-4.86,18.54-14.38,3.64-14.04-1.03-12.29-1.19-11.71l-.64,2.34ZM35.26,354.19c2.5-4.71,1.35-10.55-2.72-13.54-3.03-2.22-7.55-2.32-9.6.67,3.06,1.78,6.05,3.79,7.84,6.37l4.49,6.5Z"/>
      <path class="cls-3" d="M1264.43,600.27c-13.3,7.18-23.76,4.05-38.01,5.95-11.85,1.57-23.28-2.34-31.75-11.03-5.3-5.44-10.64-5.46-9.71-10.66,1.52-8.48,3.13-15.68,5.81-24.22l29.88-4.62c2.7-1.91,5.61-6.91,8.96-8.13,7.58-2.76,14.59-4.77,22.43-6.62,5.18-1.22,10.39,4.2,14.23-4.92,4.42-10.5,13.45-17.66,22.82-23.68,4.73-2.25,6.8-5.95,7.29-10.8,1.64-16.13,9.24-30.37,22.45-40.4-5.7-18.32-3.92-43.85,16.07-52.94-3.01-10.58-6.79-20.33-13.01-29.88-4.11-1.14-9.94,4.2-11.32.9-.32-.77-.61-2.94-.1-3.76,2.37-3.88,11.15-18.51,14.63-18.98.78-.11,2.49,1.92,2.51,2.79l.28,11.84,16.04,31.7c11.3,6.74,24.47,13.61,23.98,28.3-.15,4.65,1.04,9.97-.08,14.3-2.35,9.06-11.43,10.45-6.85,24.32,2.41,7.32,1.07,14.7-3.67,20.89l-16.15,21.06c-2.06,2.68-1.92,7.91-2.22,11.19-1.14,12.45-8.19,16.27-19.04,22.36-17.92,10.05-10.58,27.11-31.81,33.6-12.92,3.95-10.01,14.07-23.66,21.45ZM1359.64,440.76c2.59-4.43.26-9.97-2.62-13.49-7.38-9.03-3.89-11.87-19.48-10.44,4.01,4.62,10.57,7.27,13.28,12.82l3.85,7.87c-2.09,3.89-4.4,7.94-6.81,11.69l-9.26,14.37c5.25.72,18.19-17.94,21.04-22.82ZM1332.44,454.52l-7.34-3.67c.43,3.48,4.42,6.46,6.7,7.4.68.28,3.29-1.22,2.94-1.89s-1.26-1.31-2.31-1.84ZM1261.64,576.63l-7.71,10.01c-3.55,4.6-8.57,6.39-14.11,5.23l-22.88-4.79c-1.04-3.64-1.43-7.34-.15-10.63l3.42-8.84c-6.87.5-11.05,13.71-9.82,19.72.74,3.63,4.79,4.96,7.99,5.67,8.74,1.94,16.96,4.31,25.97,4.24,9.8-.07,17.66-13.31,21.81-21.18-.73-1.44-3.51-.77-4.52.55ZM1248.73,552.44c-6.13,3.78-11.62,7.97-16.33,13.6,7.39-2.2,14.31-4.43,21.12-6.01,4.04-.94,11.28,6.37,15.2,6.79-6.71-14.27-7.87-12.42-19.99-14.37ZM1331.51,504.79c-2.26,2.73-4.98,2.5-8.13,1.73-4.81-1.19-11.09-1.76-13.41-7.2-1.41-3.31-.71-8.22-.83-11.81-3.32,4.09-3.15,10.75-.3,14.87,4.22,6.11,18.87,9.71,20.59,8.87,7.24-3.56,10.64-10.21,15.25-16.13,4.32-5.55,5.13-12.18.39-17.89.76,11.36-5.88,18.3-13.56,27.56ZM1302.36,537.58c-1.12,4.1-1.09,10.13-4.25,12.88-6.9,4.32-14.96,3.86-22.64,3.9-1.92-6.42-1.13-19,7.62-18.68-1.23-1.04-3.81-2.06-5.75-2.03-5.16.09-6.33,14.12-5.37,19.56,1.25,7.1,7.66,8.51,13.67,8.12,8.99-.59,16.07-4.86,18.54-14.38,3.64-14.04-1.03-12.29-1.19-11.71l-.64,2.34ZM1313.73,526.86c2.5-4.71,1.35-10.55-2.72-13.54-3.03-2.22-7.55-2.32-9.6.67,3.06,1.78,6.05,3.79,7.84,6.37l4.49,6.5Z"/>
      <path class="cls-3" d="M668.36,608.92c-2.7.27-7.48.58-9.18-1.56-3.88-4.86-6.05-10.47-9.14-15.77-2.26-3.88-5.11-7.26-7.9-10.83l-13.33-17.05c-2.51-3.21-2.44-5.07-3.29-9.07-1.08-5.1-6.03-9.46-8.42-14.29-1.56-3.16-5.76,2.72-10.64,3.59l-23.2,4.13c-16.29,2.9-28,.9-39.93-10.48l-14.31-13.64c-5.64-5.38-8.11-17.92-8.99-25.69-.46-4.1-.67-7.68.33-11.94l1.94-8.3c2.95-12.61,8.58-24.24,14.1-35.88,2.16-4.56,5.45-7.68,9.71-10.04,11.09-6.12,17.81-4.83,30.87-5.1,15.04-.32,20.49.97,33.54,9.18-5.4.56-9.42-1.42-14-.61-7.55,1.34-14.38,4.06-21.38,6.9-10.97,4.45-26.85,11.32-29.05,24.12-2.06,12-2.27,29.03,5.96,38.91,4.48,5.38,9.44,10.02,15.57,13.49,12.73,7.21,32.49,3.62,45.65-.95,1.53-.53,3.36-1.81,4.96-2.1,3.76-.68,5.83-1.76,9.65-3.83.36,1.36.68,3.75.85,5.52l13.18,20.95c2.78.4,5.24,1.54,6.96,3.87l34.11,46.27c1.57,2.13.84,5.02-.33,7.2-3.61,6.74-8.69,8.53-14.3,12.99ZM611.67,535.34l10.75-9.53c2.05,10.99-.05,13.38,7.43,21.13l6.79-6.64c-3.19-4.22-7.36-7.92-9.41-12.63l-3.18-7.31c-12.41,6.44-25.69,9.86-39.6,10.05-10.51.15-19.64-4.24-27.13-11.41-5.11-4.89-10.25-9.94-12.42-16.99-3.96-12.88-3.82-26.66-.85-39.75,1.16-5.12,3.85-9.34,7.74-12.68,6.05-5.2,13.01-9.17,20.61-11.79l13.39-4.63-21.2,1.66c-4.62.36-9.18,1.2-13.52,2.54-3.8,1.17-6.47,3.59-8.62,6.82-7.15,10.73-13.04,22.22-15.32,35.09-.93,5.28-1.78,11.03-.43,16.11,2.08,7.88,15.76,30.64,20.95,38.07,3.09,4.41,9.37,7.23,14.43,8.37,8.05,1.81,15.75.7,23.36-.52-12.04-1.53-32.23-1.04-36.4-15.23,4.39,1.86,7.37,6.09,12.03,7.4,16.41,4.62,33.8,5.02,50.61,1.88ZM660.62,597.75c5.01-5.72,10.72-6.81,17.92-7.65l-24.26-33.77-8.18-10.93c-6.15,1.3-11.65,3.77-16.16,8.84l17.05,25.03,13.62,18.48ZM665.09,600.71l2.92.53c.41.07.26-1.28.21-2.31l-3.13,1.78Z"/>
      <path class="cls-3" d="M1376.48,1120.15c-2.7.27-7.48.58-9.18-1.56-3.88-4.86-6.05-10.47-9.14-15.77-2.26-3.88-5.11-7.26-7.9-10.83l-13.33-17.05c-2.51-3.21-2.44-5.07-3.29-9.07-1.08-5.1-6.03-9.46-8.42-14.29-1.56-3.16-5.76,2.72-10.64,3.59l-23.2,4.13c-16.29,2.9-28,.9-39.93-10.48l-14.31-13.64c-5.64-5.38-8.11-17.92-8.99-25.69-.46-4.1-.67-7.68.33-11.94l1.94-8.3c2.95-12.61,8.58-24.24,14.1-35.88,2.16-4.56,5.45-7.68,9.71-10.04,11.09-6.12,17.81-4.83,30.87-5.1,15.04-.32,20.49.97,33.54,9.18-5.4.56-9.42-1.42-14-.61-7.55,1.34-14.38,4.06-21.38,6.9-10.97,4.45-26.85,11.32-29.05,24.12-2.06,12-2.27,29.03,5.96,38.91,4.48,5.38,9.44,10.02,15.57,13.49,12.73,7.21,32.49,3.62,45.65-.95,1.53-.53,3.36-1.81,4.96-2.1,3.76-.68,5.83-1.76,9.65-3.83.36,1.36.68,3.75.85,5.52l13.18,20.95c2.78.4,5.24,1.54,6.96,3.87l34.11,46.27c1.57,2.13.84,5.02-.33,7.2-3.61,6.74-8.69,8.53-14.3,12.99ZM1319.79,1046.57l10.75-9.53c2.05,10.99-.05,13.38,7.43,21.13l6.79-6.64c-3.19-4.22-7.36-7.92-9.41-12.63l-3.18-7.31c-12.41,6.44-25.69,9.86-39.6,10.05-10.51.15-19.64-4.24-27.13-11.41-5.11-4.89-10.25-9.94-12.42-16.99-3.96-12.88-3.82-26.66-.85-39.75,1.16-5.12,3.85-9.34,7.74-12.68,6.05-5.2,13.01-9.17,20.61-11.79l13.39-4.63-21.2,1.66c-4.62.36-9.18,1.2-13.52,2.54-3.8,1.17-6.47,3.59-8.62,6.82-7.15,10.73-13.04,22.22-15.32,35.09-.93,5.28-1.78,11.03-.43,16.11,2.08,7.88,15.76,30.64,20.95,38.07,3.09,4.41,9.37,7.23,14.43,8.37,8.05,1.81,15.75.7,23.36-.52-12.04-1.53-32.23-1.04-36.4-15.23,4.39,1.86,7.37,6.09,12.03,7.4,16.41,4.62,33.8,5.02,50.61,1.88ZM1368.74,1108.98c5.01-5.72,10.72-6.81,17.92-7.65l-24.26-33.77-8.18-10.93c-6.15,1.3-11.65,3.77-16.16,8.84l17.05,25.03,13.62,18.48ZM1373.21,1111.94l2.92.53c.41.07.26-1.28.21-2.31l-3.13,1.78Z"/>
      <path class="cls-3" d="M1694.16,258.7c-2.7.27-7.48.58-9.18-1.56-3.88-4.86-6.05-10.47-9.14-15.77-2.26-3.88-5.11-7.26-7.9-10.83l-13.33-17.05c-2.51-3.21-2.44-5.07-3.29-9.07-1.08-5.1-6.03-9.46-8.42-14.29-1.56-3.16-5.76,2.72-10.64,3.59l-23.2,4.13c-16.29,2.9-28,.9-39.93-10.48l-14.31-13.64c-5.64-5.38-8.11-17.92-8.99-25.69-.46-4.1-.67-7.68.33-11.94l1.94-8.3c2.95-12.61,8.58-24.24,14.1-35.88,2.16-4.56,5.45-7.68,9.71-10.04,11.09-6.12,17.81-4.83,30.87-5.1,15.04-.32,20.49.97,33.54,9.18-5.4.56-9.42-1.42-14-.61-7.55,1.34-14.38,4.06-21.38,6.9-10.97,4.45-26.85,11.32-29.05,24.12-2.06,12-2.27,29.03,5.96,38.91,4.48,5.38,9.44,10.02,15.57,13.49,12.73,7.21,32.49,3.62,45.65-.95,1.53-.53,3.36-1.81,4.96-2.1,3.76-.68,5.83-1.76,9.65-3.83.36,1.36.68,3.75.85,5.52l13.18,20.95c2.78.4,5.24,1.54,6.96,3.87l34.11,46.27c1.57,2.13.84,5.02-.33,7.2-3.61,6.74-8.69,8.53-14.3,12.99ZM1637.46,185.12l10.75-9.53c2.05,10.99-.05,13.38,7.43,21.13l6.79-6.64c-3.19-4.22-7.36-7.92-9.41-12.63l-3.18-7.31c-12.41,6.44-25.69,9.86-39.6,10.05-10.51.15-19.64-4.24-27.13-11.41-5.11-4.89-10.25-9.94-12.42-16.99-3.96-12.88-3.82-26.66-.85-39.75,1.16-5.12,3.85-9.34,7.74-12.68,6.05-5.2,13.01-9.17,20.61-11.79l13.39-4.63-21.2,1.66c-4.62.36-9.18,1.2-13.52,2.54-3.8,1.17-6.47,3.59-8.62,6.82-7.15,10.73-13.04,22.22-15.32,35.09-.93,5.28-1.78,11.03-.43,16.11,2.08,7.88,15.76,30.64,20.95,38.07,3.09,4.41,9.37,7.23,14.43,8.37,8.05,1.81,15.75.7,23.36-.52-12.04-1.53-32.23-1.04-36.4-15.23,4.39,1.86,7.37,6.09,12.03,7.4,16.41,4.62,33.8,5.02,50.61,1.88ZM1686.41,247.53c5.01-5.72,10.72-6.81,17.92-7.65l-24.26-33.77-8.18-10.93c-6.15,1.3-11.65,3.77-16.16,8.84l17.05,25.03,13.62,18.48ZM1690.88,250.49l2.92.53c.41.07.26-1.28.21-2.31l-3.13,1.78Z"/>
      <path class="cls-3" d="M240.62,1057.28c-2.7.27-7.48.58-9.18-1.56-3.88-4.86-6.05-10.47-9.14-15.77-2.26-3.88-5.11-7.26-7.9-10.83l-13.33-17.05c-2.51-3.21-2.44-5.07-3.29-9.07-1.08-5.1-6.03-9.46-8.42-14.29-1.56-3.16-5.76,2.72-10.64,3.59l-23.2,4.13c-16.29,2.9-28,.9-39.93-10.48l-14.31-13.64c-5.64-5.38-8.11-17.92-8.99-25.69-.46-4.1-.67-7.68.33-11.94l1.94-8.3c2.95-12.61,8.58-24.24,14.1-35.88,2.16-4.56,5.45-7.68,9.71-10.04,11.09-6.12,17.81-4.83,30.87-5.1,15.04-.32,20.49.97,33.54,9.18-5.4.56-9.42-1.42-14-.61-7.55,1.34-14.38,4.06-21.38,6.9-10.97,4.45-26.85,11.32-29.05,24.12-2.06,12-2.27,29.03,5.96,38.91,4.48,5.38,9.44,10.02,15.57,13.49,12.73,7.21,32.49,3.62,45.65-.95,1.53-.53,3.36-1.81,4.96-2.1,3.76-.68,5.83-1.76,9.65-3.83.36,1.36.68,3.75.85,5.52l13.18,20.95c2.78.4,5.24,1.54,6.96,3.87l34.11,46.27c1.57,2.13.84,5.02-.33,7.2-3.61,6.74-8.69,8.53-14.3,12.99ZM183.93,983.7l10.75-9.53c2.05,10.99-.05,13.38,7.43,21.13l6.79-6.64c-3.19-4.22-7.36-7.92-9.41-12.63l-3.18-7.31c-12.41,6.44-25.69,9.86-39.6,10.05-10.51.15-19.64-4.24-27.13-11.41-5.11-4.89-10.25-9.94-12.42-16.99-3.96-12.88-3.82-26.66-.85-39.75,1.16-5.12,3.85-9.34,7.74-12.68,6.05-5.2,13.01-9.17,20.61-11.79l13.39-4.63-21.2,1.66c-4.62.36-9.18,1.2-13.52,2.54-3.8,1.17-6.47,3.59-8.62,6.82-7.15,10.73-13.04,22.22-15.32,35.09-.93,5.28-1.78,11.03-.43,16.11,2.08,7.88,15.76,30.64,20.95,38.07,3.09,4.41,9.37,7.23,14.43,8.37,8.05,1.81,15.75.7,23.36-.52-12.04-1.53-32.23-1.04-36.4-15.23,4.39,1.86,7.37,6.09,12.03,7.4,16.41,4.62,33.8,5.02,50.61,1.88ZM232.88,1046.11c5.01-5.72,10.72-6.81,17.92-7.65l-24.26-33.77-8.18-10.93c-6.15,1.3-11.65,3.77-16.16,8.84l17.05,25.03,13.62,18.48ZM237.35,1049.07l2.92.53c.41.07.26-1.28.21-2.31l-3.13,1.78Z"/>
      <path class="cls-3" d="M956.71,601.05c1.31-.62,3.04.88,3.67,2.15.94-5.32,19.2-25.76,8.97-30.1-4.81-2.04-8.41,1.42-11.27,5.01-10.9,13.68-13.48,9.34-24.44,18.45l-3.25,1.49-1,12.05-1.86,15.4c-.5,4.1,2.17,5.33,5.31,6.63,21.34,8.8,25.98,16.9,29.26,40.09,1.76,12.4,5.19,23.66,8.23,35.73,3.01,11.94,5.82,23.33,9.56,35.17,3.08,9.75,6.2,20.14,8.14,30.18-2.46,1.51-3.48,2.84-4.63,5.84-4.54,2.81-11.4-29.31-12.49-33.93-4.67-19.77-8.53-38.9-11.87-58.93-1.26-7.54-7.69-22.52-13.97-27.55-12.49-9.99-26.76-12.98-26.35-28.57.1-3.82-.22-7.45-.41-11.75-.11-2.58,1.33-6.94,1.72-9.88l1.73-12.92c-13.5-2.83-19.62,12.68-21.72,23.49-3.94,20.27-11.21,17.87-14.92,39.27,6.82,13.14,14.44,24.76,22.22,37.32,1.53,2.46,1.49,6.55,1.27,9.75l-22.85-20.72c-7.35-6.66-12.1-15.15-16.91-23.91-5.07-9.25-19.82-37.12-13.38-46.41l12.64-18.23c6.18-8.91,13.23-16.42,21.93-22.68-13.91-6.48-11.39-4.92-21.17.69-6.54,3.75-14.6,4.05-19.78-1.8-2.98-3.36-.91-7.91,2.22-10.81l-12.74-.2c-3.51-.05-6.49-1.82-9.01-4.09l-7.95-7.18c-2.72-2.46-2.74-6.12.23-8.73l-24.38-4.61c-5.73-1.08-7.76-6.31-6.46-11.5,1.06-4.26,3.08-7.69,6.93-9.69-7.46-5.06-27.67-14.25-21.36-25.73-14.11-2.27-20.26-4.37-27.94-16.97,3.05-4.44,7.91-4.62,12.88-4.78-4.6-9.21-19.35-10.22-15.94-23.79,4.92-1.67,10.55-3.02,16.67-4.28l-8.17-4.26c-1.04-.54-2.34-2.84-2.4-3.97s1.09-3.62,2.24-4.23l8.73-4.62c1.26-.67,4.35-.27,5.78.01l-5.04-10.12c-1.3-2.62-.55-6.15,1.68-7.67,7.91-5.42,16.78,8.13,19.65,14.58,3.11,7,3.84,14.57,5.26,22.22.14-5.89.41-11.89.99-18.2l-18.56-24.23c-2.11-2.76-3.76-7.34-3.51-10.38.07-.91,2.27-2.66,3.06-2.4l3.7,1.21c-3.62-4.23-9.42-7.22-11-13.06-1.3-4.79-5.09-27.25-1.8-29.77,3.6-2.75,10.76,12.61,13.03,15.68l-1.49-18.93c-.19-2.41.85-6.23,3.17-7.23,1.53-.66,4.27,1.87,5,3.41,3.95,8.46,4.67,17.39,4.12,26.54,2.58-2.9,8.28-7.76,11.16-7.38,4.37.58,6.64,13.39,5.65,19.42-.46,2.78.05,3.86,1.54,6.11,4.5,6.81,2.24,14.54-.49,21.63-1.39,12.06-1.54,11.22,6.35,20.78l-1.05-9.13c-.1-.91.31-2.72.71-3.4.48-.82,3.12-1.22,4.06-.7l9.02,4.99c-1.59-6.38-2.1-12.02-.87-18.54,7.52,4.93,12.84,11.61,16.68,18.56,1.01-1.21,2.08-2.31,3.28-3.12,5.52,7.46,10.1,14.7,13.2,23.28,1.53,4.24-.11,8.56-.22,13.89,3.78-5.77,6.01-12.04,6.49-19.75,12.05,8.63,13.58,17.32,11.62,29.44l7.76-10.72c5.06,4.4,7.4,9.95,7.36,16.11l-.06,8.6,5.95-6.67c.55-.61,2.37-1.46,3.06-1.16,3.33,1.42,2.3,11.87,2.38,16.94.04,2.57,3.2,6.55,5.2,8.36-.21-4.95-5.05-30.96,5.15-24.86,6.45,3.86,8.16,10.94,6.3,18.05-1.6,6.13-2.6,12.45,1.38,18.48.12-7.93-.7-31.04,5.24-36.16,18.06-8.88,18.42-5.29,31.09-20.26,4.15-4.9,8.24-9.45,14.16-12.6,11.72-6.24,15.93-2.56,27.3,1.55,10.63,7.67,18.47,17.68,26.45,28.52-19.16.07-23.82-4.3-40.15-7.48-4.39,2.37-6.84,7.11-9.67,10.93-3.17,4.28-8.85,6.23-13.17,9.36l-11.25,8.15c-1.33.97-.76,4.9,0,6.31,7.87,14.68,1.22,29.81,4.53,39.47,2.46,7.16,5.94,14.3,10.45,20.26,3.43,4.55,8.79,8.15,12.99,11.67,9.35-4.13,16.81-5.03,23.13,4.86l10.87,1.47c10.16,1.38,8.69,9.69,13.32,17.55,10.18,4.47,14.74,13.61,13.96,24.29-.39,5.39-1.9,10.38-6.94,13.98l32.86,35.89c7.36,8.04,14.28,15.65,22.37,22.88,6.63,5.93,12.32,22.58.94,29.88-5.78,3.7-1.19,12.59-4.3,16.81-3.36,4.56-7.77,7.9-12.44,11.17-2.61,1.83-13.83,3.74-16.31.99l-1.03,2.26c-1.95,4.27-20.45-36.09-22.06-40.15-7.51-18.9-19.65-49.42-36.75-58.81-1.07,2.88-2.09,5.4-3.09,7.29-9.04-3.2,3.88-10.65-14.22-29.41-4.84-5.02-9.26-8.89-16.17-11.5-1.94-3.01-3.25-8.02-3.71-11.94ZM780.87,366.59c2.4-8.79,3.23-17.72-1.94-24.69-.6,9.08.75,17.31,1.94,24.69ZM780.82,384.99c-1.03-9.11-8.85-23.32-14.9-32.51.08,7.1.69,13.86,2.35,21.15l12.54,11.35ZM785.29,384.14c4.65-4.29,17.8-9.81,13.09-17.9-3.37,1.02-14.82,11.96-14.78,13.34.02.89.9,2.83,1.69,4.56ZM801.88,421.39l-6.93-11.35c-6.08-5.16-11.54-10.16-18.82-14.13,8.02,11.38,13.71,21.88,25.75,25.49ZM799.7,409.21c-.9-6.61.38-12.44,3.22-19.27-4.76.21-10.81,4.11-9,9.63,1.03,3.13,3.63,6.53,5.78,9.63ZM768.05,413.42c5.16,9.89,10.23,18.92,16.98,27.31,2.01-9.19-8.16-34.35-16.98-27.31ZM764.1,432.59c4.47,2.98,8.93,5.3,14.1,6.85-2.61-4.34-8.75-10.85-14.1-6.85ZM827.19,436.97l11.46,3.57c-6.05-8.14-14.76-18.94-24.7-22.38.93,14.72,4.25,10.89,9.83,15.81l3.4,3ZM804.13,452.55c.51-12.57,2.15-19.16-8.63-24.79-1.53,6.4-2.32,12.36-.56,18.63,2.68,2.18,6.12,4.41,9.19,6.16ZM835.2,423.65c-1.2-3.2-3.28-5.82-5.42-7.53,1.05,3.84,1.44,7.03,5.42,7.53ZM760.61,449.49c7.54,2.82,12.43,7.99,18.24,12.1-.38-3.5-1.21-8.43-3.88-10.37-7.15-5.18-17.24-4.65-24.09.62,2.3,1.97,4.57,2.93,6.77,3.34-.16-2,1.11-6.38,2.96-5.68ZM812.86,438.48c.78-2.88-3.12-6.79-5.72-7.1.98,7.19,1.62,13.71,2.09,20.45l3.63-13.36ZM786.95,483.87c-2.15-5.11-3.3-10.09-6.24-13.54-5.05-5.93-11.8-10.2-18.41-14.06-1.16,4.93,1.88,8.7,5.35,11.58l19.31,16.02ZM850.36,448.99c2.23-6.48-1.24-15.95-4.82-20.71-1.85-1.26-6.18.34-7.21,2.39l12.04,18.32ZM787.23,455.54c-1.73-.79-4.54-1.46-6.31-1.55,2.3,10.64,5.88,18.95,9.85,27.81,1.76-9.29.12-17.38-3.54-26.26ZM829.33,477.09c-2.98-9.24-4.91-16.53-5.95-25.28-1.87-2.27-4.12-3.83-7.34-5.14-1.73,5.17-2.74,9.53-3.7,14.99,5.21,6.18,10.2,11.63,17,15.43ZM832.54,444.34c-1.71-.57-4.7-.99-6.75-.28.07,3.74,1.22,7.02,2.46,9.83.66-4.15,1.09-7.16,4.3-9.55ZM778.99,484.06c-5.88-6.38-16.25-12.12-23.76-8.87,3.4,4.25,8.28,6.72,13.49,7.44l10.27,1.43ZM852.08,460.73l-2.38-3.22c-3.47-4.7-8.44-8.38-13.42-12.18l6.99,17.69,8.8-2.29ZM849.06,493.99c.72-5-.77-9.02-2.54-13.35l-12.22-29.93c-1.49,1.39-2.7,4.17-2.41,6.11,3.44,23.17-.05,24.07,17.17,37.16ZM866.87,471.17c-4.74-16.95,8.83-18.48-.63-27.39-3.37,6.24-5.35,11.85-6.97,18.31l7.6,9.09ZM821.96,479.45l-8.99-8.65c-2.23-2.42-6.08-3.99-8.38-2.09l6.19,9.67c3.02.92,8.13,1.26,11.18,1.08ZM803.82,489.91c.24-3.7.87-5.03,3.15-7.27,1.01-1.96-1.52-6.23-4.01-7.98-3.57,7.35-5.36,15.35-6.18,23.53l4.38,4.05c.59-4.26,2.4-8.31,2.67-12.33ZM863.16,474.03c-1.31-6.05-12.75-7.37-17.12-4.61l3.84,8.24c.87-3.72,1.55-7.31,5.55-8.56,3.44-1.07,4.22,6.03,7.73,4.93ZM806.56,515.35c-5.94-8.58-14.8-16.03-22.77-20.99-.85-.53-4.14.55-3.91,1.43,1.37,5.04,17.78,13.7,23.13,16.61,1.01,1.23,2.8,3.1,3.55,2.95ZM844.32,497.2c-4.78-5.06-8.91-8.67-13.49-12.21-6.71,2.94-12.87,2.27-19.54-.21-1.43,8.79,26.31,15.92,33.03,12.42ZM880.23,485.78l2.85-15.59c1.36-3.42,1.3-6.99-2-9.86-2.02,3.25-5.36,7.25-5.7,11.29-.43,5.02.47,10.73,4.86,14.16ZM860.83,506.53c4.22-9.46-.31-22.15-3.24-30.64-2.68.52-3.65,3.13-3.61,5.44l.34,18.62c.05,2.71,3.92,6.08,6.51,6.59ZM819.35,523.14c-1-13.38,2.68-16.25-7.69-24.81-1.48,8.99,1.06,11.01,1.15,19.74l6.54,5.07ZM877.5,497.19c.86-3.92-.57-7.72-3.25-10.97l-3.76-4.56-7.32-1.04,2.3,8.76c4.11-4.48,9.91,3.61,12.02,7.82ZM940.32,530.99l8.37,5.14c-5.96-11.29-4.8-18.36-3.13-30.43l-4.44-13.18c-2.18-6.48,1.25-11.62,6.73-14.43,15.17-7.78,19.53-10.04,29.7-23.65,2.28-3.05,5.32-4.51,9.19-3.52,9.32,2.39,17.93,5.69,26.86,9.3-6.74-7.36-17.25-19.91-26.64-22.42-28,3.98-28.19,15.44-36.45,19.49-6.81,3.33-11.55,7.53-16.84,12.49-4.05,3.8-8.21,6.22-9.05,12.61-1.09,8.33-1.54,16.83-1.36,26.19,3.14-1.71,3.45-4.68,4.08-7.75l2.39-11.55c1.53-7.39,5.27-13.68,11.54-18.25l23.66-17.24c-2.05,6.91-7.37,10.55-12.59,14.73-7.97,6.39-15.51,13.53-17.84,24.09-.9,4.09-.61,11.34,1.07,15.21,3.42,7.88,6.62,14.84,4.75,23.17ZM843.52,541.73c-3.3-10.01-5.25-18.82-3.03-28.56-5.33-1.02-9.32-3.59-10.45-8.79l-6.66-2.44.54,9.79c12.55-8.83,15.29,26.49,19.6,30.01ZM890.87,496.46l3.48-9.35c1.43-3.86,2.1-7.7,2.01-11.38l-8.12,10.67c-2.52,3.31-.82,7.5,2.64,10.06ZM911.6,487.96l2.09-9.97c.4-1.88-2.87-5.22-4.65-4.92-1.78,3.6-2.56,12.99,2.56,14.89ZM846.79,504.07l-6.38,2.04c4.02.38,7.6.37,11.82-.2-.87-2.42-3.22-2.55-5.44-1.84ZM825.88,535.51c-5.16-4.98-9.2-8.26-14.02-12.07-4.47-1.67-9.38-2.34-13.99.12-1.4.75-2.52,3.75-3.11,6.19,10.67,2.59,20.62,4.42,31.12,5.77ZM876.2,519.25l-1.21-12.43c-.41-4.2-1.27-8.3-4.59-11.23-1.81,6.47-2.67,12.76-1.36,19.09l7.16,4.57ZM833.83,540.17l4.68.49-5.12-17.84c-.48-1.68-2.6-4.83-3.9-5.65-9.9,3.04,3.78,16.33,4.34,23ZM891.4,532.37c.94-3.23,2.04-7.34,2.32-10.3-3.1-9.55-7.26-17.65-13.66-25.32-5.4,7.34,6.24,31.94,11.34,35.61ZM898.47,504.33c3-3.37,4.25-7.35.54-11.37-1.11,1.14-2.49,3.58-3.01,5.31-.63,2.07.94,4.41,2.48,6.07ZM861.4,517.38c-.61-2.27-3.07-3.82-5.2-3.69l-10.98.71,6.4,7.43,9.78-4.45ZM858.22,548.83c-1.68-5.47-2.75-9.78-3.26-15.11l-10.91-13.08c-2.25,6.04,1.86,17.21,3.64,22.48l10.52,5.72ZM914.5,523.75c-.69-11.51,1.17-20.05-6.06-25.72l-1.77,5.76c-1.66,5.41-1.75,9.24,1.71,14.15,1.65,2.33,3.01,5,6.13,5.81ZM897.99,514.25l-5.92-7.22,4.97,11.78c.87-.67,1.73-3.61.95-4.56ZM861.84,544.89c-.58-5.69-1.04-10.86.88-15.89l10.69-2.55-5.88-3.92-10.53,5.85c3.59,7.6,1.09,10.8,4.83,16.51ZM856.84,554.39c-9.66-6.63-20.23-8.67-30.93-7.13,2.54,2.7,5.24,5.31,7.66,7.28,7.92,1.04,15.52,1.01,23.26-.15ZM910.93,548.93l-5.28-24.31c-.32-1.45-1.79-3.38-3.09-4.33-2.29,7.64-1.88,14.66-.04,21.97l8.41,6.67ZM872.49,553.38c-1.23-3.02,3.91-5.97-6.59-16.97-1.73,7.7,1.2,14.67,3.78,21.77l5.3,1.33-2.49-6.14ZM881.78,531.99c-2.39.12-5.31,1.41-6.84,2.23,3.95,4.13,9.04,3.38,13.5,2.81-1.75-1.81-4.76-5.14-6.67-5.04ZM929.3,550.63c.23.1,1.85.82,1.84.81-.01-.02.14-1.47.09-1.9-2.72-20.32,10.15-27.06-.09-35.78-2.45,5.05-4.37,8.97-6.86,13.38-1.39,2.46.06,4.65.86,7.69l4.17,15.8ZM897.96,538.56l-.93-5.79c-.81,1.86-1.1,4.29.93,5.79ZM905.45,555.5l-10.38-11.26-11.61.89c-2.43.19-5.75-2.03-8.23-3.2l2.56,9.78c11.66,7.19,13.64,9.06,27.66,3.79ZM922.31,557.51c7.04-2.95-1.33-22.46-4.01-26.68-2.56,1.59-5.51,5.05-5.25,8.09.37,4.31,1.47,9.67,2.8,13.67.61,1.85,4.7,4.35,6.46,4.92ZM871.97,564.86c-10.31-3.66-11.25-2.77-19.76,4.34,6.72,4.08,13.91-.44,19.76-4.34ZM901.84,571.64l-2.79-5.26c-3.5.37-8.36.78-11.28-1.25l-8.36-5.8c-.36,1.05.08,3.63,1.14,4.06l15.65,6.33c2.08.84,3.86,1.47,5.64,1.92ZM944.68,550.67l3.62-8.42c-2.39-1.92-4.78-3.59-7.23-5.14l-2.23,6.97,5.84,6.59ZM954.78,575.22l2.35-3.66-20.55-23.86.47,10.61,17.73,16.91ZM912.37,561.72l-8.82,3.85c4.56,1.62,7.75,1.25,12.27.11l-3.45-3.95ZM947.26,580.37c.72.64,3.67-.89,3.46-1.57s-.74-2.31-1.31-2.84l-20.09-18.54-1.84,5.27,19.78,17.68ZM972.42,566.71c-6.68-5.81-13.28-12.43-21.4-18.39-1.2.91,18.92,22.51,21.4,18.39ZM961.56,566.77l-13.24-12.77c-.3,2.98,11.65,14.01,13.12,14.85.31.18.57-1.65.12-2.09ZM935.51,581.25c-4.98-4.35-9.07-7.49-13.29-10.21l-10.92,3.19,16.54,7.17c2.01.87,5.74.64,7.68-.15ZM925.18,587.51c-8.82-4.97-27.68,6.04-34.17,13.3-5.71,6.38-10.36,13.6-14.39,20.91-3.19,5.78-3.61,11.7-2.63,18.08l2.49,16.21c.11.69-.86,2.95-1.43,2.61-.43-.26-1.61-1.26-1.7-1.86l-2.93-18.95c-1.07-6.91-.1-13.22,2.98-19.4,3.59-7.22,8.05-14.03,13.03-20.5,6.18-8.03,14.67-12.72,23.36-15.83-8.16-3.84-14.68-2.47-20.9,2.46-6.67,5.28-12.14,11.71-17.11,18.73l-13.53,19.13c-1.06,11.46,15.73,40.48,22.78,50.33,5.19,7.25,12.27,12.4,18.48,18.39l-17.39-30.03c-3.57-6.17,3.91-22.78,7.79-28.61,8.76-13.19,4.48-21.31,13.89-36.01,6.64-10.38,12.68-6.24,21.4-8.98ZM986.53,606.8c1.58,1.01,6.13-1.41,5.96-3.14-.87-8.64.24-16.68,3.29-24.25-1.67-2.1-3.21-4.52-4.22-6.11-3.78-2.77-9.81-.12-12.83,2.21,2.36,9.18-1.41,17.46-8.29,23.37l7.81,3.83.04-6.11c2.16,4.12,4.15,7.59,8.24,10.19ZM1000.29,613.19c5.5.11,7.95-4.56,8.15-9.12.21-4.86,4.27-9.61,3.95-14.68-.93-4.19-6.8-6.95-10.78-7.73-2.09,6.49-3.6,12.8-3.61,19.39,0,3.48-.33,6-1.63,9.29.24.53,2.79,2.82,3.93,2.84ZM964.34,607.52l-1.5-4.26c-.43.7-1.2,2.19-.74,2.54l2.24,1.71ZM1076.85,713.62c-4.37-4.42-7.06-7.67-9.49-12.25-6.78-12.8-14.34-24.62-23.54-35.83-5.01-6.1-9.4-12.59-15.1-17.96-7.2-6.79-13.88-13.72-21.37-20.01-9.34-7.85-21.18-12.16-30.55-18.42l1.63,6.51c15.98,12.57,25.34,14.23,39.5,31.67,20.65,25.45,35.05,48.45,56.22,74.78l2.7-8.48ZM1017.42,625.18c3.83-3.55,5.8-7.41,7.8-11.7,1.84-3.95,5.32-7.98,3.8-12.8-2.33-2.22-6.68-4.47-9.98-5.96l-6.17,12.58c-1.98,4.04-2.45,8.14-7.07,10.32l2.45,1.94c.38.3,1.02-.94,1.69-1.98l7.48,7.6ZM1058.69,731.18c5.55.15,9.62-1.92,12.26-5.81l-24.14-32.44-30.6-40.88c-6.61-8.83-14.91-15.52-23.72-21.08-.71,3.36.81,5.09,3.2,7.02,9.45,7.59,15.98,17.67,22.48,27.94,7.74,9.5,16.05,18.31,21.75,29.25l18.77,36ZM1079.29,709.07c2.44-2.83,4.35-6.07,4.34-9.06-6.17-6.78-11.53-13.19-17.05-20.24-7.53-9.63-36.39-44.99-44.71-49.59-.4-.22-1.77,1.64-1.29,2.12l20.46,20.7c9.32,9.43,16.84,19.64,22.33,31.42l4.29,9.21c2.84,6.1,6.55,10.9,11.64,15.45Z"/>
      <g class="cls-5">
        <path class="cls-4" d="M273.48,215.25c1.31-.62,3.04.88,3.67,2.15.94-5.32,19.2-25.76,8.97-30.1-4.81-2.04-8.41,1.42-11.27,5.01-10.9,13.68-13.48,9.34-24.44,18.45l-3.25,1.49-1,12.05-1.86,15.4c-.5,4.1,2.17,5.33,5.31,6.63,21.34,8.8,25.98,16.9,29.26,40.09,1.76,12.4,5.19,23.66,8.23,35.73,3.01,11.94,5.82,23.33,9.56,35.17,3.08,9.75,6.2,20.14,8.14,30.18-2.46,1.51-3.48,2.84-4.63,5.84-4.54,2.81-11.4-29.31-12.49-33.93-4.67-19.77-8.53-38.9-11.87-58.93-1.26-7.54-7.69-22.52-13.97-27.55-12.49-9.99-26.76-12.98-26.35-28.57.1-3.82-.22-7.45-.41-11.75-.11-2.58,1.33-6.94,1.72-9.88l1.73-12.92c-13.5-2.83-19.62,12.68-21.72,23.49-3.94,20.27-11.21,17.87-14.92,39.27,6.82,13.14,14.44,24.76,22.22,37.32,1.53,2.46,1.49,6.55,1.27,9.75l-22.85-20.72c-7.35-6.66-12.1-15.15-16.91-23.91-5.07-9.25-19.82-37.12-13.38-46.41l12.64-18.23c6.18-8.91,13.23-16.42,21.93-22.68-13.91-6.48-11.39-4.92-21.17.69-6.54,3.75-14.6,4.05-19.78-1.8-2.98-3.36-.91-7.91,2.22-10.81l-12.74-.2c-3.51-.05-6.49-1.82-9.01-4.09l-7.95-7.18c-2.72-2.46-2.74-6.12.23-8.73l-24.38-4.61c-5.73-1.08-7.76-6.31-6.46-11.5,1.06-4.26,3.08-7.69,6.93-9.69-7.46-5.06-27.67-14.25-21.36-25.73-14.11-2.27-20.26-4.37-27.94-16.97,3.05-4.44,7.91-4.62,12.88-4.78-4.6-9.21-19.35-10.22-15.94-23.79,4.92-1.67,10.55-3.02,16.67-4.28l-8.17-4.26c-1.04-.54-2.34-2.84-2.4-3.97s1.09-3.62,2.24-4.23l8.73-4.62c1.26-.67,4.35-.27,5.78.01l-5.04-10.12c-1.3-2.62-.55-6.15,1.68-7.67,7.91-5.42,16.78,8.13,19.65,14.58,3.11,7,3.84,14.57,5.26,22.22.14-5.89.41-11.89.99-18.2l-18.56-24.23c-2.11-2.76-3.76-7.34-3.51-10.38.07-.91,2.27-2.66,3.06-2.4l3.7,1.21c-3.62-4.23-9.42-7.22-11-13.06-1.3-4.79-5.09-27.25-1.8-29.77,3.6-2.75,10.76,12.61,13.03,15.68l-1.49-18.93c-.19-2.41.85-6.23,3.17-7.23,1.53-.66,4.27,1.87,5,3.41,3.95,8.46,4.67,17.39,4.12,26.54,2.58-2.9,8.28-7.76,11.16-7.38,4.37.58,6.64,13.39,5.65,19.42-.46,2.78.05,3.86,1.54,6.11,4.5,6.81,2.24,14.54-.49,21.63-1.39,12.06-1.54,11.22,6.35,20.78l-1.05-9.13c-.1-.91.31-2.72.71-3.4.48-.82,3.12-1.22,4.06-.7l9.02,4.99c-1.59-6.38-2.1-12.02-.87-18.54,7.52,4.93,12.84,11.61,16.68,18.56,1.01-1.21,2.08-2.31,3.28-3.12,5.52,7.46,10.1,14.7,13.2,23.28,1.53,4.24-.11,8.56-.22,13.89,3.78-5.77,6.01-12.04,6.49-19.75,12.05,8.63,13.58,17.32,11.62,29.44l7.76-10.72c5.06,4.4,7.4,9.95,7.36,16.11l-.06,8.6,5.95-6.67c.55-.61,2.37-1.46,3.06-1.16,3.33,1.42,2.3,11.87,2.38,16.94.04,2.57,3.2,6.55,5.2,8.36-.21-4.95-5.05-30.96,5.15-24.86,6.45,3.86,8.16,10.94,6.3,18.05-1.6,6.13-2.6,12.45,1.38,18.48.12-7.93-.7-31.04,5.24-36.16,18.06-8.88,18.42-5.29,31.09-20.26,4.15-4.9,8.24-9.45,14.16-12.6,11.72-6.24,15.93-2.56,27.3,1.55,10.63,7.67,18.47,17.68,26.45,28.52-19.16.07-23.82-4.3-40.15-7.48-4.39,2.37-6.84,7.11-9.67,10.93-3.17,4.28-8.85,6.23-13.17,9.36l-11.25,8.15c-1.33.97-.76,4.9,0,6.31,7.87,14.68,1.22,29.81,4.53,39.47,2.46,7.16,5.94,14.3,10.45,20.26,3.43,4.55,8.79,8.15,12.99,11.67,9.35-4.13,16.81-5.03,23.13,4.86l10.87,1.47c10.16,1.38,8.69,9.69,13.32,17.55,10.18,4.47,14.74,13.61,13.96,24.29-.39,5.39-1.9,10.38-6.94,13.98l32.86,35.89c7.36,8.04,14.28,15.65,22.37,22.88,6.63,5.93,12.32,22.58.94,29.88-5.78,3.7-1.19,12.59-4.3,16.81-3.36,4.56-7.77,7.9-12.44,11.17-2.61,1.83-13.83,3.74-16.31.99l-1.03,2.26c-1.95,4.27-20.45-36.09-22.06-40.15-7.51-18.9-19.65-49.42-36.75-58.81-1.07,2.88-2.09,5.4-3.09,7.29-9.04-3.2,3.88-10.65-14.22-29.41-4.84-5.02-9.26-8.89-16.17-11.5-1.94-3.01-3.25-8.02-3.71-11.94ZM97.65-19.21c2.4-8.79,3.23-17.72-1.94-24.69-.6,9.08.75,17.31,1.94,24.69ZM97.6-.81c-1.03-9.11-8.85-23.32-14.9-32.51.08,7.1.69,13.86,2.35,21.15L97.6-.81ZM102.06-1.66c4.65-4.29,17.8-9.81,13.09-17.9-3.37,1.02-14.82,11.96-14.78,13.34.02.89.9,2.83,1.69,4.56ZM118.65,35.59l-6.93-11.35c-6.08-5.16-11.54-10.16-18.82-14.13,8.02,11.38,13.71,21.88,25.75,25.49ZM116.48,23.41c-.9-6.61.38-12.44,3.22-19.27-4.76.21-10.81,4.11-9,9.63,1.03,3.13,3.63,6.53,5.78,9.63ZM84.82,27.62c5.16,9.89,10.23,18.92,16.98,27.31,2.01-9.19-8.16-34.35-16.98-27.31ZM80.87,46.78c4.47,2.98,8.93,5.3,14.1,6.85-2.61-4.34-8.75-10.85-14.1-6.85ZM143.96,51.17l11.46,3.57c-6.05-8.14-14.76-18.94-24.7-22.38.93,14.72,4.25,10.89,9.83,15.81l3.4,3ZM120.9,66.75c.51-12.57,2.15-19.16-8.63-24.79-1.53,6.4-2.32,12.36-.56,18.63,2.68,2.18,6.12,4.41,9.19,6.16ZM151.98,37.85c-1.2-3.2-3.28-5.82-5.42-7.53,1.05,3.84,1.44,7.03,5.42,7.53ZM77.38,63.69c7.54,2.82,12.43,7.99,18.24,12.1-.38-3.5-1.21-8.43-3.88-10.37-7.15-5.18-17.24-4.65-24.09.62,2.3,1.97,4.57,2.93,6.77,3.34-.16-2,1.11-6.38,2.96-5.68ZM129.63,52.68c.78-2.88-3.12-6.79-5.72-7.1.98,7.19,1.62,13.71,2.09,20.45l3.63-13.36ZM103.72,98.07c-2.15-5.11-3.3-10.09-6.24-13.54-5.05-5.93-11.8-10.2-18.41-14.06-1.16,4.93,1.88,8.7,5.35,11.58l19.31,16.02ZM167.14,63.19c2.23-6.48-1.24-15.95-4.82-20.71-1.85-1.26-6.18.34-7.21,2.39l12.04,18.32ZM104,69.73c-1.73-.79-4.54-1.46-6.31-1.55,2.3,10.64,5.88,18.95,9.85,27.81,1.76-9.29.12-17.38-3.54-26.26ZM146.1,91.29c-2.98-9.24-4.91-16.53-5.95-25.28-1.87-2.27-4.12-3.83-7.34-5.14-1.73,5.17-2.74,9.53-3.7,14.99,5.21,6.18,10.2,11.63,17,15.43ZM149.31,58.54c-1.71-.57-4.7-.99-6.75-.28.07,3.74,1.22,7.02,2.46,9.83.66-4.15,1.09-7.16,4.3-9.55ZM95.76,98.26c-5.88-6.38-16.25-12.12-23.76-8.87,3.4,4.25,8.28,6.72,13.49,7.44l10.27,1.43ZM168.85,74.93l-2.38-3.22c-3.47-4.7-8.44-8.38-13.42-12.18l6.99,17.69,8.8-2.29ZM165.84,108.19c.72-5-.77-9.02-2.54-13.35l-12.22-29.93c-1.49,1.39-2.7,4.17-2.41,6.11,3.44,23.17-.05,24.07,17.17,37.16ZM183.64,85.37c-4.74-16.95,8.83-18.48-.63-27.39-3.37,6.24-5.35,11.85-6.97,18.31l7.6,9.09ZM138.74,93.65l-8.99-8.65c-2.23-2.42-6.08-3.99-8.38-2.09l6.19,9.67c3.02.92,8.13,1.26,11.18,1.08ZM120.59,104.11c.24-3.7.87-5.03,3.15-7.27,1.01-1.96-1.52-6.23-4.01-7.98-3.57,7.35-5.36,15.35-6.18,23.53l4.38,4.05c.59-4.26,2.4-8.31,2.67-12.33ZM179.93,88.23c-1.31-6.05-12.75-7.37-17.12-4.61l3.84,8.24c.87-3.72,1.55-7.31,5.55-8.56,3.44-1.07,4.22,6.03,7.73,4.93ZM123.33,129.55c-5.94-8.58-14.8-16.03-22.77-20.99-.85-.53-4.14.55-3.91,1.43,1.37,5.04,17.78,13.7,23.13,16.61,1.01,1.23,2.8,3.1,3.55,2.95ZM161.09,111.39c-4.78-5.06-8.91-8.67-13.49-12.21-6.71,2.94-12.87,2.27-19.54-.21-1.43,8.79,26.31,15.92,33.03,12.42ZM197,99.98l2.85-15.59c1.36-3.42,1.3-6.99-2-9.86-2.02,3.25-5.36,7.25-5.7,11.29-.43,5.02.47,10.73,4.86,14.16ZM177.6,120.73c4.22-9.46-.31-22.15-3.24-30.64-2.68.52-3.65,3.13-3.61,5.44l.34,18.62c.05,2.71,3.92,6.08,6.51,6.59ZM136.13,137.33c-1-13.38,2.68-16.25-7.69-24.81-1.48,8.99,1.06,11.01,1.15,19.74l6.54,5.07ZM194.27,111.39c.86-3.92-.57-7.72-3.25-10.97l-3.76-4.56-7.32-1.04,2.3,8.76c4.11-4.48,9.91,3.61,12.02,7.82ZM257.09,145.19l8.37,5.14c-5.96-11.29-4.8-18.36-3.13-30.43l-4.44-13.18c-2.18-6.48,1.25-11.62,6.73-14.43,15.17-7.78,19.53-10.04,29.7-23.65,2.28-3.05,5.32-4.51,9.19-3.52,9.32,2.39,17.93,5.69,26.86,9.3-6.74-7.36-17.25-19.91-26.64-22.42-28,3.98-28.19,15.44-36.45,19.49-6.81,3.33-11.55,7.53-16.84,12.49-4.05,3.8-8.21,6.22-9.05,12.61-1.09,8.33-1.54,16.83-1.36,26.19,3.14-1.71,3.45-4.68,4.08-7.75l2.39-11.55c1.53-7.39,5.27-13.68,11.54-18.25l23.66-17.24c-2.05,6.91-7.37,10.55-12.59,14.73-7.97,6.39-15.51,13.53-17.84,24.09-.9,4.09-.61,11.34,1.07,15.21,3.42,7.88,6.62,14.84,4.75,23.17ZM160.3,155.93c-3.3-10.01-5.25-18.82-3.03-28.56-5.33-1.02-9.32-3.59-10.45-8.79l-6.66-2.44.54,9.79c12.55-8.83,15.29,26.49,19.6,30.01ZM207.64,110.65l3.48-9.35c1.43-3.86,2.1-7.7,2.01-11.38l-8.12,10.67c-2.52,3.31-.82,7.5,2.64,10.06ZM228.37,102.16l2.09-9.97c.4-1.88-2.87-5.22-4.65-4.92-1.78,3.6-2.56,12.99,2.56,14.89ZM163.56,118.27l-6.38,2.04c4.02.38,7.6.37,11.82-.2-.87-2.42-3.22-2.55-5.44-1.84ZM142.65,149.71c-5.16-4.98-9.2-8.26-14.02-12.07-4.47-1.67-9.38-2.34-13.99.12-1.4.75-2.52,3.75-3.11,6.19,10.67,2.59,20.62,4.42,31.12,5.77ZM192.97,133.45l-1.21-12.43c-.41-4.2-1.27-8.3-4.59-11.23-1.81,6.47-2.67,12.76-1.36,19.09l7.16,4.57ZM150.6,154.36l4.68.49-5.12-17.84c-.48-1.68-2.6-4.83-3.9-5.65-9.9,3.04,3.78,16.33,4.34,23ZM208.17,146.57c.94-3.23,2.04-7.34,2.32-10.3-3.1-9.55-7.26-17.65-13.66-25.32-5.4,7.34,6.24,31.94,11.34,35.61ZM215.24,118.53c3-3.37,4.25-7.35.54-11.37-1.11,1.14-2.49,3.58-3.01,5.31-.63,2.07.94,4.41,2.48,6.07ZM178.17,131.58c-.61-2.27-3.07-3.82-5.2-3.69l-10.98.71,6.4,7.43,9.78-4.45ZM174.99,163.03c-1.68-5.47-2.75-9.78-3.26-15.11l-10.91-13.08c-2.25,6.04,1.86,17.21,3.64,22.48l10.52,5.72ZM231.27,137.95c-.69-11.51,1.17-20.05-6.06-25.72l-1.77,5.76c-1.66,5.41-1.75,9.24,1.71,14.15,1.65,2.33,3.01,5,6.13,5.81ZM214.76,128.45l-5.92-7.22,4.97,11.78c.87-.67,1.73-3.61.95-4.56ZM178.62,159.09c-.58-5.69-1.04-10.86.88-15.89l10.69-2.55-5.88-3.92-10.53,5.85c3.59,7.6,1.09,10.8,4.83,16.51ZM173.61,168.59c-9.66-6.63-20.23-8.67-30.93-7.13,2.54,2.7,5.24,5.31,7.66,7.28,7.92,1.04,15.52,1.01,23.26-.15ZM227.7,163.12l-5.28-24.31c-.32-1.45-1.79-3.38-3.09-4.33-2.29,7.64-1.88,14.66-.04,21.97l8.41,6.67ZM189.26,167.58c-1.23-3.02,3.91-5.97-6.59-16.97-1.73,7.7,1.2,14.67,3.78,21.77l5.3,1.33-2.49-6.14ZM198.55,146.19c-2.39.12-5.31,1.41-6.84,2.23,3.95,4.13,9.04,3.38,13.5,2.81-1.75-1.81-4.76-5.14-6.67-5.04ZM246.07,164.83c.23.1,1.85.82,1.84.81-.01-.02.14-1.47.09-1.9-2.72-20.32,10.15-27.06-.09-35.78-2.45,5.05-4.37,8.97-6.86,13.38-1.39,2.46.06,4.65.86,7.69l4.17,15.8ZM214.73,152.76l-.93-5.79c-.81,1.86-1.1,4.29.93,5.79ZM222.22,169.69l-10.38-11.26-11.61.89c-2.43.19-5.75-2.03-8.23-3.2l2.56,9.78c11.66,7.19,13.64,9.06,27.66,3.79ZM239.09,171.71c7.04-2.95-1.33-22.46-4.01-26.68-2.56,1.59-5.51,5.05-5.25,8.09.37,4.31,1.47,9.67,2.8,13.67.61,1.85,4.7,4.35,6.46,4.92ZM188.74,179.06c-10.31-3.66-11.25-2.77-19.76,4.34,6.72,4.08,13.91-.44,19.76-4.34ZM218.61,185.84l-2.79-5.26c-3.5.37-8.36.78-11.28-1.25l-8.36-5.8c-.36,1.05.08,3.63,1.14,4.06l15.65,6.33c2.08.84,3.86,1.47,5.64,1.92ZM261.45,164.87l3.62-8.42c-2.39-1.92-4.78-3.59-7.23-5.14l-2.23,6.97,5.84,6.59ZM271.55,189.42l2.35-3.66-20.55-23.86.47,10.61,17.73,16.91ZM229.14,175.91l-8.82,3.85c4.56,1.62,7.75,1.25,12.27.11l-3.45-3.95ZM264.03,194.57c.72.64,3.67-.89,3.46-1.57s-.74-2.31-1.31-2.84l-20.09-18.54-1.84,5.27,19.78,17.68ZM289.19,180.91c-6.68-5.81-13.28-12.43-21.4-18.39-1.2.91,18.92,22.51,21.4,18.39ZM278.33,180.97l-13.24-12.77c-.3,2.98,11.65,14.01,13.12,14.85.31.18.57-1.65.12-2.09ZM252.28,195.45c-4.98-4.35-9.07-7.49-13.29-10.21l-10.92,3.19,16.54,7.17c2.01.87,5.74.64,7.68-.15ZM241.95,201.71c-8.82-4.97-27.68,6.04-34.17,13.3-5.71,6.38-10.36,13.6-14.39,20.91-3.19,5.78-3.61,11.7-2.63,18.08l2.49,16.21c.11.69-.86,2.95-1.43,2.61-.43-.26-1.61-1.26-1.7-1.86l-2.93-18.95c-1.07-6.91-.1-13.22,2.98-19.4,3.59-7.22,8.05-14.03,13.03-20.5,6.18-8.03,14.67-12.72,23.36-15.83-8.16-3.84-14.68-2.47-20.9,2.46-6.67,5.28-12.14,11.71-17.11,18.73l-13.53,19.13c-1.06,11.46,15.73,40.48,22.78,50.33,5.19,7.25,12.27,12.4,18.48,18.39l-17.39-30.03c-3.57-6.17,3.91-22.78,7.79-28.61,8.76-13.19,4.48-21.31,13.89-36.01,6.64-10.38,12.68-6.24,21.4-8.98ZM303.3,221c1.58,1.01,6.13-1.41,5.96-3.14-.87-8.64.24-16.68,3.29-24.25-1.67-2.1-3.21-4.52-4.22-6.11-3.78-2.77-9.81-.12-12.83,2.21,2.36,9.18-1.41,17.46-8.29,23.37l7.81,3.83.04-6.11c2.16,4.12,4.15,7.59,8.24,10.19ZM317.07,227.39c5.5.11,7.95-4.56,8.15-9.12.21-4.86,4.27-9.61,3.95-14.68-.93-4.19-6.8-6.95-10.78-7.73-2.09,6.49-3.6,12.8-3.61,19.39,0,3.48-.33,6-1.63,9.29.24.53,2.79,2.82,3.93,2.84ZM281.12,221.72l-1.5-4.26c-.43.7-1.2,2.19-.74,2.54l2.24,1.71ZM393.62,327.82c-4.37-4.42-7.06-7.67-9.49-12.25-6.78-12.8-14.34-24.62-23.54-35.83-5.01-6.1-9.4-12.59-15.1-17.96-7.2-6.79-13.88-13.72-21.37-20.01-9.34-7.85-21.18-12.16-30.55-18.42l1.63,6.51c15.98,12.57,25.34,14.23,39.5,31.67,20.65,25.45,35.05,48.45,56.22,74.78l2.7-8.48ZM334.19,239.38c3.83-3.55,5.8-7.41,7.8-11.7,1.84-3.95,5.32-7.98,3.8-12.8-2.33-2.22-6.68-4.47-9.98-5.96l-6.17,12.58c-1.98,4.04-2.45,8.14-7.07,10.32l2.45,1.94c.38.3,1.02-.94,1.69-1.98l7.48,7.6ZM375.46,345.38c5.55.15,9.62-1.92,12.26-5.81l-24.14-32.44-30.6-40.88c-6.61-8.83-14.91-15.52-23.72-21.08-.71,3.36.81,5.09,3.2,7.02,9.45,7.59,15.98,17.67,22.48,27.94,7.74,9.5,16.05,18.31,21.75,29.25l18.77,36ZM396.06,323.26c2.44-2.83,4.35-6.07,4.34-9.06-6.17-6.78-11.53-13.19-17.05-20.24-7.53-9.63-36.39-44.99-44.71-49.59-.4-.22-1.77,1.64-1.29,2.12l20.46,20.7c9.32,9.43,16.84,19.64,22.33,31.42l4.29,9.21c2.84,6.1,6.55,10.9,11.64,15.45Z"/>
      </g>
      <path class="cls-3" d="M1778.86,971.26c1.31-.62,3.04.88,3.67,2.15.94-5.32,19.2-25.76,8.97-30.1-4.81-2.04-8.41,1.42-11.27,5.01-10.9,13.68-13.48,9.34-24.44,18.45l-3.25,1.49-1,12.05-1.86,15.4c-.5,4.1,2.17,5.33,5.31,6.63,21.34,8.8,25.98,16.9,29.26,40.09,1.76,12.4,5.19,23.66,8.23,35.73s5.82,23.33,9.56,35.17c3.08,9.75,6.2,20.14,8.14,30.18-2.46,1.51-3.48,2.84-4.63,5.84-4.54,2.81-11.4-29.31-12.49-33.93-4.67-19.77-8.53-38.9-11.87-58.93-1.26-7.54-7.69-22.52-13.97-27.55-12.49-9.99-26.76-12.98-26.35-28.57.1-3.82-.22-7.45-.41-11.75-.11-2.58,1.33-6.94,1.72-9.88l1.73-12.92c-13.5-2.83-19.62,12.68-21.72,23.49-3.94,20.27-11.21,17.87-14.92,39.27,6.82,13.14,14.44,24.76,22.22,37.32,1.53,2.46,1.49,6.55,1.27,9.75l-22.85-20.72c-7.35-6.66-12.1-15.15-16.91-23.91-5.07-9.25-19.82-37.12-13.38-46.41l12.64-18.23c6.18-8.91,13.23-16.42,21.93-22.68-13.91-6.48-11.39-4.92-21.17.69-6.54,3.75-14.6,4.05-19.78-1.8-2.98-3.36-.91-7.91,2.22-10.81l-12.74-.2c-3.51-.05-6.49-1.82-9.01-4.09l-7.95-7.18c-2.72-2.46-2.74-6.12.23-8.73l-24.38-4.61c-5.73-1.08-7.76-6.31-6.46-11.5,1.06-4.26,3.08-7.69,6.93-9.69-7.46-5.06-27.67-14.25-21.36-25.73-14.11-2.27-20.26-4.37-27.94-16.97,3.05-4.44,7.91-4.62,12.88-4.78-4.6-9.21-19.35-10.22-15.94-23.79,4.92-1.67,10.55-3.02,16.67-4.28l-8.17-4.26c-1.04-.54-2.34-2.84-2.4-3.97s1.09-3.62,2.24-4.23l8.73-4.62c1.26-.67,4.35-.27,5.78.01l-5.04-10.12c-1.3-2.62-.55-6.15,1.68-7.67,7.91-5.42,16.78,8.13,19.65,14.58,3.11,7,3.84,14.57,5.26,22.22.14-5.89.41-11.89.99-18.2l-18.56-24.23c-2.11-2.76-3.76-7.34-3.51-10.38.07-.91,2.27-2.66,3.06-2.4l3.7,1.21c-3.62-4.23-9.42-7.22-11-13.06-1.3-4.79-5.09-27.25-1.8-29.77,3.6-2.75,10.76,12.61,13.03,15.68l-1.49-18.93c-.19-2.41.85-6.23,3.17-7.23,1.53-.66,4.27,1.87,5,3.41,3.95,8.46,4.67,17.39,4.12,26.54,2.58-2.9,8.28-7.76,11.16-7.38,4.37.58,6.64,13.39,5.65,19.42-.46,2.78.05,3.86,1.54,6.11,4.5,6.81,2.24,14.54-.49,21.63-1.39,12.06-1.54,11.22,6.35,20.78l-1.05-9.13c-.1-.91.31-2.72.71-3.4.48-.82,3.12-1.22,4.06-.7l9.02,4.99c-1.59-6.38-2.1-12.02-.87-18.54,7.52,4.93,12.84,11.61,16.68,18.56,1.01-1.21,2.08-2.31,3.28-3.12,5.52,7.46,10.1,14.7,13.2,23.28,1.53,4.24-.11,8.56-.22,13.89,3.78-5.77,6.01-12.04,6.49-19.75,12.05,8.63,13.58,17.32,11.62,29.44l7.76-10.72c5.06,4.4,7.4,9.95,7.36,16.11l-.06,8.6,5.95-6.67c.55-.61,2.37-1.46,3.06-1.16,3.33,1.42,2.3,11.87,2.38,16.94.04,2.57,3.2,6.55,5.2,8.36-.21-4.95-5.05-30.96,5.15-24.86,6.45,3.86,8.16,10.94,6.3,18.05-1.6,6.13-2.6,12.45,1.38,18.48.12-7.93-.7-31.04,5.24-36.16,18.06-8.88,18.42-5.29,31.09-20.26,4.15-4.9,8.24-9.45,14.16-12.6,11.72-6.24,15.93-2.56,27.3,1.55,10.63,7.67,18.47,17.68,26.45,28.52-19.16.07-23.82-4.3-40.15-7.48-4.39,2.37-6.84,7.11-9.67,10.93-3.17,4.28-8.85,6.23-13.17,9.36l-11.25,8.15c-1.33.97-.76,4.9,0,6.31,7.87,14.68,1.22,29.81,4.53,39.47,2.46,7.16,5.94,14.3,10.45,20.26,3.43,4.55,8.79,8.15,12.99,11.67,9.35-4.13,16.81-5.03,23.13,4.86l10.87,1.47c10.16,1.38,8.69,9.69,13.32,17.55,10.18,4.47,14.74,13.61,13.96,24.29-.39,5.39-1.9,10.38-6.94,13.98l32.86,35.89c7.36,8.04,14.28,15.65,22.37,22.88,6.63,5.93,12.32,22.58.94,29.88-5.78,3.7-1.19,12.59-4.3,16.81-3.36,4.56-7.77,7.9-12.44,11.17-2.61,1.83-13.83,3.74-16.31.99l-1.03,2.26c-1.95,4.27-20.45-36.09-22.06-40.15-7.51-18.9-19.65-49.42-36.75-58.81-1.07,2.88-2.09,5.4-3.09,7.29-9.04-3.2,3.88-10.65-14.22-29.41-4.84-5.02-9.26-8.89-16.17-11.5-1.94-3.01-3.25-8.02-3.71-11.94ZM1603.02,736.8c2.4-8.79,3.23-17.72-1.94-24.69-.6,9.08.75,17.31,1.94,24.69ZM1602.97,755.2c-1.03-9.11-8.85-23.32-14.9-32.51.08,7.1.69,13.86,2.35,21.15l12.54,11.35ZM1607.43,754.34c4.65-4.29,17.8-9.81,13.09-17.9-3.37,1.02-14.82,11.96-14.78,13.34.02.89.9,2.83,1.69,4.56ZM1624.03,791.6l-6.93-11.35c-6.08-5.16-11.54-10.16-18.82-14.13,8.02,11.38,13.71,21.88,25.75,25.49ZM1621.85,779.41c-.9-6.61.38-12.44,3.22-19.27-4.76.21-10.81,4.11-9,9.63,1.03,3.13,3.63,6.53,5.78,9.63ZM1590.2,783.62c5.16,9.89,10.23,18.92,16.98,27.31,2.01-9.19-8.16-34.35-16.98-27.31ZM1586.25,802.79c4.47,2.98,8.93,5.3,14.1,6.85-2.61-4.34-8.75-10.85-14.1-6.85ZM1649.33,807.17l11.46,3.57c-6.05-8.14-14.76-18.94-24.7-22.38.93,14.72,4.25,10.89,9.83,15.81l3.4,3ZM1626.28,822.76c.51-12.57,2.15-19.16-8.63-24.79-1.53,6.4-2.32,12.36-.56,18.63,2.68,2.18,6.12,4.41,9.19,6.16ZM1657.35,793.85c-1.2-3.2-3.28-5.82-5.42-7.53,1.05,3.84,1.44,7.03,5.42,7.53ZM1582.76,819.7c7.54,2.82,12.43,7.99,18.24,12.1-.38-3.5-1.21-8.43-3.88-10.37-7.15-5.18-17.24-4.65-24.09.62,2.3,1.97,4.57,2.93,6.77,3.34-.16-2,1.11-6.38,2.96-5.68ZM1635,808.69c.78-2.88-3.12-6.79-5.72-7.1.98,7.19,1.62,13.71,2.09,20.45l3.63-13.36ZM1609.09,854.08c-2.15-5.11-3.3-10.09-6.24-13.54-5.05-5.93-11.8-10.2-18.41-14.06-1.16,4.93,1.88,8.7,5.35,11.58l19.31,16.02ZM1672.51,819.19c2.23-6.48-1.24-15.95-4.82-20.71-1.85-1.26-6.18.34-7.21,2.39l12.04,18.32ZM1609.38,825.74c-1.73-.79-4.54-1.46-6.31-1.55,2.3,10.64,5.88,18.95,9.85,27.81,1.76-9.29.12-17.38-3.54-26.26ZM1651.47,847.3c-2.98-9.24-4.91-16.53-5.95-25.28-1.87-2.27-4.12-3.83-7.34-5.14-1.73,5.17-2.74,9.53-3.7,14.99,5.21,6.18,10.2,11.63,17,15.43ZM1654.69,814.54c-1.71-.57-4.7-.99-6.75-.28.07,3.74,1.22,7.02,2.46,9.83.66-4.15,1.09-7.16,4.3-9.55ZM1601.13,854.27c-5.88-6.38-16.25-12.12-23.76-8.87,3.4,4.25,8.28,6.72,13.49,7.44l10.27,1.43ZM1674.22,830.93l-2.38-3.22c-3.47-4.7-8.44-8.38-13.42-12.18l6.99,17.69,8.8-2.29ZM1671.21,864.19c.72-5-.77-9.02-2.54-13.35l-12.22-29.93c-1.49,1.39-2.7,4.17-2.41,6.11,3.44,23.17-.05,24.07,17.17,37.16ZM1689.02,841.38c-4.74-16.95,8.83-18.48-.63-27.39-3.37,6.24-5.35,11.85-6.97,18.31l7.6,9.09ZM1644.11,849.66l-8.99-8.65c-2.23-2.42-6.08-3.99-8.38-2.09l6.19,9.67c3.02.92,8.13,1.26,11.18,1.08ZM1625.96,860.11c.24-3.7.87-5.03,3.15-7.27,1.01-1.96-1.52-6.23-4.01-7.98-3.57,7.35-5.36,15.35-6.18,23.53l4.38,4.05c.59-4.26,2.4-8.31,2.67-12.33ZM1685.31,844.23c-1.31-6.05-12.75-7.37-17.12-4.61l3.84,8.24c.87-3.72,1.55-7.31,5.55-8.56,3.44-1.07,4.22,6.03,7.73,4.93ZM1628.71,885.56c-5.94-8.58-14.8-16.03-22.77-20.99-.85-.53-4.14.55-3.91,1.43,1.37,5.04,17.78,13.7,23.13,16.61,1.01,1.23,2.8,3.1,3.55,2.95ZM1666.47,867.4c-4.78-5.06-8.91-8.67-13.49-12.21-6.71,2.94-12.87,2.27-19.54-.21-1.43,8.79,26.31,15.92,33.03,12.42ZM1702.38,855.99l2.85-15.59c1.36-3.42,1.3-6.99-2-9.86-2.02,3.25-5.36,7.25-5.7,11.29-.43,5.02.47,10.73,4.86,14.16ZM1682.97,876.74c4.22-9.46-.31-22.15-3.24-30.64-2.68.52-3.65,3.13-3.61,5.44l.34,18.62c.05,2.71,3.92,6.08,6.51,6.59ZM1641.5,893.34c-1-13.38,2.68-16.25-7.69-24.81-1.48,8.99,1.06,11.01,1.15,19.74l6.54,5.07ZM1699.65,867.4c.86-3.92-.57-7.72-3.25-10.97l-3.76-4.56-7.32-1.04,2.3,8.76c4.11-4.48,9.91,3.61,12.02,7.82ZM1762.47,901.19l8.37,5.14c-5.96-11.29-4.8-18.36-3.13-30.43l-4.44-13.18c-2.18-6.48,1.25-11.62,6.73-14.43,15.17-7.78,19.53-10.04,29.7-23.65,2.28-3.05,5.32-4.51,9.19-3.52,9.32,2.39,17.93,5.69,26.86,9.3-6.74-7.36-17.25-19.91-26.64-22.42-28,3.98-28.19,15.44-36.45,19.49-6.81,3.33-11.55,7.53-16.84,12.49-4.05,3.8-8.21,6.22-9.05,12.61-1.09,8.33-1.54,16.83-1.36,26.19,3.14-1.71,3.45-4.68,4.08-7.75l2.39-11.55c1.53-7.39,5.27-13.68,11.54-18.25l23.66-17.24c-2.05,6.91-7.37,10.55-12.59,14.73-7.97,6.39-15.51,13.53-17.84,24.09-.9,4.09-.61,11.34,1.07,15.21,3.42,7.88,6.62,14.84,4.75,23.17ZM1665.67,911.94c-3.3-10.01-5.25-18.82-3.03-28.56-5.33-1.02-9.32-3.59-10.45-8.79l-6.66-2.44.54,9.79c12.55-8.83,15.29,26.49,19.6,30.01ZM1713.02,866.66l3.48-9.35c1.43-3.86,2.1-7.7,2.01-11.38l-8.12,10.67c-2.52,3.31-.82,7.5,2.64,10.06ZM1733.74,858.16l2.09-9.97c.4-1.88-2.87-5.22-4.65-4.92-1.78,3.6-2.56,12.99,2.56,14.89ZM1668.93,874.28l-6.38,2.04c4.02.38,7.6.37,11.82-.2-.87-2.42-3.22-2.55-5.44-1.84ZM1648.03,905.71c-5.16-4.98-9.2-8.26-14.02-12.07-4.47-1.67-9.38-2.34-13.99.12-1.4.75-2.52,3.75-3.11,6.19,10.67,2.59,20.62,4.42,31.12,5.77ZM1698.34,889.45l-1.21-12.43c-.41-4.2-1.27-8.3-4.59-11.23-1.81,6.47-2.67,12.76-1.36,19.09l7.16,4.57ZM1655.97,910.37l4.68.49-5.12-17.84c-.48-1.68-2.6-4.83-3.9-5.65-9.9,3.04,3.78,16.33,4.34,23ZM1713.55,902.58c.94-3.23,2.04-7.34,2.32-10.3-3.1-9.55-7.26-17.65-13.66-25.32-5.4,7.34,6.24,31.94,11.34,35.61ZM1720.61,874.54c3-3.37,4.25-7.35.54-11.37-1.11,1.14-2.49,3.58-3.01,5.31-.63,2.07.94,4.41,2.48,6.07ZM1683.54,887.59c-.61-2.27-3.07-3.82-5.2-3.69l-10.98.71,6.4,7.43,9.78-4.45ZM1680.36,919.03c-1.68-5.47-2.75-9.78-3.26-15.11l-10.91-13.08c-2.25,6.04,1.86,17.21,3.64,22.48l10.52,5.72ZM1736.65,893.96c-.69-11.51,1.17-20.05-6.06-25.72l-1.77,5.76c-1.66,5.41-1.75,9.24,1.71,14.15,1.65,2.33,3.01,5,6.13,5.81ZM1720.13,884.46l-5.92-7.22,4.97,11.78c.87-.67,1.73-3.61.95-4.56ZM1683.99,915.1c-.58-5.69-1.04-10.86.88-15.89l10.69-2.55-5.88-3.92-10.53,5.85c3.59,7.6,1.09,10.8,4.83,16.51ZM1678.99,924.6c-9.66-6.63-20.23-8.67-30.93-7.13,2.54,2.7,5.24,5.31,7.66,7.28,7.92,1.04,15.52,1.01,23.26-.15ZM1733.07,919.13l-5.28-24.31c-.32-1.45-1.79-3.38-3.09-4.33-2.29,7.64-1.88,14.66-.04,21.97l8.41,6.67ZM1694.64,923.59c-1.23-3.02,3.91-5.97-6.59-16.97-1.73,7.7,1.2,14.67,3.78,21.77l5.3,1.33-2.49-6.14ZM1703.93,902.2c-2.39.12-5.31,1.41-6.84,2.23,3.95,4.13,9.04,3.38,13.5,2.81-1.75-1.81-4.76-5.14-6.67-5.04ZM1751.44,920.83c.23.1,1.85.82,1.84.81-.01-.02.14-1.47.09-1.9-2.72-20.32,10.15-27.06-.09-35.78-2.45,5.05-4.37,8.97-6.86,13.38-1.39,2.46.06,4.65.86,7.69l4.17,15.8ZM1720.11,908.77l-.93-5.79c-.81,1.86-1.1,4.29.93,5.79ZM1727.6,925.7l-10.38-11.26-11.61.89c-2.43.19-5.75-2.03-8.23-3.2l2.56,9.78c11.66,7.19,13.64,9.06,27.66,3.79ZM1744.46,927.72c7.04-2.95-1.33-22.46-4.01-26.68-2.56,1.59-5.51,5.05-5.25,8.09.37,4.31,1.47,9.67,2.8,13.67.61,1.85,4.7,4.35,6.46,4.92ZM1694.12,935.06c-10.31-3.66-11.25-2.77-19.76,4.34,6.72,4.08,13.91-.44,19.76-4.34ZM1723.99,941.84l-2.79-5.26c-3.5.37-8.36.78-11.28-1.25l-8.36-5.8c-.36,1.05.08,3.63,1.14,4.06l15.65,6.33c2.08.84,3.86,1.47,5.64,1.92ZM1766.83,920.88l3.62-8.42c-2.39-1.92-4.78-3.59-7.23-5.14l-2.23,6.97,5.84,6.59ZM1776.92,945.43l2.35-3.66-20.55-23.86.47,10.61,17.73,16.91ZM1734.52,931.92l-8.82,3.85c4.56,1.62,7.75,1.25,12.27.11l-3.45-3.95ZM1769.41,950.57c.72.64,3.67-.89,3.46-1.57s-.74-2.31-1.31-2.84l-20.09-18.54-1.84,5.27,19.78,17.68ZM1794.56,936.92c-6.68-5.81-13.28-12.43-21.4-18.39-1.2.91,18.92,22.51,21.4,18.39ZM1783.7,936.98l-13.24-12.77c-.3,2.98,11.65,14.01,13.12,14.85.31.18.57-1.65.12-2.09ZM1757.66,951.46c-4.98-4.35-9.07-7.49-13.29-10.21l-10.92,3.19,16.54,7.17c2.01.87,5.74.64,7.68-.15ZM1747.33,957.72c-8.82-4.97-27.68,6.04-34.17,13.3-5.71,6.38-10.36,13.6-14.39,20.91-3.19,5.78-3.61,11.7-2.63,18.08l2.49,16.21c.11.69-.86,2.95-1.43,2.61-.43-.26-1.61-1.26-1.7-1.86l-2.93-18.95c-1.07-6.91-.1-13.22,2.98-19.4,3.59-7.22,8.05-14.03,13.03-20.5,6.18-8.03,14.67-12.72,23.36-15.83-8.16-3.84-14.68-2.47-20.9,2.46-6.67,5.28-12.14,11.71-17.11,18.73l-13.53,19.13c-1.06,11.46,15.73,40.48,22.78,50.33,5.19,7.25,12.27,12.4,18.48,18.39l-17.39-30.03c-3.57-6.17,3.91-22.78,7.79-28.61,8.76-13.19,4.48-21.31,13.89-36.01,6.64-10.38,12.68-6.24,21.4-8.98ZM1808.68,977c1.58,1.01,6.13-1.41,5.96-3.14-.87-8.64.24-16.68,3.29-24.25-1.67-2.1-3.21-4.52-4.22-6.11-3.78-2.77-9.81-.12-12.83,2.21,2.36,9.18-1.41,17.46-8.29,23.37l7.81,3.83.04-6.11c2.16,4.12,4.15,7.59,8.24,10.19ZM1822.44,983.4c5.5.11,7.95-4.56,8.15-9.12.21-4.86,4.27-9.61,3.95-14.68-.93-4.19-6.8-6.95-10.78-7.73-2.09,6.49-3.6,12.8-3.61,19.39,0,3.48-.33,6-1.63,9.29.24.53,2.79,2.82,3.93,2.84ZM1786.49,977.73l-1.5-4.26c-.43.7-1.2,2.19-.74,2.54l2.24,1.71ZM1899,1083.83c-4.37-4.42-7.06-7.67-9.49-12.25-6.78-12.8-14.34-24.62-23.54-35.83-5.01-6.1-9.4-12.59-15.1-17.96-7.2-6.79-13.88-13.72-21.37-20.01-9.34-7.85-21.18-12.16-30.55-18.42l1.63,6.51c15.98,12.57,25.34,14.23,39.5,31.67,20.65,25.45,35.05,48.45,56.22,74.78l2.7-8.48ZM1839.57,995.39c3.83-3.55,5.8-7.41,7.8-11.7,1.84-3.95,5.32-7.98,3.8-12.8-2.33-2.22-6.68-4.47-9.98-5.96l-6.17,12.58c-1.98,4.04-2.45,8.14-7.07,10.32l2.45,1.94c.38.3,1.02-.94,1.69-1.98l7.48,7.6ZM1880.83,1101.39c5.55.15,9.62-1.92,12.26-5.81l-24.14-32.44-30.6-40.88c-6.61-8.83-14.91-15.52-23.72-21.08-.71,3.36.81,5.09,3.2,7.02,9.45,7.59,15.98,17.67,22.48,27.94,7.74,9.5,16.05,18.31,21.75,29.25l18.77,36ZM1901.43,1079.27c2.44-2.83,4.35-6.07,4.34-9.06-6.17-6.78-11.53-13.19-17.05-20.24-7.53-9.63-36.39-44.99-44.71-49.59-.4-.22-1.77,1.64-1.29,2.12l20.46,20.7c9.32,9.43,16.84,19.64,22.33,31.42l4.29,9.21c2.84,6.1,6.55,10.9,11.64,15.45Z"/>
    </g>
  </g>
</svg>